  0
SECTION
  2
HEADER
  9
$ACADVER
  1
AC1027
  9
$ACADMAINTVER
 70
105
  9
$DWGCODEPAGE
  3
ANSI_1252
  9
$LASTSAVEDBY
  1
ezdxf
  9
$REQUIREDVERSIONS
160
0
  9
$INSBASE
 10
0.0
 20
0.0
 30
0.0
  9
$EXTMIN
 10
1e+20
 20
1e+20
 30
1e+20
  9
$EXTMAX
 10
-1e+20
 20
-1e+20
 30
-1e+20
  9
$LIMMIN
 10
0.0
 20
0.0
  9
$LIMMAX
 10
420.0
 20
297.0
  9
$ORTHOMODE
 70
0
  9
$REGENMODE
 70
1
  9
$FILLMODE
 70
1
  9
$QTEXTMODE
 70
0
  9
$MIRRTEXT
 70
1
  9
$LTSCALE
 40
1.0
  9
$ATTMODE
 70
1
  9
$TEXTSIZE
 40
2.5
  9
$TRACEWID
 40
1.0
  9
$TEXTSTYLE
  7
Standard
  9
$CLAYER
  8
0
  9
$CELTYPE
  6
ByLayer
  9
$CECOLOR
 62
256
  9
$CELTSCALE
 40
1.0
  9
$DISPSILH
 70
0
  9
$DIMSCALE
 40
1.0
  9
$DIMASZ
 40
2.5
  9
$DIMEXO
 40
0.625
  9
$DIMDLI
 40
3.75
  9
$DIMRND
 40
0.0
  9
$DIMDLE
 40
0.0
  9
$DIMEXE
 40
1.25
  9
$DIMTP
 40
0.0
  9
$DIMTM
 40
0.0
  9
$DIMTXT
 40
2.5
  9
$DIMCEN
 40
2.5
  9
$DIMTSZ
 40
0.0
  9
$DIMTOL
 70
0
  9
$DIMLIM
 70
0
  9
$DIMTIH
 70
0
  9
$DIMTOH
 70
0
  9
$DIMSE1
 70
0
  9
$DIMSE2
 70
0
  9
$DIMTAD
 70
1
  9
$DIMZIN
 70
8
  9
$DIMBLK
  1

  9
$DIMASO
 70
1
  9
$DIMSHO
 70
1
  9
$DIMPOST
  1

  9
$DIMAPOST
  1

  9
$DIMALT
 70
0
  9
$DIMALTD
 70
3
  9
$DIMALTF
 40
0.03937007874
  9
$DIMLFAC
 40
1.0
  9
$DIMTOFL
 70
1
  9
$DIMTVP
 40
0.0
  9
$DIMTIX
 70
0
  9
$DIMSOXD
 70
0
  9
$DIMSAH
 70
0
  9
$DIMBLK1
  1

  9
$DIMBLK2
  1

  9
$DIMSTYLE
  2
ISO-25
  9
$DIMCLRD
 70
0
  9
$DIMCLRE
 70
0
  9
$DIMCLRT
 70
0
  9
$DIMTFAC
 40
1.0
  9
$DIMGAP
 40
0.625
  9
$DIMJUST
 70
0
  9
$DIMSD1
 70
0
  9
$DIMSD2
 70
0
  9
$DIMTOLJ
 70
0
  9
$DIMTZIN
 70
8
  9
$DIMALTZ
 70
0
  9
$DIMALTTZ
 70
0
  9
$DIMUPT
 70
0
  9
$DIMDEC
 70
2
  9
$DIMTDEC
 70
2
  9
$DIMALTU
 70
2
  9
$DIMALTTD
 70
3
  9
$DIMTXSTY
  7
Standard
  9
$DIMAUNIT
 70
0
  9
$DIMADEC
 70
0
  9
$DIMALTRND
 40
0.0
  9
$DIMAZIN
 70
0
  9
$DIMDSEP
 70
44
  9
$DIMATFIT
 70
3
  9
$DIMFRAC
 70
0
  9
$DIMLDRBLK
  1

  9
$DIMLUNIT
 70
2
  9
$DIMLWD
 70
-2
  9
$DIMLWE
 70
-2
  9
$DIMTMOVE
 70
0
  9
$DIMFXL
 40
1.0
  9
$DIMFXLON
 70
0
  9
$DIMJOGANG
 40
0.785398163397
  9
$DIMTFILL
 70
0
  9
$DIMTFILLCLR
 70
0
  9
$DIMARCSYM
 70
0
  9
$DIMLTYPE
  6

  9
$DIMLTEX1
  6

  9
$DIMLTEX2
  6

  9
$DIMTXTDIRECTION
 70
0
  9
$LUNITS
 70
2
  9
$LUPREC
 70
4
  9
$SKETCHINC
 40
1.0
  9
$FILLETRAD
 40
10.0
  9
$AUNITS
 70
0
  9
$AUPREC
 70
2
  9
$MENU
  1
.
  9
$ELEVATION
 40
0.0
  9
$PELEVATION
 40
0.0
  9
$THICKNESS
 40
0.0
  9
$LIMCHECK
 70
0
  9
$CHAMFERA
 40
0.0
  9
$CHAMFERB
 40
0.0
  9
$CHAMFERC
 40
0.0
  9
$CHAMFERD
 40
0.0
  9
$SKPOLY
 70
0
  9
$TDCREATE
 40
2460624.9910185183
  9
$TDUCREATE
 40
2458532.153996898
  9
$TDUPDATE
 40
2460624.9910185183
  9
$TDUUPDATE
 40
2458532.1544311
  9
$TDINDWG
 40
0.0
  9
$TDUSRTIMER
 40
0.0
  9
$USRTIMER
 70
1
  9
$ANGBASE
 50
0.0
  9
$ANGDIR
 70
0
  9
$PDMODE
 70
0
  9
$PDSIZE
 40
0.0
  9
$PLINEWID
 40
0.0
  9
$SPLFRAME
 70
0
  9
$SPLINETYPE
 70
6
  9
$SPLINESEGS
 70
8
  9
$HANDSEED
  5
14E
  9
$SURFTAB1
 70
6
  9
$SURFTAB2
 70
6
  9
$SURFTYPE
 70
6
  9
$SURFU
 70
6
  9
$SURFV
 70
6
  9
$UCSBASE
  2

  9
$UCSNAME
  2

  9
$UCSORG
 10
0.0
 20
0.0
 30
0.0
  9
$UCSXDIR
 10
1.0
 20
0.0
 30
0.0
  9
$UCSYDIR
 10
0.0
 20
1.0
 30
0.0
  9
$UCSORTHOREF
  2

  9
$UCSORTHOVIEW
 70
0
  9
$UCSORGTOP
 10
0.0
 20
0.0
 30
0.0
  9
$UCSORGBOTTOM
 10
0.0
 20
0.0
 30
0.0
  9
$UCSORGLEFT
 10
0.0
 20
0.0
 30
0.0
  9
$UCSORGRIGHT
 10
0.0
 20
0.0
 30
0.0
  9
$UCSORGFRONT
 10
0.0
 20
0.0
 30
0.0
  9
$UCSORGBACK
 10
0.0
 20
0.0
 30
0.0
  9
$PUCSBASE
  2

  9
$PUCSNAME
  2

  9
$PUCSORG
 10
0.0
 20
0.0
 30
0.0
  9
$PUCSXDIR
 10
1.0
 20
0.0
 30
0.0
  9
$PUCSYDIR
 10
0.0
 20
1.0
 30
0.0
  9
$PUCSORTHOREF
  2

  9
$PUCSORTHOVIEW
 70
0
  9
$PUCSORGTOP
 10
0.0
 20
0.0
 30
0.0
  9
$PUCSORGBOTTOM
 10
0.0
 20
0.0
 30
0.0
  9
$PUCSORGLEFT
 10
0.0
 20
0.0
 30
0.0
  9
$PUCSORGRIGHT
 10
0.0
 20
0.0
 30
0.0
  9
$PUCSORGFRONT
 10
0.0
 20
0.0
 30
0.0
  9
$PUCSORGBACK
 10
0.0
 20
0.0
 30
0.0
  9
$USERI1
 70
0
  9
$USERI2
 70
0
  9
$USERI3
 70
0
  9
$USERI4
 70
0
  9
$USERI5
 70
0
  9
$USERR1
 40
0.0
  9
$USERR2
 40
0.0
  9
$USERR3
 40
0.0
  9
$USERR4
 40
0.0
  9
$USERR5
 40
0.0
  9
$WORLDVIEW
 70
1
  9
$SHADEDGE
 70
3
  9
$SHADEDIF
 70
70
  9
$TILEMODE
 70
1
  9
$MAXACTVP
 70
64
  9
$PINSBASE
 10
0.0
 20
0.0
 30
0.0
  9
$PLIMCHECK
 70
0
  9
$PEXTMIN
 10
1e+20
 20
1e+20
 30
1e+20
  9
$PEXTMAX
 10
-1e+20
 20
-1e+20
 30
-1e+20
  9
$PLIMMIN
 10
0.0
 20
0.0
  9
$PLIMMAX
 10
420.0
 20
297.0
  9
$UNITMODE
 70
0
  9
$VISRETAIN
 70
1
  9
$PLINEGEN
 70
0
  9
$PSLTSCALE
 70
1
  9
$TREEDEPTH
 70
3020
  9
$CMLSTYLE
  2
Standard
  9
$CMLJUST
 70
0
  9
$CMLSCALE
 40
20.0
  9
$PROXYGRAPHICS
 70
1
  9
$MEASUREMENT
 70
1
  9
$CELWEIGHT
370
-1
  9
$ENDCAPS
280
0
  9
$JOINSTYLE
280
0
  9
$LWDISPLAY
290
0
  9
$INSUNITS
 70
6
  9
$HYPERLINKBASE
  1

  9
$STYLESHEET
  1

  9
$XEDIT
290
1
  9
$CEPSNTYPE
380
0
  9
$PSTYLEMODE
290
1
  9
$FINGERPRINTGUID
  2
{C5557411-BA7D-477E-AFE0-910261588E59}
  9
$VERSIONGUID
  2
{40BA6C5B-FDEC-4C42-BB9F-5B46E1315341}
  9
$EXTNAMES
290
1
  9
$PSVPSCALE
 40
0.0
  9
$OLESTARTUP
290
0
  9
$SORTENTS
280
127
  9
$INDEXCTL
280
0
  9
$HIDETEXT
280
1
  9
$XCLIPFRAME
280
1
  9
$HALOGAP
280
0
  9
$OBSCOLOR
 70
257
  9
$OBSLTYPE
280
0
  9
$INTERSECTIONDISPLAY
280
0
  9
$INTERSECTIONCOLOR
 70
257
  9
$DIMASSOC
280
2
  9
$PROJECTNAME
  1

  9
$CAMERADISPLAY
290
0
  9
$LENSLENGTH
 40
50.0
  9
$CAMERAHEIGHT
 40
0.0
  9
$STEPSPERSEC
 40
24.0
  9
$STEPSIZE
 40
100.0
  9
$3DDWFPREC
 40
2.0
  9
$PSOLWIDTH
 40
0.005
  9
$PSOLHEIGHT
 40
0.08
  9
$LOFTANG1
 40
1.570796326795
  9
$LOFTANG2
 40
1.570796326795
  9
$LOFTMAG1
 40
0.0
  9
$LOFTMAG2
 40
0.0
  9
$LOFTPARAM
 70
7
  9
$LOFTNORMALS
280
1
  9
$LATITUDE
 40
37.795
  9
$LONGITUDE
 40
-122.394
  9
$NORTHDIRECTION
 40
0.0
  9
$TIMEZONE
 70
-8000
  9
$LIGHTGLYPHDISPLAY
280
1
  9
$TILEMODELIGHTSYNCH
280
1
  9
$CMATERIAL
347
20
  9
$SOLIDHIST
280
0
  9
$SHOWHIST
280
1
  9
$DWFFRAME
280
2
  9
$DGNFRAME
280
2
  9
$REALWORLDSCALE
290
1
  9
$INTERFERECOLOR
 62
256
  9
$CSHADOW
280
0
  9
$SHADOWPLANELOCATION
 40
0.0
  0
ENDSEC
  0
SECTION
  2
CLASSES
  0
CLASS
  1
ACDBDICTIONARYWDFLT
  2
AcDbDictionaryWithDefault
  3
ObjectDBX Classes
 90
0
 91
0
280
0
281
0
  0
CLASS
  1
SUN
  2
AcDbSun
  3
SCENEOE
 90
1153
 91
0
280
0
281
0
  0
CLASS
  1
VISUALSTYLE
  2
AcDbVisualStyle
  3
ObjectDBX Classes
 90
4095
 91
0
280
0
281
0
  0
CLASS
  1
MATERIAL
  2
AcDbMaterial
  3
ObjectDBX Classes
 90
1153
 91
0
280
0
281
0
  0
CLASS
  1
SCALE
  2
AcDbScale
  3
ObjectDBX Classes
 90
1153
 91
0
280
0
281
0
  0
CLASS
  1
TABLESTYLE
  2
AcDbTableStyle
  3
ObjectDBX Classes
 90
4095
 91
0
280
0
281
0
  0
CLASS
  1
MLEADERSTYLE
  2
AcDbMLeaderStyle
  3
ACDB_MLEADERSTYLE_CLASS
 90
4095
 91
0
280
0
281
0
  0
CLASS
  1
DICTIONARYVAR
  2
AcDbDictionaryVar
  3
ObjectDBX Classes
 90
0
 91
0
280
0
281
0
  0
CLASS
  1
CELLSTYLEMAP
  2
AcDbCellStyleMap
  3
ObjectDBX Classes
 90
1152
 91
0
280
0
281
0
  0
CLASS
  1
MENTALRAYRENDERSETTINGS
  2
AcDbMentalRayRenderSettings
  3
SCENEOE
 90
1024
 91
0
280
0
281
0
  0
CLASS
  1
ACDBDETAILVIEWSTYLE
  2
AcDbDetailViewStyle
  3
ObjectDBX Classes
 90
1025
 91
0
280
0
281
0
  0
CLASS
  1
ACDBSECTIONVIEWSTYLE
  2
AcDbSectionViewStyle
  3
ObjectDBX Classes
 90
1025
 91
0
280
0
281
0
  0
CLASS
  1
RASTERVARIABLES
  2
AcDbRasterVariables
  3
ISM
 90
0
 91
0
280
0
281
0
  0
CLASS
  1
LAYOUT
  2
AcDbLayout
  3
ObjectDBX Classes
 90
0
 91
0
280
0
281
0
  0
CLASS
  1
ACDBPLACEHOLDER
  2
AcDbPlaceHolder
  3
ObjectDBX Classes
 90
0
 91
0
280
0
281
0
  0
ENDSEC
  0
SECTION
  2
TABLES
  0
TABLE
  2
VPORT
  5
8
330
0
100
AcDbSymbolTable
 70
1
  0
VPORT
  5
23
330
8
100
AcDbSymbolTableRecord
100
AcDbViewportTableRecord
  2
*Active
 70
0
 10
0.0
 20
0.0
 11
1.0
 21
1.0
 12
0.0
 22
0.0
 13
0.0
 23
0.0
 14
0.5
 24
0.5
 15
0.5
 25
0.5
 16
0.0
 26
0.0
 36
1.0
 17
0.0
 27
0.0
 37
0.0
 40
1000.0
 41
1.34
 42
50.0
 43
0.0
 44
0.0
 50
0.0
 51
0.0
 71
0
 72
1000
 73
1
 74
3
 75
0
 76
0
 77
0
 78
0
281
0
 65
0
146
0.0
  0
ENDTAB
  0
TABLE
  2
LTYPE
  5
2
330
0
100
AcDbSymbolTable
 70
3
  0
LTYPE
  5
24
330
2
100
AcDbSymbolTableRecord
100
AcDbLinetypeTableRecord
  2
ByBlock
 70
0
  3

 72
65
 73
0
 40
0.0
  0
LTYPE
  5
25
330
2
100
AcDbSymbolTableRecord
100
AcDbLinetypeTableRecord
  2
ByLayer
 70
0
  3

 72
65
 73
0
 40
0.0
  0
LTYPE
  5
26
330
2
100
AcDbSymbolTableRecord
100
AcDbLinetypeTableRecord
  2
Continuous
 70
0
  3

 72
65
 73
0
 40
0.0
  0
ENDTAB
  0
TABLE
  2
LAYER
  5
1
330
0
100
AcDbSymbolTable
 70
2
  0
LAYER
  5
27
330
1
100
AcDbSymbolTableRecord
100
AcDbLayerTableRecord
  2
0
 70
0
 62
7
  6
Continuous
370
-3
390
13
347
21
  0
LAYER
  5
28
330
1
100
AcDbSymbolTableRecord
100
AcDbLayerTableRecord
  2
Defpoints
 70
0
 62
7
  6
Continuous
290
0
370
-3
390
13
347
21
  0
ENDTAB
  0
TABLE
  2
STYLE
  5
5
330
0
100
AcDbSymbolTable
 70
1
  0
STYLE
  5
29
330
5
100
AcDbSymbolTableRecord
100
AcDbTextStyleTableRecord
  2
Standard
 70
0
 40
0.0
 41
1.0
 50
0.0
 71
0
 42
2.5
  3
txt
  4

  0
ENDTAB
  0
TABLE
  2
VIEW
  5
7
330
0
100
AcDbSymbolTable
 70
0
  0
ENDTAB
  0
TABLE
  2
UCS
  5
6
330
0
100
AcDbSymbolTable
 70
0
  0
ENDTAB
  0
TABLE
  2
APPID
  5
3
330
0
100
AcDbSymbolTable
 70
3
  0
APPID
  5
2A
330
3
100
AcDbSymbolTableRecord
100
AcDbRegAppTableRecord
  2
ACAD
 70
0
  0
APPID
  5
14B
330
3
100
AcDbSymbolTableRecord
100
AcDbRegAppTableRecord
  2
HATCHBACKGROUNDCOLOR
 70
0
  0
APPID
  5
14C
330
3
100
AcDbSymbolTableRecord
100
AcDbRegAppTableRecord
  2
EZDXF
 70
0
  0
ENDTAB
  0
TABLE
  2
DIMSTYLE
  5
4
330
0
100
AcDbSymbolTable
 70
1
100
AcDbDimStyleTable
  0
DIMSTYLE
105
2B
330
4
100
AcDbSymbolTableRecord
100
AcDbDimStyleTableRecord
  2
Standard
 70
0
 40
1.0
 41
2.5
 42
0.625
 43
3.75
 44
1.25
 45
0.0
 46
0.0
 47
0.0
 48
0.0
 49
2.5
140
2.5
141
2.5
142
0.0
143
0.03937007874
144
1.0
145
0.0
146
1.0
147
0.625
148
0.0
 69
0
 70
0
 71
0
 72
0
 73
0
 74
0
 75
0
 76
0
 77
1
 78
8
 79
3
170
0
171
3
172
1
173
0
174
0
175
0
176
0
177
0
178
0
179
2
271
2
272
2
273
2
274
3
275
0
276
0
277
2
278
44
279
0
280
0
281
0
282
0
283
0
284
8
285
0
286
0
288
0
289
3
290
0
371
-2
372
-2
  0
ENDTAB
  0
TABLE
  2
BLOCK_RECORD
  5
9
330
0
100
AcDbSymbolTable
 70
2
  0
BLOCK_RECORD
  5
17
330
9
100
AcDbSymbolTableRecord
100
AcDbBlockTableRecord
  2
*Model_Space
340
1A
 70
0
280
1
281
0
  0
BLOCK_RECORD
  5
1B
330
9
100
AcDbSymbolTableRecord
100
AcDbBlockTableRecord
  2
*Paper_Space
340
1E
 70
0
280
1
281
0
  0
ENDTAB
  0
ENDSEC
  0
SECTION
  2
BLOCKS
  0
BLOCK
  5
18
330
17
100
AcDbEntity
  8
0
100
AcDbBlockBegin
  2
*Model_Space
 70
0
 10
0.0
 20
0.0
 30
0.0
  3
*Model_Space
  1

  0
ENDBLK
  5
19
330
17
100
AcDbEntity
  8
0
100
AcDbBlockEnd
  0
BLOCK
  5
1C
330
1B
100
AcDbEntity
  8
0
100
AcDbBlockBegin
  2
*Paper_Space
 70
0
 10
0.0
 20
0.0
 30
0.0
  3
*Paper_Space
  1

  0
ENDBLK
  5
1D
330
1B
100
AcDbEntity
  8
0
100
AcDbBlockEnd
  0
ENDSEC
  0
SECTION
  2
ENTITIES
  0
LWPOLYLINE
  5
2F
330
17
100
AcDbEntity
  8
0
100
AcDbPolyline
 90
100
 70
1
 10
4.0
 20
0.0
 10
3.9921069137130862
 20
0.2511620781172535
 10
3.9684588052579115
 20
0.501332934257217
 10
3.929149002914755
 20
0.7495252583428985
 10
3.8743326445145243
 20
0.9947595486594192
 10
3.804226065180614
 20
1.2360679774997896
 10
3.7191059435530054
 20
1.472498210738712
 10
3.619308209864078
 20
1.7031171662602909
 10
3.5052267201754543
 20
1.9270146964068613
 10
3.3773117020080603
 20
2.1433071799159866
 10
3.23606797749979
 20
2.3511410091698925
 10
3.0820529711031566
 20
2.549695958994759
 10
2.915874509685646
 20
2.738188423714755
 10
2.7381884237147545
 20
2.915874509685646
 10
2.5496959589947585
 20
3.082052971103157
 10
2.351141009169892
 20
3.23606797749979
 10
2.143307179915986
 20
3.3773117020080603
 10
1.9270146964068606
 20
3.505226720175455
 10
1.7031171662602906
 20
3.6193082098640783
 10
1.4724982107387115
 20
3.719105943553006
 10
1.2360679774997898
 20
3.804226065180614
 10
0.994759548659419
 20
3.8743326445145243
 10
0.7495252583428981
 20
3.929149002914755
 10
0.501332934257217
 20
3.9684588052579115
 10
0.2511620781172532
 20
3.9921069137130862
 10
-6.432490598706546e-16
 20
4.0
 10
-0.2511620781172536
 20
3.9921069137130862
 10
-0.5013329342572175
 20
3.968458805257911
 10
-0.7495252583428993
 20
3.9291490029147544
 10
-0.9947595486594194
 20
3.8743326445145243
 10
-1.2360679774997902
 20
3.804226065180614
 10
-1.472498210738712
 20
3.719105943553006
 10
-1.7031171662602909
 20
3.619308209864078
 10
-1.9270146964068617
 20
3.505226720175454
 10
-2.1433071799159875
 20
3.37731170200806
 10
-2.351141009169892
 20
3.23606797749979
 10
-2.549695958994759
 20
3.082052971103157
 10
-2.738188423714755
 20
2.9158745096856458
 10
-2.9158745096856467
 20
2.738188423714754
 10
-3.0820529711031575
 20
2.549695958994758
 10
-3.2360679774997894
 20
2.351141009169893
 10
-3.3773117020080603
 20
2.1433071799159866
 10
-3.5052267201754543
 20
1.9270146964068608
 10
-3.6193082098640783
 20
1.70311716626029
 10
-3.719105943553006
 20
1.472498210738711
 10
-3.8042260651806146
 20
1.2360679774997885
 10
-3.8743326445145243
 20
0.9947595486594193
 10
-3.929149002914755
 20
0.7495252583428983
 10
-3.9684588052579115
 20
0.5013329342572164
 10
-3.9921069137130862
 20
0.25116207811725255
 10
-4.0
 20
-1.2864981197413093e-15
 10
-3.9921069137130862
 20
-0.2511620781172534
 10
-3.9684588052579115
 20
-0.5013329342572171
 10
-3.9291490029147544
 20
-0.7495252583428991
 10
-3.8743326445145243
 20
-0.9947595486594201
 10
-3.804226065180614
 20
-1.236067977499791
 10
-3.719105943553005
 20
-1.4724982107387132
 10
-3.619308209864078
 20
-1.7031171662602906
 10
-3.5052267201754543
 20
-1.9270146964068615
 10
-3.37731170200806
 20
-2.143307179915987
 10
-3.236067977499789
 20
-2.3511410091698934
 10
-3.082052971103156
 20
-2.54969595899476
 10
-2.915874509685646
 20
-2.738188423714755
 10
-2.7381884237147545
 20
-2.915874509685646
 10
-2.549695958994758
 20
-3.0820529711031575
 10
-2.351141009169893
 20
-3.2360679774997894
 10
-2.1433071799159853
 20
-3.377311702008061
 10
-1.927014696406861
 20
-3.5052267201754543
 10
-1.7031171662602886
 20
-3.619308209864079
 10
-1.4724982107387112
 20
-3.719105943553006
 10
-1.2360679774997902
 20
-3.804226065180614
 10
-0.9947595486594177
 20
-3.8743326445145247
 10
-0.7495252583428985
 20
-3.929149002914755
 10
-0.5013329342572149
 20
-3.9684588052579115
 10
-0.25116207811725283
 20
-3.9921069137130862
 10
-7.347880794884119e-16
 20
-4.0
 10
0.2511620781172549
 20
-3.9921069137130862
 10
0.5013329342572169
 20
-3.9684588052579115
 10
0.7495252583429005
 20
-3.9291490029147544
 10
0.9947595486594197
 20
-3.8743326445145243
 10
1.236067977499789
 20
-3.8042260651806146
 10
1.472498210738713
 20
-3.719105943553005
 10
1.7031171662602904
 20
-3.6193082098640783
 10
1.9270146964068628
 20
-3.5052267201754534
 10
2.143307179915987
 20
-3.37731170200806
 10
2.3511410091698948
 20
-3.236067977499788
 10
2.54969595899476
 20
-3.082052971103156
 10
2.7381884237147545
 20
-2.915874509685646
 10
2.9158745096856475
 20
-2.738188423714753
 10
3.0820529711031575
 20
-2.5496959589947585
 10
3.236067977499791
 20
-2.3511410091698903
 10
3.3773117020080607
 20
-2.1433071799159853
 10
3.5052267201754543
 20
-1.9270146964068613
 10
3.6193082098640788
 20
-1.7031171662602889
 10
3.719105943553006
 20
-1.4724982107387115
 10
3.804226065180615
 20
-1.2360679774997871
 10
3.8743326445145247
 20
-0.994759548659418
 10
3.929149002914755
 20
-0.7495252583428987
 10
3.9684588052579115
 20
-0.5013329342572151
 10
3.9921069137130862
 20
-0.25116207811725305
  0
LWPOLYLINE
  5
30
330
17
100
AcDbEntity
  8
0
100
AcDbPolyline
 90
100
 70
1
 10
170.0
 20
0.0
 10
169.66454383280617
 20
10.674388319983274
 10
168.65949922346124
 20
21.306649705931726
 10
166.98883262387707
 20
31.854823479573188
 10
164.6591373918673
 20
42.27728081802532
 10
161.6796077701761
 20
52.53288904374106
 10
158.06200260100272
 20
62.581173956395254
 10
153.8205989192233
 20
72.38247956606236
 10
148.9721356074568
 20
81.8981245972916
 10
143.53574733534256
 20
91.09055514642944
 10
137.53288904374108
 20
99.92349288972044
 10
130.98725127188416
 20
108.36207825727726
 10
123.92466666163996
 20
116.37300800787709
 10
116.37300800787706
 20
123.92466666163996
 10
108.36207825727723
 20
130.98725127188416
 10
99.92349288972042
 20
137.53288904374108
 10
91.09055514642941
 20
143.53574733534256
 10
81.89812459729157
 20
148.97213560745683
 10
72.38247956606236
 20
153.82059891922333
 10
62.58117395639524
 20
158.06200260100275
 10
52.532889043741065
 20
161.6796077701761
 10
42.277280818025304
 20
164.6591373918673
 10
31.854823479573167
 20
166.98883262387707
 10
21.306649705931726
 20
168.65949922346124
 10
10.674388319983262
 20
169.66454383280617
 10
-2.7338085044502822e-14
 20
170.0
 10
-10.674388319983278
 20
169.66454383280617
 10
-21.306649705931743
 20
168.6594992234612
 10
-31.85482347957322
 20
166.98883262387707
 10
-42.277280818025325
 20
164.6591373918673
 10
-52.532889043741086
 20
161.6796077701761
 10
-62.581173956395254
 20
158.06200260100275
 10
-72.38247956606236
 20
153.8205989192233
 10
-81.89812459729163
 20
148.97213560745678
 10
-91.09055514642947
 20
143.53574733534253
 10
-99.92349288972042
 20
137.53288904374108
 10
-108.36207825727726
 20
130.98725127188416
 10
-116.37300800787709
 20
123.92466666163995
 10
-123.92466666163999
 20
116.37300800787705
 10
-130.9872512718842
 20
108.36207825727722
 10
-137.53288904374105
 20
99.92349288972045
 10
-143.53574733534256
 20
91.09055514642944
 10
-148.9721356074568
 20
81.89812459729158
 10
-153.82059891922333
 20
72.38247956606233
 10
-158.06200260100275
 20
62.58117395639522
 10
-161.67960777017612
 20
52.53288904374101
 10
-164.6591373918673
 20
42.27728081802532
 10
-166.98883262387707
 20
31.854823479573177
 10
-168.65949922346124
 20
21.306649705931697
 10
-169.66454383280617
 20
10.674388319983233
 10
-170.0
 20
-5.4676170089005644e-14
 10
-169.66454383280617
 20
-10.674388319983269
 10
-168.65949922346124
 20
-21.30664970593173
 10
-166.98883262387707
 20
-31.85482347957321
 10
-164.6591373918673
 20
-42.27728081802535
 10
-161.6796077701761
 20
-52.532889043741115
 10
-158.06200260100272
 20
-62.58117395639531
 10
-153.8205989192233
 20
-72.38247956606236
 10
-148.9721356074568
 20
-81.89812459729161
 10
-143.53574733534253
 20
-91.09055514642945
 10
-137.53288904374102
 20
-99.92349288972048
 10
-130.98725127188413
 20
-108.36207825727729
 10
-123.92466666163996
 20
-116.37300800787709
 10
-116.37300800787706
 20
-123.92466666163996
 10
-108.36207825727722
 20
-130.9872512718842
 10
-99.92349288972045
 20
-137.53288904374105
 10
-91.09055514642938
 20
-143.5357473353426
 10
-81.8981245972916
 20
-148.9721356074568
 10
-72.38247956606227
 20
-153.82059891922336
 10
-62.581173956395226
 20
-158.06200260100275
 10
-52.532889043741086
 20
-161.6796077701761
 10
-42.277280818025254
 20
-164.6591373918673
 10
-31.854823479573188
 20
-166.98883262387707
 10
-21.306649705931633
 20
-168.65949922346124
 10
-10.674388319983246
 20
-169.66454383280617
 10
-3.122849337825751e-14
 20
-170.0
 10
10.674388319983333
 20
-169.66454383280617
 10
21.30664970593172
 20
-168.65949922346124
 10
31.854823479573273
 20
-166.98883262387707
 10
42.27728081802534
 20
-164.6591373918673
 10
52.53288904374103
 20
-161.67960777017612
 10
62.581173956395304
 20
-158.06200260100272
 10
72.38247956606234
 20
-153.82059891922333
 10
81.89812459729167
 20
-148.97213560745678
 10
91.09055514642945
 20
-143.53574733534253
 10
99.92349288972052
 20
-137.532889043741
 10
108.36207825727729
 20
-130.98725127188413
 10
116.37300800787706
 20
-123.92466666163996
 10
123.92466666164002
 20
-116.373008007877
 10
130.9872512718842
 20
-108.36207825727723
 10
137.53288904374114
 20
-99.92349288972034
 10
143.5357473353426
 20
-91.09055514642938
 10
148.9721356074568
 20
-81.8981245972916
 10
153.82059891922336
 20
-72.38247956606227
 10
158.06200260100275
 20
-62.58117395639524
 10
161.67960777017615
 20
-52.53288904374095
 10
164.6591373918673
 20
-42.27728081802526
 10
166.98883262387707
 20
-31.854823479573195
 10
168.65949922346124
 20
-21.306649705931644
 10
169.66454383280617
 20
-10.674388319983255
  0
LWPOLYLINE
  5
31
330
17
100
AcDbEntity
  8
0
100
AcDbPolyline
 90
4
 70
1
 10
73.5
 20
0.0
 10
73.22587267223118
 20
6.342047886147369
 10
61.76876334256236
 20
5.34975467947125
 10
62.0
 20
0.0
  0
LWPOLYLINE
  5
32
330
17
100
AcDbEntity
  8
0
100
AcDbPolyline
 90
4
 70
1
 10
70.99554823224652
 20
19.023199815035273
 10
69.08931878877588
 20
25.07819828661738
 10
58.27942537284496
 20
21.15439855469765
 10
59.88740122992223
 20
16.046780796356288
  0
LWPOLYLINE
  5
33
330
17
100
AcDbEntity
  8
0
100
AcDbPolyline
 90
4
 70
1
 10
63.65286717815624
 20
36.74999999999999
 10
60.24444200536322
 20
42.10531091753661
 10
50.81844087527237
 20
35.51740512771796
 10
53.6935750346352
 20
30.999999999999996
  0
LWPOLYLINE
  5
34
330
17
100
AcDbEntity
  8
0
100
AcDbPolyline
 90
4
 70
1
 10
51.97234841721124
 20
51.97234841721124
 10
47.29400605793275
 20
56.263016191741976
 10
39.894263613494296
 20
47.459959236571464
 10
43.84062043356595
 20
43.84062043356595
  0
LWPOLYLINE
  5
35
330
17
100
AcDbEntity
  8
0
100
AcDbPolyline
 90
4
 70
1
 10
36.75000000000001
 20
63.652867178156235
 10
31.120561754694567
 20
66.5864898915106
 10
26.251358214844394
 20
56.168195554743626
 10
31.000000000000007
 20
53.693575034635195
  0
LWPOLYLINE
  5
36
330
17
100
AcDbEntity
  8
0
100
AcDbPolyline
 90
4
 70
1
 10
19.023199815035273
 20
70.99554823224652
 10
12.82630259703391
 20
72.37220434455013
 10
10.819466136273503
 20
61.048662168191946
 10
16.046780796356288
 20
59.88740122992223
  0
LWPOLYLINE
  5
37
330
17
100
AcDbEntity
  8
0
100
AcDbPolyline
 90
4
 70
1
 10
4.500576986866523e-15
 20
73.5
 10
-6.342047886147377
 20
73.22587267223118
 10
-5.349754679471257
 20
61.76876334256236
 10
3.796405077356795e-15
 20
62.0
  0
LWPOLYLINE
  5
38
330
17
100
AcDbEntity
  8
0
100
AcDbPolyline
 90
4
 70
1
 10
-19.023199815035284
 20
70.99554823224652
 10
-25.078198286617383
 20
69.08931878877588
 10
-21.154398554697654
 20
58.27942537284496
 10
-16.04678079635629
 20
59.88740122992223
  0
LWPOLYLINE
  5
39
330
17
100
AcDbEntity
  8
0
100
AcDbPolyline
 90
4
 70
1
 10
-36.749999999999986
 20
63.65286717815624
 10
-42.10531091753662
 20
60.24444200536321
 10
-35.517405127717964
 20
50.818440875272366
 10
-30.999999999999986
 20
53.6935750346352
  0
LWPOLYLINE
  5
3A
330
17
100
AcDbEntity
  8
0
100
AcDbPolyline
 90
4
 70
1
 10
-51.972348417211236
 20
51.97234841721124
 10
-56.263016191741976
 20
47.294006057932755
 10
-47.459959236571464
 20
39.8942636134943
 10
-43.840620433565945
 20
43.84062043356595
  0
LWPOLYLINE
  5
3B
330
17
100
AcDbEntity
  8
0
100
AcDbPolyline
 90
4
 70
1
 10
-63.65286717815624
 20
36.74999999999999
 10
-66.58648989151058
 20
31.120561754694602
 10
-56.16819555474361
 20
26.251358214844426
 10
-53.6935750346352
 20
30.999999999999996
  0
LWPOLYLINE
  5
3C
330
17
100
AcDbEntity
  8
0
100
AcDbPolyline
 90
4
 70
1
 10
-70.9955482322465
 20
19.023199815035294
 10
-72.37220434455013
 20
12.826302597033932
 10
-61.048662168191946
 20
10.81946613627352
 10
-59.887401229922226
 20
16.046780796356302
  0
LWPOLYLINE
  5
3D
330
17
100
AcDbEntity
  8
0
100
AcDbPolyline
 90
4
 70
1
 10
-73.5
 20
9.001153973733046e-15
 10
-73.22587267223118
 20
-6.3420478861473555
 10
-61.76876334256236
 20
-5.349754679471238
 10
-62.0
 20
7.59281015471359e-15
  0
LWPOLYLINE
  5
3E
330
17
100
AcDbEntity
  8
0
100
AcDbPolyline
 90
4
 70
1
 10
-70.99554823224652
 20
-19.02319981503528
 10
-69.0893187887759
 20
-25.078198286617347
 10
-58.279425372844976
 20
-21.15439855469763
 10
-59.88740122992223
 20
-16.046780796356288
  0
LWPOLYLINE
  5
3F
330
17
100
AcDbEntity
  8
0
100
AcDbPolyline
 90
4
 70
1
 10
-63.652867178156235
 20
-36.75000000000001
 10
-60.24444200536323
 20
-42.105310917536585
 10
-50.81844087527239
 20
-35.517405127717936
 10
-53.693575034635195
 20
-31.000000000000007
  0
LWPOLYLINE
  5
40
330
17
100
AcDbEntity
  8
0
100
AcDbPolyline
 90
4
 70
1
 10
-51.97234841721126
 20
-51.972348417211236
 10
-47.29400605793277
 20
-56.26301619174197
 10
-39.8942636134943
 20
-47.45995923657146
 10
-43.84062043356596
 20
-43.840620433565945
  0
LWPOLYLINE
  5
41
330
17
100
AcDbEntity
  8
0
100
AcDbPolyline
 90
4
 70
1
 10
-36.750000000000036
 20
-63.65286717815623
 10
-31.120561754694606
 20
-66.58648989151057
 10
-26.25135821484443
 20
-56.168195554743605
 10
-31.00000000000003
 20
-53.69357503463519
  0
LWPOLYLINE
  5
42
330
17
100
AcDbEntity
  8
0
100
AcDbPolyline
 90
4
 70
1
 10
-19.023199815035266
 20
-70.99554823224652
 10
-12.826302597033905
 20
-72.37220434455013
 10
-10.819466136273498
 20
-61.048662168191946
 10
-16.04678079635628
 20
-59.88740122992223
  0
LWPOLYLINE
  5
43
330
17
100
AcDbEntity
  8
0
100
AcDbPolyline
 90
4
 70
1
 10
-1.3501730960599567e-14
 20
-73.5
 10
6.342047886147351
 20
-73.22587267223118
 10
5.349754679471236
 20
-61.76876334256236
 10
-1.1389215232070385e-14
 20
-62.0
  0
LWPOLYLINE
  5
44
330
17
100
AcDbEntity
  8
0
100
AcDbPolyline
 90
4
 70
1
 10
19.02319981503524
 20
-70.99554823224653
 10
25.078198286617344
 20
-69.0893187887759
 10
21.154398554697625
 20
-58.279425372844976
 10
16.04678079635626
 20
-59.88740122992224
  0
LWPOLYLINE
  5
45
330
17
100
AcDbEntity
  8
0
100
AcDbPolyline
 90
4
 70
1
 10
36.75000000000001
 20
-63.652867178156235
 10
42.10531091753661
 20
-60.24444200536322
 10
35.51740512771796
 20
-50.81844087527237
 10
31.000000000000007
 20
-53.693575034635195
  0
LWPOLYLINE
  5
46
330
17
100
AcDbEntity
  8
0
100
AcDbPolyline
 90
4
 70
1
 10
51.97234841721123
 20
-51.97234841721126
 10
56.26301619174197
 20
-47.29400605793277
 10
47.45995923657146
 20
-39.8942636134943
 10
43.84062043356594
 20
-43.84062043356596
  0
LWPOLYLINE
  5
47
330
17
100
AcDbEntity
  8
0
100
AcDbPolyline
 90
4
 70
1
 10
63.65286717815622
 20
-36.750000000000036
 10
66.58648989151057
 20
-31.12056175469461
 10
56.168195554743605
 20
-26.251358214844434
 10
53.69357503463518
 20
-31.00000000000003
  0
LWPOLYLINE
  5
48
330
17
100
AcDbEntity
  8
0
100
AcDbPolyline
 90
4
 70
1
 10
70.99554823224652
 20
-19.02319981503527
 10
72.37220434455013
 20
-12.826302597033909
 10
61.048662168191946
 20
-10.819466136273501
 10
59.88740122992223
 20
-16.046780796356284
  0
LWPOLYLINE
  5
49
330
17
100
AcDbEntity
  8
0
100
AcDbPolyline
 90
4
 70
1
 10
87.0
 20
0.0
 10
86.74358944374207
 20
6.674555447033223
 10
75.27748279313248
 20
5.792286623574808
 10
75.5
 20
0.0
  0
LWPOLYLINE
  5
4A
330
17
100
AcDbEntity
  8
0
100
AcDbPolyline
 90
4
 70
1
 10
84.65490374044467
 20
20.063580754592294
 10
82.8661463476791
 20
26.49909035202962
 10
71.91257527873302
 20
22.9963370296349
 10
73.4648877287767
 20
17.411498241054232
  0
LWPOLYLINE
  5
4B
330
17
100
AcDbEntity
  8
0
100
AcDbPolyline
 90
4
 70
1
 10
77.74603970813686
 20
39.04552867744021
 10
74.52136785291025
 20
44.89505243711421
 10
64.67084221718073
 20
38.96064895404739
 10
67.46926434441762
 20
33.884338105134894
  0
LWPOLYLINE
  5
4C
330
17
100
AcDbEntity
  8
0
100
AcDbPolyline
 90
4
 70
1
 10
66.64586655135109
 20
55.922522042728914
 10
62.15912312805389
 20
60.870710624662784
 10
53.942687312276654
 20
52.82458220875908
 10
57.83635545548284
 20
48.53046453133371
  0
LWPOLYLINE
  5
4D
330
17
100
AcDbEntity
  8
0
100
AcDbPolyline
 90
4
 70
1
 10
51.9527974781424
 20
69.78471776968881
 10
46.44586398607482
 20
73.56481304663961
 10
40.306468171823546
 20
63.84072856346311
 10
45.08547367356036
 20
60.5603010530058
  0
LWPOLYLINE
  5
4E
330
17
100
AcDbEntity
  8
0
100
AcDbPolyline
 90
4
 70
1
 10
34.45893964540664
 20
79.88480129858385
 10
28.22869629454264
 20
82.29301735572997
 10
24.497316899287004
 20
71.41520471675418
 10
29.904022335956334
 20
69.3253160694607
  0
LWPOLYLINE
  5
4F
330
17
100
AcDbEntity
  8
0
100
AcDbPolyline
 90
4
 70
1
 10
15.107391457022946
 20
85.6782745120621
 10
8.489712279046003
 20
86.58478379841931
 10
7.367508931815784
 20
75.13966869862826
 10
13.110437413853246
 20
74.35298535242171
  0
LWPOLYLINE
  5
50
330
17
100
AcDbEntity
  8
0
100
AcDbPolyline
 90
4
 70
1
 10
-5.058600115211411
 20
86.85280976960033
 10
-11.706954322894159
 20
86.20874213489992
 10
-10.159483349178265
 20
74.81333369178097
 10
-4.3899345827409375
 20
75.37226594948075
  0
LWPOLYLINE
  5
51
330
17
100
AcDbEntity
  8
0
100
AcDbPolyline
 90
4
 70
1
 10
-24.951881245864847
 20
83.34508757144754
 10
-31.272495987054878
 20
81.1851648685869
 10
-27.138775253133833
 20
70.45379250090012
 10
-21.65364406968731
 20
72.32820817981941
  0
LWPOLYLINE
  5
52
330
17
100
AcDbEntity
  8
0
100
AcDbPolyline
 90
4
 70
1
 10
-43.49999999999998
 20
75.34421012924616
 10
-49.152129297969594
 20
71.78487435021168
 10
-42.65500875858281
 20
62.29606912001128
 10
-37.749999999999986
 20
65.38491798572512
  0
LWPOLYLINE
  5
53
330
17
100
AcDbEntity
  8
0
100
AcDbPolyline
 90
4
 70
1
 10
-59.703022494579834
 20
63.28150681685522
 10
-64.38195859587634
 20
58.51464267479435
 10
-55.871699701019125
 20
50.779948528126134
 10
-51.81124365908939
 20
54.916709938765166
  0
LWPOLYLINE
  5
54
330
17
100
AcDbEntity
  8
0
100
AcDbPolyline
 90
4
 70
1
 10
-72.68743959292549
 20
47.8072810921601
 10
-76.14093984123052
 20
42.08987146682815
 10
-66.07633285072303
 20
36.52626776718994
 10
-63.07932976167671
 20
41.48792784434584
  0
LWPOLYLINE
  5
55
330
17
100
AcDbEntity
  8
0
100
AcDbPolyline
 90
4
 70
1
 10
-81.75325800837402
 20
29.755752469333192
 10
-83.79514331139626
 20
23.396024393528123
 10
-72.71877379322319
 20
20.303446456452566
 10
-70.94679286933608
 20
25.822520821088002
  0
LWPOLYLINE
  5
56
330
17
100
AcDbEntity
  8
0
100
AcDbPolyline
 90
4
 70
1
 10
-86.41173712354905
 20
10.100083528895002
 10
-86.93192891608022
 20
3.440891589337721
 10
-75.44092681797767
 20
2.986061091896528
 10
-74.9894960095167
 20
8.765015016454859
  0
LWPOLYLINE
  5
57
330
17
100
AcDbEntity
  8
0
100
AcDbPolyline
 90
4
 70
1
 10
-86.41173712354903
 20
-10.100083528895059
 10
-85.38219173140719
 20
-16.69974057107543
 10
-74.09603995081888
 20
-14.492303599036724
 10
-74.98949600951669
 20
-8.765015016454909
  0
LWPOLYLINE
  5
58
330
17
100
AcDbEntity
  8
0
100
AcDbPolyline
 90
4
 70
1
 10
-81.75325800837403
 20
-29.755752469333174
 10
-79.22947849013741
 20
-35.940085394735135
 10
-68.75661639086637
 20
-31.189384451752904
 10
-70.9467928693361
 20
-25.822520821087984
  0
LWPOLYLINE
  5
59
330
17
100
AcDbEntity
  8
0
100
AcDbPolyline
 90
4
 70
1
 10
-72.68743959292547
 20
-47.807281092160125
 10
-68.8054835556782
 20
-53.242890912020336
 10
-59.71050584429544
 20
-46.205037515603856
 10
-63.0793297616767
 20
-41.487927844345855
  0
LWPOLYLINE
  5
5A
330
17
100
AcDbEntity
  8
0
100
AcDbPolyline
 90
4
 70
1
 10
-59.70302249457979
 20
-63.281506816855256
 10
-54.67216719309675
 20
-67.67535839882989
 10
-47.44538647217017
 20
-58.72976504726042
 10
-51.811243659089364
 20
-54.916709938765194
  0
LWPOLYLINE
  5
5B
330
17
100
AcDbEntity
  8
0
100
AcDbPolyline
 90
4
 70
1
 10
-43.500000000000036
 20
-75.34421012924615
 10
-37.59146014577245
 20
-78.4594297972449
 10
-32.622474034549654
 20
-68.08835574358609
 10
-37.750000000000036
 20
-65.38491798572511
  0
LWPOLYLINE
  5
5C
330
17
100
AcDbEntity
  8
0
100
AcDbPolyline
 90
4
 70
1
 10
-24.951881245864815
 20
-83.34508757144755
 10
-18.484187751802768
 20
-85.01373302682399
 10
-16.040875577713898
 20
-73.77628555776104
 10
-21.65364406968728
 20
-72.32820817981943
  0
LWPOLYLINE
  5
5D
330
17
100
AcDbEntity
  8
0
100
AcDbPolyline
 90
4
 70
1
 10
-5.058600115211355
 20
-86.85280976960034
 10
1.61957198832027
 20
-86.98492390394239
 10
1.4054906335423032
 20
-75.48691672123736
 10
-4.389934582740889
 20
-75.37226594948075
  0
LWPOLYLINE
  5
5E
330
17
100
AcDbEntity
  8
0
100
AcDbPolyline
 90
4
 70
1
 10
15.107391457022908
 20
-85.6782745120621
 10
21.636020183342303
 20
-84.26673501819093
 10
18.776086480946482
 20
-73.12802866521166
 10
13.110437413853212
 20
-74.35298535242171
  0
LWPOLYLINE
  5
5F
330
17
100
AcDbEntity
  8
0
100
AcDbPolyline
 90
4
 70
1
 10
34.45893964540669
 20
-79.88480129858382
 10
40.48606493000541
 20
-77.00570463597737
 10
35.13445864615412
 20
-66.82678965535966
 10
29.904022335956377
 20
-69.32531606946067
  0
LWPOLYLINE
  5
60
330
17
100
AcDbEntity
  8
0
100
AcDbPolyline
 90
4
 70
1
 10
51.952797478142436
 20
-69.78471776968878
 10
57.153495436864546
 20
-65.59327678465456
 10
49.59872305153188
 20
-56.922901117717466
 10
45.08547367356039
 20
-60.56030105300578
  0
LWPOLYLINE
  5
61
330
17
100
AcDbEntity
  8
0
100
AcDbPolyline
 90
4
 70
1
 10
66.64586655135106
 20
-55.92252204272894
 10
70.73976621109136
 20
-50.64469840368423
 10
61.38910745905056
 20
-43.95028424687539
 10
57.836355455482824
 20
-48.53046453133374
  0
LWPOLYLINE
  5
62
330
17
100
AcDbEntity
  8
0
100
AcDbPolyline
 90
4
 70
1
 10
77.74603970813689
 20
-39.04552867744016
 10
80.51243787857233
 20
-32.96585122287957
 10
69.86998919347369
 20
-28.6082961761771
 10
67.46926434441764
 20
-33.88433810513485
  0
LWPOLYLINE
  5
63
330
17
100
AcDbEntity
  8
0
100
AcDbPolyline
 90
4
 70
1
 10
84.6549037404447
 20
-20.063580754592245
 10
85.94466318015162
 20
-13.509806469757072
 10
74.58416172530399
 20
-11.724027453639756
 10
73.46488772877672
 20
-17.41149824105419
  0
LWPOLYLINE
  5
64
330
17
100
AcDbEntity
  8
0
100
AcDbPolyline
 90
4
 70
1
 10
100.5
 20
0.0
 10
100.26005688930313
 20
6.940532584297783
 10
88.78751306614905
 20
6.146342288582116
 10
89.0
 20
0.0
  0
LWPOLYLINE
  5
65
330
17
100
AcDbEntity
  8
0
100
AcDbPolyline
 90
4
 70
1
 10
98.30383387374746
 20
20.895124927184813
 10
96.62611623092961
 20
27.63410324448543
 10
85.5693964632113
 20
24.47199192795227
 10
87.0551364653087
 20
18.50414048278058
  0
LWPOLYLINE
  5
66
330
17
100
AcDbEntity
  8
0
100
AcDbPolyline
 90
4
 70
1
 10
91.81131849308139
 20
40.87703262911792
 10
88.76915062971614
 20
47.11993098974961
 10
78.61148662731081
 20
41.72809809042503
 10
81.30554573019148
 20
36.199561233746216
  0
LWPOLYLINE
  5
67
330
17
100
AcDbEntity
  8
0
100
AcDbPolyline
 90
4
 70
1
 10
81.30620793468222
 20
59.07241785539355
 10
77.03254718433966
 20
64.54639164424674
 10
68.21787760603213
 20
57.16048613271602
 10
72.00251249937033
 20
52.31288745403011
  0
LWPOLYLINE
  5
68
330
17
100
AcDbEntity
  8
0
100
AcDbPolyline
 90
4
 70
1
 10
67.24762593906526
 20
74.68605496047812
 10
61.92925178383489
 20
79.15186525593938
 10
54.84281998767468
 20
70.09468664456324
 10
59.55262396593838
 20
66.13988946748809
  0
LWPOLYLINE
  5
69
330
17
100
AcDbEntity
  8
0
100
AcDbPolyline
 90
4
 70
1
 10
50.250000000000014
 20
87.03555308033607
 10
44.11935091085602
 20
90.29802254315844
 10
39.070867970807825
 20
79.96541299841891
 10
44.50000000000001
 20
77.07626093681503
  0
LWPOLYLINE
  5
6A
330
17
100
AcDbEntity
  8
0
100
AcDbPolyline
 90
4
 70
1
 10
31.05620793468222
 20
95.58117988766293
 10
24.381222694938458
 20
97.49772294725564
 10
21.59133154079127
 20
86.34126708761941
 10
27.502512499370322
 20
84.64402995026866
  0
LWPOLYLINE
  5
6B
330
17
100
AcDbEntity
  8
0
100
AcDbPolyline
 90
4
 70
1
 10
10.505110558399172
 20
99.94945048451146
 10
3.5775180531652855
 20
100.43630501257638
 10
3.168150315738412
 20
88.94359349372436
 10
9.303033230821157
 20
88.51244868777633
  0
LWPOLYLINE
  5
6C
330
17
100
AcDbEntity
  8
0
100
AcDbPolyline
 90
4
 70
1
 10
-10.505110558399183
 20
99.94945048451146
 10
-17.38254129436744
 20
98.98533860198495
 10
-15.3934942805841
 20
87.65865806543941
 10
-9.303033230821166
 20
88.51244868777633
  0
LWPOLYLINE
  5
6D
330
17
100
AcDbEntity
  8
0
100
AcDbPolyline
 90
4
 70
1
 10
-31.056207934682206
 20
95.58117988766294
 10
-37.58290017664893
 20
93.20823791013346
 10
-33.28236931066422
 20
82.54261864678486
 10
-27.50251249937031
 20
84.64402995026867
  0
LWPOLYLINE
  5
6E
330
17
100
AcDbEntity
  8
0
100
AcDbPolyline
 90
4
 70
1
 10
-50.24999999999998
 20
87.03555308033609
 10
-56.1407059784471
 20
83.35748995886064
 10
-49.716645095341214
 20
73.8190707098368
 10
-44.49999999999998
 20
77.07626093681505
  0
LWPOLYLINE
  5
6F
330
17
100
AcDbEntity
  8
0
100
AcDbPolyline
 90
4
 70
1
 10
-67.24762593906526
 20
74.68605496047812
 10
-72.24489353599118
 20
69.86361970277018
 10
-63.97806492242005
 20
61.869275159667126
 10
-59.55262396593838
 20
66.13988946748809
  0
LWPOLYLINE
  5
70
330
17
100
AcDbEntity
  8
0
100
AcDbPolyline
 90
4
 70
1
 10
-81.3062079346822
 20
59.07241785539356
 10
-85.19163257655086
 20
53.31637402282677
 10
-75.44333631157241
 20
47.21549540329933
 10
-72.00251249937031
 20
52.31288745403012
  0
LWPOLYLINE
  5
71
330
17
100
AcDbEntity
  8
0
100
AcDbPolyline
 90
4
 70
1
 10
-91.81131849308137
 20
40.87703262911794
 10
-94.41508847870712
 20
34.438946957738224
 10
-83.61137188661625
 20
30.498171932723398
 10
-81.30554573019147
 20
36.19956123374624
  0
LWPOLYLINE
  5
72
330
17
100
AcDbEntity
  8
0
100
AcDbPolyline
 90
4
 70
1
 10
-98.30383387374746
 20
20.89512492718481
 10
-99.51215196048383
 20
14.056372654194062
 10
-88.12518929833891
 20
12.447932002221608
 10
-87.0551364653087
 20
18.504140482780578
  0
LWPOLYLINE
  5
73
330
17
100
AcDbEntity
  8
0
100
AcDbPolyline
 90
4
 70
1
 10
-100.5
 20
1.23077003314309e-14
 10
-100.26005688930313
 20
-6.940532584297784
 10
-88.78751306614905
 20
-6.146342288582117
 10
-89.0
 20
1.0899356512411444e-14
  0
LWPOLYLINE
  5
74
330
17
100
AcDbEntity
  8
0
100
AcDbPolyline
 90
4
 70
1
 10
-98.30383387374746
 20
-20.89512492718483
 10
-96.62611623092963
 20
-27.63410324448542
 10
-85.5693964632113
 20
-24.471991927952264
 10
-87.05513646530869
 20
-18.504140482780596
  0
LWPOLYLINE
  5
75
330
17
100
AcDbEntity
  8
0
100
AcDbPolyline
 90
4
 70
1
 10
-91.81131849308139
 20
-40.87703262911792
 10
-88.76915062971614
 20
-47.119930989749626
 10
-78.61148662731081
 20
-41.72809809042504
 10
-81.30554573019148
 20
-36.199561233746216
  0
LWPOLYLINE
  5
76
330
17
100
AcDbEntity
  8
0
100
AcDbPolyline
 90
4
 70
1
 10
-81.30620793468222
 20
-59.07241785539354
 10
-77.03254718433966
 20
-64.54639164424674
 10
-68.21787760603213
 20
-57.16048613271602
 10
-72.00251249937033
 20
-52.3128874540301
  0
LWPOLYLINE
  5
77
330
17
100
AcDbEntity
  8
0
100
AcDbPolyline
 90
4
 70
1
 10
-67.24762593906524
 20
-74.68605496047813
 10
-61.92925178383486
 20
-79.15186525593941
 10
-54.84281998767465
 20
-70.09468664456325
 10
-59.55262396593837
 20
-66.1398894674881
  0
LWPOLYLINE
  5
78
330
17
100
AcDbEntity
  8
0
100
AcDbPolyline
 90
4
 70
1
 10
-50.25000000000004
 20
-87.03555308033607
 10
-44.119350910856056
 20
-90.29802254315841
 10
-39.07086797080785
 20
-79.9654129984189
 10
-44.50000000000004
 20
-77.07626093681503
  0
LWPOLYLINE
  5
79
330
17
100
AcDbEntity
  8
0
100
AcDbPolyline
 90
4
 70
1
 10
-31.05620793468223
 20
-95.58117988766293
 10
-24.38122269493845
 20
-97.49772294725564
 10
-21.591331540791263
 20
-86.34126708761941
 10
-27.502512499370333
 20
-84.64402995026866
  0
LWPOLYLINE
  5
7A
330
17
100
AcDbEntity
  8
0
100
AcDbPolyline
 90
4
 70
1
 10
-10.505110558399164
 20
-99.94945048451147
 10
-3.577518053165342
 20
-100.43630501257638
 10
-3.168150315738462
 20
-88.94359349372435
 10
-9.30303323082115
 20
-88.51244868777633
  0
LWPOLYLINE
  5
7B
330
17
100
AcDbEntity
  8
0
100
AcDbPolyline
 90
4
 70
1
 10
10.505110558399124
 20
-99.94945048451147
 10
17.382541294367428
 20
-98.98533860198495
 10
15.39349428058409
 20
-87.65865806543941
 10
9.303033230821116
 20
-88.51244868777633
  0
LWPOLYLINE
  5
7C
330
17
100
AcDbEntity
  8
0
100
AcDbPolyline
 90
4
 70
1
 10
31.056207934682195
 20
-95.58117988766294
 10
37.58290017664894
 20
-93.20823791013346
 10
33.28236931066424
 20
-82.54261864678486
 10
27.502512499370305
 20
-84.64402995026867
  0
LWPOLYLINE
  5
7D
330
17
100
AcDbEntity
  8
0
100
AcDbPolyline
 90
4
 70
1
 10
50.250000000000014
 20
-87.03555308033607
 10
56.14070597844706
 20
-83.35748995886068
 10
49.71664509534117
 20
-73.81907070983682
 10
44.50000000000001
 20
-77.07626093681503
  0
LWPOLYLINE
  5
7E
330
17
100
AcDbEntity
  8
0
100
AcDbPolyline
 90
4
 70
1
 10
67.2476259390652
 20
-74.68605496047816
 10
72.24489353599114
 20
-69.86361970277022
 10
63.97806492242002
 20
-61.86927515966717
 10
59.552623965938345
 20
-66.13988946748812
  0
LWPOLYLINE
  5
7F
330
17
100
AcDbEntity
  8
0
100
AcDbPolyline
 90
4
 70
1
 10
81.3062079346822
 20
-59.072417855393574
 10
85.19163257655086
 20
-53.316374022826786
 10
75.44333631157241
 20
-47.21549540329934
 10
72.00251249937031
 20
-52.31288745403013
  0
LWPOLYLINE
  5
80
330
17
100
AcDbEntity
  8
0
100
AcDbPolyline
 90
4
 70
1
 10
91.8113184930814
 20
-40.87703262911791
 10
94.41508847870709
 20
-34.438946957738274
 10
83.61137188661624
 20
-30.498171932723448
 10
81.30554573019148
 20
-36.199561233746216
  0
LWPOLYLINE
  5
81
330
17
100
AcDbEntity
  8
0
100
AcDbPolyline
 90
4
 70
1
 10
98.30383387374746
 20
-20.895124927184867
 10
99.51215196048382
 20
-14.056372654194117
 10
88.12518929833891
 20
-12.447932002221656
 10
87.05513646530869
 20
-18.504140482780628
  0
LWPOLYLINE
  5
82
330
17
100
AcDbEntity
  8
0
100
AcDbPolyline
 90
4
 70
1
 10
114.0
 20
0.0
 10
113.76077279641176
 20
7.381502066868438
 10
102.28490536519479
 20
6.636876858368552
 10
102.5
 20
0.0
  0
LWPOLYLINE
  5
83
330
17
100
AcDbEntity
  8
0
100
AcDbPolyline
 90
4
 70
1
 10
111.80952196596827
 20
22.24029670983862
 10
110.13483183082882
 20
29.43329437210616
 10
99.02473914613995
 20
26.464146255621767
 10
100.53049124133112
 20
19.996758006653145
  0
LWPOLYLINE
  5
84
330
17
100
AcDbEntity
  8
0
100
AcDbPolyline
 90
4
 70
1
 10
105.32226670628668
 20
43.625911289620234
 10
102.2764710423124
 20
50.353981681005486
 10
91.95910773541246
 20
45.274413353535635
 10
94.69765208240689
 20
39.2250518174217
  0
LWPOLYLINE
  5
85
330
17
100
AcDbEntity
  8
0
100
AcDbPolyline
 90
4
 70
1
 10
94.78753580249015
 20
63.33500656423465
 10
90.48768282894565
 20
69.33959371274203
 10
81.35953938567482
 20
62.34481013645665
 10
85.2256352610109
 20
56.94594888450922
  0
LWPOLYLINE
  5
86
330
17
100
AcDbEntity
  8
0
100
AcDbPolyline
 90
4
 70
1
 10
80.61017305526643
 20
80.61017305526643
 10
75.2215037105397
 20
85.66052404419005
 10
67.63336956430105
 20
77.01933082920597
 10
72.47844507162112
 20
72.47844507162112
  0
LWPOLYLINE
  5
87
330
17
100
AcDbEntity
  8
0
100
AcDbPolyline
 90
4
 70
1
 10
63.33500656423466
 20
94.78753580249015
 10
57.06460438924298
 20
98.68956847559518
 10
51.3080872798018
 20
88.73404183112726
 10
56.945948884509235
 20
85.2256352610109
  0
LWPOLYLINE
  5
88
330
17
100
AcDbEntity
  8
0
100
AcDbPolyline
 90
4
 70
1
 10
43.62591128962024
 20
105.32226670628668
 10
36.714744323466455
 20
107.92602813623083
 10
33.011063975046596
 20
97.03875336810228
 10
39.22505181742171
 20
94.69765208240689
  0
LWPOLYLINE
  5
89
330
17
100
AcDbEntity
  8
0
100
AcDbPolyline
 90
4
 70
1
 10
22.24029670983863
 20
111.80952196596827
 10
14.953957223204974
 20
113.01495106120498
 10
13.44544399454833
 20
101.61432003310097
 10
19.996758006653153
 20
100.53049124133112
  0
LWPOLYLINE
  5
8A
330
17
100
AcDbEntity
  8
0
100
AcDbPolyline
 90
4
 70
1
 10
6.980486755139913e-15
 20
114.0
 10
-7.3815020668684515
 20
113.76077279641176
 10
-6.636876858368564
 20
102.28490536519479
 10
6.276314845630185e-15
 20
102.5
  0
LWPOLYLINE
  5
8B
330
17
100
AcDbEntity
  8
0
100
AcDbPolyline
 90
4
 70
1
 10
-22.240296709838614
 20
111.80952196596827
 10
-29.433294372106175
 20
110.13483183082882
 10
-26.464146255621777
 20
99.02473914613995
 10
-19.99675800665314
 20
100.53049124133112
  0
LWPOLYLINE
  5
8C
330
17
100
AcDbEntity
  8
0
100
AcDbPolyline
 90
4
 70
1
 10
-43.62591128962023
 20
105.32226670628668
 10
-50.35398168100551
 20
102.27647104231238
 10
-45.27441335353565
 20
91.95910773541245
 10
-39.225051817421694
 20
94.69765208240689
  0
LWPOLYLINE
  5
8D
330
17
100
AcDbEntity
  8
0
100
AcDbPolyline
 90
4
 70
1
 10
-63.33500656423466
 20
94.78753580249014
 10
-69.33959371274203
 20
90.48768282894565
 10
-62.34481013645665
 20
81.35953938567482
 10
-56.945948884509235
 20
85.22563526101088
  0
LWPOLYLINE
  5
8E
330
17
100
AcDbEntity
  8
0
100
AcDbPolyline
 90
4
 70
1
 10
-80.61017305526642
 20
80.61017305526643
 10
-85.66052404419007
 20
75.22150371053968
 10
-77.01933082920598
 20
67.63336956430102
 10
-72.47844507162111
 20
72.47844507162112
  0
LWPOLYLINE
  5
8F
330
17
100
AcDbEntity
  8
0
100
AcDbPolyline
 90
4
 70
1
 10
-94.78753580249017
 20
63.33500656423465
 10
-98.68956847559518
 20
57.06460438924298
 10
-88.73404183112726
 20
51.3080872798018
 10
-85.2256352610109
 20
56.94594888450922
  0
LWPOLYLINE
  5
90
330
17
100
AcDbEntity
  8
0
100
AcDbPolyline
 90
4
 70
1
 10
-105.32226670628668
 20
43.62591128962025
 10
-107.92602813623083
 20
36.71474432346646
 10
-97.03875336810228
 20
33.0110639750466
 10
-94.69765208240689
 20
39.225051817421715
  0
LWPOLYLINE
  5
91
330
17
100
AcDbEntity
  8
0
100
AcDbPolyline
 90
4
 70
1
 10
-111.80952196596827
 20
22.24029670983861
 10
-113.01495106120497
 20
14.953957223205004
 10
-101.61432003310095
 20
13.44544399454836
 10
-100.53049124133112
 20
19.99675800665314
  0
LWPOLYLINE
  5
92
330
17
100
AcDbEntity
  8
0
100
AcDbPolyline
 90
4
 70
1
 10
-114.0
 20
1.3960973510279826e-14
 10
-113.76077279641176
 20
-7.381502066868445
 10
-102.28490536519479
 20
-6.636876858368558
 10
-102.5
 20
1.255262969126037e-14
  0
LWPOLYLINE
  5
93
330
17
100
AcDbEntity
  8
0
100
AcDbPolyline
 90
4
 70
1
 10
-111.80952196596827
 20
-22.24029670983863
 10
-110.13483183082882
 20
-29.433294372106143
 10
-99.02473914613995
 20
-26.46414625562175
 10
-100.53049124133112
 20
-19.996758006653156
  0
LWPOLYLINE
  5
94
330
17
100
AcDbEntity
  8
0
100
AcDbPolyline
 90
4
 70
1
 10
-105.3222667062867
 20
-43.62591128962022
 10
-102.27647104231238
 20
-50.3539816810055
 10
-91.95910773541245
 20
-45.27441335353564
 10
-94.6976520824069
 20
-39.225051817421694
  0
LWPOLYLINE
  5
95
330
17
100
AcDbEntity
  8
0
100
AcDbPolyline
 90
4
 70
1
 10
-94.78753580249015
 20
-63.33500656423466
 10
-90.48768282894565
 20
-69.33959371274202
 10
-81.35953938567482
 20
-62.344810136456644
 10
-85.2256352610109
 20
-56.945948884509235
  0
LWPOLYLINE
  5
96
330
17
100
AcDbEntity
  8
0
100
AcDbPolyline
 90
4
 70
1
 10
-80.61017305526643
 20
-80.61017305526642
 10
-75.22150371053968
 20
-85.66052404419007
 10
-67.63336956430103
 20
-77.01933082920598
 10
-72.47844507162114
 20
-72.47844507162111
  0
LWPOLYLINE
  5
97
330
17
100
AcDbEntity
  8
0
100
AcDbPolyline
 90
4
 70
1
 10
-63.33500656423465
 20
-94.78753580249015
 10
-57.06460438924298
 20
-98.68956847559518
 10
-51.3080872798018
 20
-88.73404183112726
 10
-56.94594888450922
 20
-85.2256352610109
  0
LWPOLYLINE
  5
98
330
17
100
AcDbEntity
  8
0
100
AcDbPolyline
 90
4
 70
1
 10
-43.625911289620205
 20
-105.3222667062867
 10
-36.71474432346647
 20
-107.92602813623081
 10
-33.0110639750466
 20
-97.03875336810226
 10
-39.22505181742167
 20
-94.6976520824069
  0
LWPOLYLINE
  5
99
330
17
100
AcDbEntity
  8
0
100
AcDbPolyline
 90
4
 70
1
 10
-22.240296709838667
 20
-111.80952196596826
 10
-14.953957223205062
 20
-113.01495106120497
 10
-13.44544399454841
 20
-101.61432003310095
 10
-19.996758006653188
 20
-100.5304912413311
  0
LWPOLYLINE
  5
9A
330
17
100
AcDbEntity
  8
0
100
AcDbPolyline
 90
4
 70
1
 10
-2.094146026541974e-14
 20
-114.0
 10
7.381502066868387
 20
-113.76077279641176
 10
6.636876858368505
 20
-102.28490536519479
 10
-1.8828944536890554e-14
 20
-102.5
  0
LWPOLYLINE
  5
9B
330
17
100
AcDbEntity
  8
0
100
AcDbPolyline
 90
4
 70
1
 10
22.240296709838628
 20
-111.80952196596827
 10
29.433294372106136
 20
-110.13483183082882
 10
26.464146255621745
 20
-99.02473914613995
 10
19.996758006653153
 20
-100.53049124133112
  0
LWPOLYLINE
  5
9C
330
17
100
AcDbEntity
  8
0
100
AcDbPolyline
 90
4
 70
1
 10
43.62591128962026
 20
-105.32226670628667
 10
50.3539816810054
 20
-102.27647104231242
 10
45.27441335353556
 20
-91.95910773541249
 10
39.22505181742172
 20
-94.69765208240688
  0
LWPOLYLINE
  5
9D
330
17
100
AcDbEntity
  8
0
100
AcDbPolyline
 90
4
 70
1
 10
63.33500656423461
 20
-94.78753580249018
 10
69.33959371274199
 20
-90.4876828289457
 10
62.34481013645661
 20
-81.35953938567485
 10
56.94594888450919
 20
-85.22563526101091
  0
LWPOLYLINE
  5
9E
330
17
100
AcDbEntity
  8
0
100
AcDbPolyline
 90
4
 70
1
 10
80.6101730552664
 20
-80.61017305526643
 10
85.66052404419003
 20
-75.22150371053972
 10
77.01933082920596
 20
-67.63336956430106
 10
72.47844507162111
 20
-72.47844507162114
  0
LWPOLYLINE
  5
9F
330
17
100
AcDbEntity
  8
0
100
AcDbPolyline
 90
4
 70
1
 10
94.78753580249015
 20
-63.33500656423465
 10
98.68956847559517
 20
-57.064604389242994
 10
88.73404183112724
 20
-51.30808727980182
 10
85.2256352610109
 20
-56.94594888450922
  0
LWPOLYLINE
  5
A0
330
17
100
AcDbEntity
  8
0
100
AcDbPolyline
 90
4
 70
1
 10
105.3222667062867
 20
-43.62591128962021
 10
107.92602813623078
 20
-36.714744323466576
 10
97.03875336810225
 20
-33.0110639750467
 10
94.6976520824069
 20
-39.22505181742168
  0
LWPOLYLINE
  5
A1
330
17
100
AcDbEntity
  8
0
100
AcDbPolyline
 90
4
 70
1
 10
111.80952196596826
 20
-22.240296709838674
 10
113.01495106120497
 20
-14.953957223205071
 10
101.61432003310095
 20
-13.44544399454842
 10
100.5304912413311
 20
-19.996758006653195
  0
LWPOLYLINE
  5
A2
330
17
100
AcDbEntity
  8
0
100
AcDbPolyline
 90
4
 70
1
 10
127.5
 20
0.0
 10
127.28858161828862
 20
7.339413437344828
 10
115.80765072722728
 20
6.677427127309805
 10
116.0
 20
0.0
  0
LWPOLYLINE
  5
A3
330
17
100
AcDbEntity
  8
0
100
AcDbPolyline
 90
4
 70
1
 10
125.56298850905652
 20
22.140142652533616
 10
124.08030627907875
 20
29.331341491483315
 10
112.88874924214224
 20
26.685769513820112
 10
114.23769934941613
 20
20.143188609363918
  0
LWPOLYLINE
  5
A4
330
17
100
AcDbEntity
  8
0
100
AcDbPolyline
 90
4
 70
1
 10
119.81080915020333
 20
43.60756827402276
 10
117.10191362124363
 20
50.43205157677803
 10
106.53978023579812
 20
45.88327829730393
 10
109.00434401116537
 20
39.67433662577757
  0
LWPOLYLINE
  5
A5
330
17
100
AcDbEntity
  8
0
100
AcDbPolyline
 90
4
 70
1
 10
110.41823898251593
 20
63.74999999999999
 10
106.56543857445446
 20
70.0004092947618
 10
96.95365391871935
 20
63.686646887783276
 10
100.45894683899489
 20
57.99999999999999
  0
LWPOLYLINE
  5
A6
330
17
100
AcDbEntity
  8
0
100
AcDbPolyline
 90
4
 70
1
 10
97.6706664976697
 20
81.95542023503376
 10
92.79102660129433
 20
87.44183999824045
 10
84.42163988823641
 20
79.55492893957563
 10
88.86115540180145
 20
74.56336272363855
  0
LWPOLYLINE
  5
A7
330
17
100
AcDbEntity
  8
0
100
AcDbPolyline
 90
4
 70
1
 10
81.95542023503377
 20
97.6706664976697
 10
76.19720623937894
 20
102.22639464107864
 10
69.32451704916045
 20
93.00597473227546
 10
74.56336272363856
 20
88.86115540180145
  0
LWPOLYLINE
  5
A8
330
17
100
AcDbEntity
  8
0
100
AcDbPolyline
 90
4
 70
1
 10
63.750000000000014
 20
110.41823898251592
 10
57.28817232352684
 20
113.90485201179928
 10
52.12100383944402
 20
103.63108104602915
 10
58.000000000000014
 20
100.45894683899488
  0
LWPOLYLINE
  5
A9
330
17
100
AcDbEntity
  8
0
100
AcDbPolyline
 90
4
 70
1
 10
43.607568274022775
 20
119.81080915020331
 10
36.638466280838294
 20
122.12236809277765
 10
33.33382030256661
 20
111.10740940205653
 10
39.674336625777585
 20
109.00434401116536
  0
LWPOLYLINE
  5
AA
330
17
100
AcDbEntity
  8
0
100
AcDbPolyline
 90
4
 70
1
 10
22.140142652533626
 20
125.56298850905652
 10
14.875518980164992
 20
126.62925781615697
 10
13.53380550352266
 20
115.20779534646438
 10
20.14318860936393
 20
114.23769934941613
  0
LWPOLYLINE
  5
AB
330
17
100
AcDbEntity
  8
0
100
AcDbPolyline
 90
4
 70
1
 10
7.807123344564377e-15
 20
127.5
 10
-7.339413437344817
 20
127.28858161828862
 10
-6.6774271273097945
 20
115.80765072722728
 10
7.102951435054649e-15
 20
116.0
  0
LWPOLYLINE
  5
AC
330
17
100
AcDbEntity
  8
0
100
AcDbPolyline
 90
4
 70
1
 10
-22.140142652533612
 20
125.56298850905652
 10
-29.331341491483304
 20
124.08030627907875
 10
-26.685769513820105
 20
112.88874924214224
 10
-20.143188609363914
 20
114.23769934941613
  0
LWPOLYLINE
  5
AD
330
17
100
AcDbEntity
  8
0
100
AcDbPolyline
 90
4
 70
1
 10
-43.60756827402276
 20
119.81080915020333
 10
-50.43205157677802
 20
117.10191362124363
 10
-45.883278297303924
 20
106.53978023579812
 10
-39.67433662577757
 20
109.00434401116537
  0
LWPOLYLINE
  5
AE
330
17
100
AcDbEntity
  8
0
100
AcDbPolyline
 90
4
 70
1
 10
-63.74999999999997
 20
110.41823898251593
 10
-70.00040929476178
 20
106.56543857445448
 10
-63.68664688778326
 20
96.95365391871937
 10
-57.99999999999997
 20
100.45894683899489
  0
LWPOLYLINE
  5
AF
330
17
100
AcDbEntity
  8
0
100
AcDbPolyline
 90
4
 70
1
 10
-81.95542023503377
 20
97.6706664976697
 10
-87.44183999824047
 20
92.79102660129433
 10
-79.55492893957565
 20
84.42163988823641
 10
-74.56336272363856
 20
88.86115540180145
  0
LWPOLYLINE
  5
B0
330
17
100
AcDbEntity
  8
0
100
AcDbPolyline
 90
4
 70
1
 10
-97.67066649766969
 20
81.95542023503378
 10
-102.22639464107866
 20
76.19720623937891
 10
-93.00597473227548
 20
69.32451704916043
 10
-88.86115540180144
 20
74.56336272363858
  0
LWPOLYLINE
  5
B1
330
17
100
AcDbEntity
  8
0
100
AcDbPolyline
 90
4
 70
1
 10
-110.41823898251593
 20
63.74999999999999
 10
-113.90485201179929
 20
57.288172323526815
 10
-103.63108104602915
 20
52.121003839444
 10
-100.45894683899489
 20
57.99999999999999
  0
LWPOLYLINE
  5
B2
330
17
100
AcDbEntity
  8
0
100
AcDbPolyline
 90
4
 70
1
 10
-119.81080915020331
 20
43.60756827402278
 10
-122.12236809277766
 20
36.63846628083825
 10
-111.10740940205655
 20
33.333820302566565
 10
-109.00434401116536
 20
39.67433662577759
  0
LWPOLYLINE
  5
B3
330
17
100
AcDbEntity
  8
0
100
AcDbPolyline
 90
4
 70
1
 10
-125.56298850905652
 20
22.14014265253361
 10
-126.62925781615698
 20
14.875518980164973
 10
-115.2077953464644
 20
13.533805503522641
 10
-114.23769934941613
 20
20.14318860936391
  0
LWPOLYLINE
  5
B4
330
17
100
AcDbEntity
  8
0
100
AcDbPolyline
 90
4
 70
1
 10
-127.5
 20
1.5614246689128753e-14
 10
-127.28858161828862
 20
-7.339413437344866
 10
-115.80765072722728
 20
-6.677427127309839
 10
-116.0
 20
1.4205902870109298e-14
  0
LWPOLYLINE
  5
B5
330
17
100
AcDbEntity
  8
0
100
AcDbPolyline
 90
4
 70
1
 10
-125.56298850905652
 20
-22.140142652533633
 10
-124.08030627907875
 20
-29.331341491483325
 10
-112.88874924214224
 20
-26.685769513820123
 10
-114.23769934941613
 20
-20.143188609363936
  0
LWPOLYLINE
  5
B6
330
17
100
AcDbEntity
  8
0
100
AcDbPolyline
 90
4
 70
1
 10
-119.81080915020333
 20
-43.60756827402275
 10
-117.10191362124361
 20
-50.432051576778065
 10
-106.5397802357981
 20
-45.88327829730397
 10
-109.00434401116537
 20
-39.67433662577756
  0
LWPOLYLINE
  5
B7
330
17
100
AcDbEntity
  8
0
100
AcDbPolyline
 90
4
 70
1
 10
-110.41823898251592
 20
-63.750000000000014
 10
-106.56543857445445
 20
-70.00040929476181
 10
-96.95365391871934
 20
-63.68664688778329
 10
-100.45894683899488
 20
-58.000000000000014
  0
LWPOLYLINE
  5
B8
330
17
100
AcDbEntity
  8
0
100
AcDbPolyline
 90
4
 70
1
 10
-97.6706664976697
 20
-81.95542023503376
 10
-92.79102660129433
 20
-87.44183999824045
 10
-84.42163988823641
 20
-79.55492893957563
 10
-88.86115540180145
 20
-74.56336272363855
  0
LWPOLYLINE
  5
B9
330
17
100
AcDbEntity
  8
0
100
AcDbPolyline
 90
4
 70
1
 10
-81.95542023503378
 20
-97.67066649766969
 10
-76.19720623937897
 20
-102.22639464107861
 10
-69.32451704916048
 20
-93.00597473227545
 10
-74.56336272363858
 20
-88.86115540180144
  0
LWPOLYLINE
  5
BA
330
17
100
AcDbEntity
  8
0
100
AcDbPolyline
 90
4
 70
1
 10
-63.75000000000006
 20
-110.4182389825159
 10
-57.28817232352677
 20
-113.9048520117993
 10
-52.121003839443965
 20
-103.63108104602917
 10
-58.00000000000005
 20
-100.45894683899486
  0
LWPOLYLINE
  5
BB
330
17
100
AcDbEntity
  8
0
100
AcDbPolyline
 90
4
 70
1
 10
-43.60756827402274
 20
-119.81080915020333
 10
-36.63846628083826
 20
-122.12236809277765
 10
-33.33382030256657
 20
-111.10740940205653
 10
-39.67433662577755
 20
-109.00434401116537
  0
LWPOLYLINE
  5
BC
330
17
100
AcDbEntity
  8
0
100
AcDbPolyline
 90
4
 70
1
 10
-22.140142652533616
 20
-125.56298850905652
 10
-14.87551898016498
 20
-126.62925781615697
 10
-13.533805503522649
 20
-115.20779534646438
 10
-20.143188609363918
 20
-114.23769934941613
  0
LWPOLYLINE
  5
BD
330
17
100
AcDbEntity
  8
0
100
AcDbPolyline
 90
4
 70
1
 10
-2.342137003369313e-14
 20
-127.5
 10
7.339413437344802
 20
-127.28858161828862
 10
6.67742712730978
 20
-115.80765072722728
 10
-2.1308854305163944e-14
 20
-116.0
  0
LWPOLYLINE
  5
BE
330
17
100
AcDbEntity
  8
0
100
AcDbPolyline
 90
4
 70
1
 10
22.140142652533573
 20
-125.56298850905654
 10
29.33134149148337
 20
-124.08030627907874
 10
26.685769513820166
 20
-112.88874924214223
 10
20.143188609363875
 20
-114.23769934941615
  0
LWPOLYLINE
  5
BF
330
17
100
AcDbEntity
  8
0
100
AcDbPolyline
 90
4
 70
1
 10
43.607568274022796
 20
-119.81080915020331
 10
50.43205157677806
 20
-117.10191362124361
 10
45.88327829730396
 20
-106.5397802357981
 10
39.674336625777606
 20
-109.00434401116536
  0
LWPOLYLINE
  5
C0
330
17
100
AcDbEntity
  8
0
100
AcDbPolyline
 90
4
 70
1
 10
63.750000000000014
 20
-110.41823898251592
 10
70.00040929476181
 20
-106.56543857445445
 10
63.68664688778329
 20
-96.95365391871934
 10
58.000000000000014
 20
-100.45894683899488
  0
LWPOLYLINE
  5
C1
330
17
100
AcDbEntity
  8
0
100
AcDbPolyline
 90
4
 70
1
 10
81.95542023503376
 20
-97.67066649766971
 10
87.44183999824045
 20
-92.79102660129435
 10
79.55492893957563
 20
-84.42163988823643
 10
74.56336272363855
 20
-88.86115540180147
  0
LWPOLYLINE
  5
C2
330
17
100
AcDbEntity
  8
0
100
AcDbPolyline
 90
4
 70
1
 10
97.67066649766967
 20
-81.9554202350338
 10
102.22639464107868
 20
-76.19720623937889
 10
93.0059747322755
 20
-69.3245170491604
 10
88.86115540180143
 20
-74.56336272363859
  0
LWPOLYLINE
  5
C3
330
17
100
AcDbEntity
  8
0
100
AcDbPolyline
 90
4
 70
1
 10
110.41823898251589
 20
-63.75000000000006
 10
113.9048520117993
 20
-57.28817232352678
 10
103.63108104602917
 20
-52.12100383944397
 10
100.45894683899485
 20
-58.00000000000005
  0
LWPOLYLINE
  5
C4
330
17
100
AcDbEntity
  8
0
100
AcDbPolyline
 90
4
 70
1
 10
119.81080915020333
 20
-43.607568274022746
 10
122.12236809277765
 20
-36.638466280838266
 10
111.10740940205653
 20
-33.33382030256658
 10
109.00434401116537
 20
-39.674336625777556
  0
LWPOLYLINE
  5
C5
330
17
100
AcDbEntity
  8
0
100
AcDbPolyline
 90
4
 70
1
 10
125.56298850905652
 20
-22.140142652533623
 10
126.62925781615697
 20
-14.875518980164989
 10
115.20779534646438
 20
-13.533805503522657
 10
114.23769934941613
 20
-20.143188609363925
  0
LWPOLYLINE
  5
C6
330
17
100
AcDbEntity
  8
0
100
AcDbPolyline
 90
4
 70
1
 10
141.0
 20
0.0
 10
140.81060892773965
 20
7.305642572639775
 10
129.32605571732117
 20
6.709792291892559
 10
129.5
 20
0.0
  0
LWPOLYLINE
  5
C7
330
17
100
AcDbEntity
  8
0
100
AcDbPolyline
 90
4
 70
1
 10
139.26405602391443
 20
22.057259570672553
 10
137.93414238240402
 20
29.243330269151883
 10
126.684194599442
 20
26.858235956419637
 10
127.90564010707034
 20
20.258263222709896
  0
LWPOLYLINE
  5
C8
330
17
100
AcDbEntity
  8
0
100
AcDbPolyline
 90
4
 70
1
 10
134.09896879761664
 20
43.57139620686758
 10
131.6612794744405
 20
50.46095012138859
 10
120.92294816978756
 20
46.34534071432498
 10
123.16181886022238
 20
40.01770077155569
  0
LWPOLYLINE
  5
C9
330
17
100
AcDbEntity
  8
0
100
AcDbPolyline
 90
4
 70
1
 10
125.63191991055987
 20
64.01266046327609
 10
122.14647890708163
 20
70.43605391134474
 10
112.18417743593668
 20
64.6912693724762
 10
115.38534488239364
 20
58.791769716271304
  0
LWPOLYLINE
  5
CA
330
17
100
AcDbEntity
  8
0
100
AcDbPolyline
 90
4
 70
1
 10
114.07139620686759
 20
82.87772057323872
 10
109.62402664810837
 20
88.67678829014291
 10
100.683059935674
 20
81.44428428066317
 10
104.7677007715557
 20
76.11819017187527
  0
LWPOLYLINE
  5
CB
330
17
100
AcDbEntity
  8
0
100
AcDbPolyline
 90
4
 70
1
 10
99.70205614730321
 20
99.70205614730321
 10
94.40226703177301
 20
104.73400583985043
 10
86.70279135187663
 20
96.19187061177752
 10
91.5703281636579
 20
91.5703281636579
  0
LWPOLYLINE
  5
CC
330
17
100
AcDbEntity
  8
0
100
AcDbPolyline
 90
4
 70
1
 10
82.87772057323872
 20
114.07139620686759
 10
76.85601029795355
 20
118.21232457354377
 10
70.58761229492896
 20
108.57089384591431
 10
76.11819017187527
 20
104.7677007715557
  0
LWPOLYLINE
  5
CD
330
17
100
AcDbEntity
  8
0
100
AcDbPolyline
 90
4
 70
1
 10
64.0126604632761
 20
125.63191991055986
 10
57.41730352012407
 20
128.7798635520241
 10
52.73433195642601
 20
118.27654134742639
 10
58.79176971627131
 20
115.38534488239362
  0
LWPOLYLINE
  5
CE
330
17
100
AcDbEntity
  8
0
100
AcDbPolyline
 90
4
 70
1
 10
43.57139620686759
 20
134.09896879761664
 10
36.56479217252389
 20
136.17641489399014
 10
33.58255734994216
 20
125.06982786362923
 10
40.017700771555695
 20
123.16181886022238
  0
LWPOLYLINE
  5
CF
330
17
100
AcDbEntity
  8
0
100
AcDbPolyline
 90
4
 70
1
 10
22.05725957067256
 20
139.26405602391443
 10
14.811934290048331
 20
140.2198509576561
 10
13.603868727384814
 20
128.78348013486854
 10
20.258263222709903
 20
127.90564010707034
  0
LWPOLYLINE
  5
D0
330
17
100
AcDbEntity
  8
0
100
AcDbPolyline
 90
4
 70
1
 10
8.63375993398884e-15
 20
141.0
 10
-7.305642572639781
 20
140.81060892773965
 10
-6.7097922918925645
 20
129.32605571732117
 10
7.929588024479112e-15
 20
129.5
  0
LWPOLYLINE
  5
D1
330
17
100
AcDbEntity
  8
0
100
AcDbPolyline
 90
4
 70
1
 10
-22.057259570672546
 20
139.26405602391443
 10
-29.243330269151887
 20
137.93414238240402
 10
-26.85823595641964
 20
126.684194599442
 10
-20.25826322270989
 20
127.90564010707034
  0
LWPOLYLINE
  5
D2
330
17
100
AcDbEntity
  8
0
100
AcDbPolyline
 90
4
 70
1
 10
-43.571396206867576
 20
134.09896879761666
 10
-50.4609501213886
 20
131.6612794744405
 10
-46.34534071432499
 20
120.92294816978756
 10
-40.01770077155568
 20
123.1618188602224
  0
LWPOLYLINE
  5
D3
330
17
100
AcDbEntity
  8
0
100
AcDbPolyline
 90
4
 70
1
 10
-64.01266046327609
 20
125.63191991055987
 10
-70.43605391134471
 20
122.14647890708164
 10
-64.69126937247617
 20
112.18417743593669
 10
-58.791769716271304
 20
115.38534488239364
  0
LWPOLYLINE
  5
D4
330
17
100
AcDbEntity
  8
0
100
AcDbPolyline
 90
4
 70
1
 10
-82.87772057323869
 20
114.07139620686759
 10
-88.67678829014288
 20
109.62402664810838
 10
-81.44428428066314
 20
100.68305993567401
 10
-76.11819017187526
 20
104.7677007715557
  0
LWPOLYLINE
  5
D5
330
17
100
AcDbEntity
  8
0
100
AcDbPolyline
 90
4
 70
1
 10
-99.7020561473032
 20
99.70205614730321
 10
-104.73400583985041
 20
94.40226703177302
 10
-96.1918706117775
 20
86.70279135187664
 10
-91.57032816365789
 20
91.5703281636579
  0
LWPOLYLINE
  5
D6
330
17
100
AcDbEntity
  8
0
100
AcDbPolyline
 90
4
 70
1
 10
-114.07139620686758
 20
82.87772057323873
 10
-118.21232457354375
 20
76.85601029795356
 10
-108.5708938459143
 20
70.58761229492897
 10
-104.76770077155568
 20
76.11819017187528
  0
LWPOLYLINE
  5
D7
330
17
100
AcDbEntity
  8
0
100
AcDbPolyline
 90
4
 70
1
 10
-125.63191991055986
 20
64.0126604632761
 10
-128.7798635520241
 20
57.417303520124115
 10
-118.27654134742637
 20
52.73433195642605
 10
-115.38534488239362
 20
58.79176971627132
  0
LWPOLYLINE
  5
D8
330
17
100
AcDbEntity
  8
0
100
AcDbPolyline
 90
4
 70
1
 10
-134.09896879761664
 20
43.5713962068676
 10
-136.1764148939901
 20
36.56479217252393
 10
-125.06982786362921
 20
33.58255734994219
 10
-123.16181886022238
 20
40.0177007715557
  0
LWPOLYLINE
  5
D9
330
17
100
AcDbEntity
  8
0
100
AcDbPolyline
 90
4
 70
1
 10
-139.2640560239144
 20
22.057259570672567
 10
-140.2198509576561
 20
14.81193429004837
 10
-128.78348013486854
 20
13.603868727384851
 10
-127.90564010707033
 20
20.25826322270991
  0
LWPOLYLINE
  5
DA
330
17
100
AcDbEntity
  8
0
100
AcDbPolyline
 90
4
 70
1
 10
-141.0
 20
1.726751986797768e-14
 10
-140.81060892773965
 20
-7.305642572639741
 10
-129.32605571732117
 20
-6.709792291892528
 10
-129.5
 20
1.5859176048958224e-14
  0
LWPOLYLINE
  5
DB
330
17
100
AcDbEntity
  8
0
100
AcDbPolyline
 90
4
 70
1
 10
-139.26405602391443
 20
-22.05725957067253
 10
-137.93414238240402
 20
-29.243330269151848
 10
-126.684194599442
 20
-26.858235956419605
 10
-127.90564010707034
 20
-20.25826322270988
  0
LWPOLYLINE
  5
DC
330
17
100
AcDbEntity
  8
0
100
AcDbPolyline
 90
4
 70
1
 10
-134.09896879761666
 20
-43.57139620686757
 10
-131.66127947444053
 20
-50.460950121388564
 10
-120.92294816978757
 20
-46.345340714324955
 10
-123.1618188602224
 20
-40.017700771555674
  0
LWPOLYLINE
  5
DD
330
17
100
AcDbEntity
  8
0
100
AcDbPolyline
 90
4
 70
1
 10
-125.63191991055987
 20
-64.01266046327608
 10
-122.14647890708164
 20
-70.43605391134471
 10
-112.18417743593669
 20
-64.69126937247617
 10
-115.38534488239364
 20
-58.79176971627129
  0
LWPOLYLINE
  5
DE
330
17
100
AcDbEntity
  8
0
100
AcDbPolyline
 90
4
 70
1
 10
-114.07139620686759
 20
-82.87772057323869
 10
-109.6240266481084
 20
-88.67678829014288
 10
-100.68305993567402
 20
-81.44428428066314
 10
-104.7677007715557
 20
-76.11819017187526
  0
LWPOLYLINE
  5
DF
330
17
100
AcDbEntity
  8
0
100
AcDbPolyline
 90
4
 70
1
 10
-99.70205614730322
 20
-99.7020561473032
 10
-94.40226703177302
 20
-104.73400583985041
 10
-86.70279135187664
 20
-96.1918706117775
 10
-91.57032816365792
 20
-91.57032816365789
  0
LWPOLYLINE
  5
E0
330
17
100
AcDbEntity
  8
0
100
AcDbPolyline
 90
4
 70
1
 10
-82.87772057323873
 20
-114.07139620686758
 10
-76.8560102979535
 20
-118.21232457354378
 10
-70.58761229492893
 20
-108.57089384591433
 10
-76.11819017187528
 20
-104.76770077155568
  0
LWPOLYLINE
  5
E1
330
17
100
AcDbEntity
  8
0
100
AcDbPolyline
 90
4
 70
1
 10
-64.01266046327612
 20
-125.63191991055986
 10
-57.41730352012406
 20
-128.77986355202412
 10
-52.734331956426
 20
-118.2765413474264
 10
-58.791769716271325
 20
-115.38534488239362
  0
LWPOLYLINE
  5
E2
330
17
100
AcDbEntity
  8
0
100
AcDbPolyline
 90
4
 70
1
 10
-43.571396206867604
 20
-134.09896879761664
 10
-36.56479217252387
 20
-136.17641489399014
 10
-33.582557349942135
 20
-125.06982786362923
 10
-40.01770077155571
 20
-123.16181886022238
  0
LWPOLYLINE
  5
E3
330
17
100
AcDbEntity
  8
0
100
AcDbPolyline
 90
4
 70
1
 10
-22.057259570672574
 20
-139.2640560239144
 10
-14.811934290048315
 20
-140.2198509576561
 10
-13.6038687273848
 20
-128.78348013486854
 10
-20.258263222709918
 20
-127.90564010707033
  0
LWPOLYLINE
  5
E4
330
17
100
AcDbEntity
  8
0
100
AcDbPolyline
 90
4
 70
1
 10
-2.590127980196652e-14
 20
-141.0
 10
7.305642572639795
 20
-140.81060892773965
 10
6.709792291892578
 20
-129.32605571732117
 10
-2.3788764073437334e-14
 20
-129.5
  0
LWPOLYLINE
  5
E5
330
17
100
AcDbEntity
  8
0
100
AcDbPolyline
 90
4
 70
1
 10
22.057259570672525
 20
-139.26405602391443
 10
29.2433302691519
 20
-137.93414238240402
 10
26.85823595641965
 20
-126.684194599442
 10
20.25826322270987
 20
-127.90564010707034
  0
LWPOLYLINE
  5
E6
330
17
100
AcDbEntity
  8
0
100
AcDbPolyline
 90
4
 70
1
 10
43.57139620686756
 20
-134.09896879761666
 10
50.460950121388606
 20
-131.6612794744405
 10
46.345340714325
 20
-120.92294816978756
 10
40.01770077155567
 20
-123.1618188602224
  0
LWPOLYLINE
  5
E7
330
17
100
AcDbEntity
  8
0
100
AcDbPolyline
 90
4
 70
1
 10
64.01266046327608
 20
-125.63191991055989
 10
70.43605391134476
 20
-122.14647890708162
 10
64.69126937247621
 20
-112.18417743593666
 10
58.79176971627129
 20
-115.38534488239365
  0
LWPOLYLINE
  5
E8
330
17
100
AcDbEntity
  8
0
100
AcDbPolyline
 90
4
 70
1
 10
82.87772057323868
 20
-114.0713962068676
 10
88.67678829014292
 20
-109.62402664810836
 10
81.44428428066318
 20
-100.68305993567398
 10
76.11819017187524
 20
-104.76770077155571
  0
LWPOLYLINE
  5
E9
330
17
100
AcDbEntity
  8
0
100
AcDbPolyline
 90
4
 70
1
 10
99.70205614730318
 20
-99.70205614730322
 10
104.73400583985045
 20
-94.402267031773
 10
96.19187061177753
 20
-86.70279135187661
 10
91.57032816365788
 20
-91.57032816365792
  0
LWPOLYLINE
  5
EA
330
17
100
AcDbEntity
  8
0
100
AcDbPolyline
 90
4
 70
1
 10
114.07139620686758
 20
-82.87772057323875
 10
118.21232457354378
 20
-76.8560102979535
 10
108.57089384591433
 20
-70.58761229492893
 10
104.76770077155568
 20
-76.1181901718753
  0
LWPOLYLINE
  5
EB
330
17
100
AcDbEntity
  8
0
100
AcDbPolyline
 90
4
 70
1
 10
125.63191991055986
 20
-64.01266046327612
 10
128.77986355202412
 20
-57.417303520124065
 10
118.2765413474264
 20
-52.734331956426004
 10
115.38534488239362
 20
-58.79176971627133
  0
LWPOLYLINE
  5
EC
330
17
100
AcDbEntity
  8
0
100
AcDbPolyline
 90
4
 70
1
 10
134.09896879761664
 20
-43.571396206867625
 10
136.17641489399014
 20
-36.56479217252388
 10
125.06982786362923
 20
-33.58255734994215
 10
123.16181886022238
 20
-40.017700771555724
  0
LWPOLYLINE
  5
ED
330
17
100
AcDbEntity
  8
0
100
AcDbPolyline
 90
4
 70
1
 10
139.2640560239144
 20
-22.057259570672585
 10
140.2198509576561
 20
-14.811934290048326
 10
128.78348013486854
 20
-13.603868727384809
 10
127.90564010707033
 20
-20.258263222709925
  0
LWPOLYLINE
  5
EE
330
17
100
AcDbEntity
  8
0
100
AcDbPolyline
 90
4
 70
1
 10
154.5
 20
0.0
 10
154.33602250807147
 20
7.116330261311665
 10
142.8482279524545
 20
6.586635775841865
 10
143.0
 20
0.0
  0
LWPOLYLINE
  5
EF
330
17
100
AcDbEntity
  8
0
100
AcDbPolyline
 90
4
 70
1
 10
152.99641662057263
 20
21.50224409833011
 10
151.84363319640076
 20
28.52649746668706
 10
140.54135629181428
 20
26.403165940040452
 10
141.60833383004456
 20
19.901753437289358
  0
LWPOLYLINE
  5
F0
330
17
100
AcDbEntity
  8
0
100
AcDbPolyline
 90
4
 70
1
 10
148.51493202247028
 20
42.58597147372637
 10
146.39578028413487
 20
49.38142884728332
 10
135.49900699437725
 20
45.705788512372266
 10
137.4604225191796
 20
39.41614188183088
  0
LWPOLYLINE
  5
F1
330
17
100
AcDbEntity
  8
0
100
AcDbPolyline
 90
4
 70
1
 10
141.14277320578182
 20
62.84081135521113
 10
138.09850003137026
 20
69.27520688590998
 10
127.81932365363072
 20
64.1187999008746
 10
130.63700044289192
 20
58.163339959839426
  0
LWPOLYLINE
  5
F2
330
17
100
AcDbEntity
  8
0
100
AcDbPolyline
 90
4
 70
1
 10
131.0234308561678
 20
81.87252632403016
 10
127.11328956021053
 20
87.82062182188231
 10
117.65178257029196
 20
81.28381178336032
 10
121.27087775036891
 20
75.7784547853483
  0
LWPOLYLINE
  5
F3
330
17
100
AcDbEntity
  8
0
100
AcDbPolyline
 90
4
 70
1
 10
118.3538664618821
 20
99.31068569657032
 10
113.65396349698514
 20
104.6567082485684
 10
105.19428336614159
 20
96.86672672844843
 10
109.54435536601386
 20
91.91862818517511
  0
LWPOLYLINE
  5
F4
330
17
100
AcDbEntity
  8
0
100
AcDbPolyline
 90
4
 70
1
 10
103.3806786824436
 20
114.81587553625741
 10
97.9824923137583
 20
119.45577089443732
 10
90.68929709299312
 20
110.56424102203584
 10
95.68567670931672
 20
106.26971004326738
  0
LWPOLYLINE
  5
F5
330
17
100
AcDbEntity
  8
0
100
AcDbPolyline
 90
4
 70
1
 10
86.39530358623038
 20
128.08630495975396
 10
80.40390337107719
 20
131.92976283877147
 10
74.41914680947598
 20
122.10974812908944
 10
79.96458519631679
 20
118.55237287537096
  0
LWPOLYLINE
  5
F6
330
17
100
AcDbEntity
  8
0
100
AcDbPolyline
 90
4
 70
1
 10
67.72834217891247
 20
138.8636801532213
 10
61.26034390736263
 20
141.83589201732985
 10
56.70051248383726
 20
131.2785278865901
 10
62.68707399083808
 20
128.5275486207809
  0
LWPOLYLINE
  5
F7
330
17
100
AcDbEntity
  8
0
100
AcDbPolyline
 90
4
 70
1
 10
47.743125630929384
 20
146.93823176760122
 10
40.92442153209963
 20
148.98134689370687
 10
37.87826717857765
 20
137.89212042589048
 10
44.18943019561748
 20
136.00108183020694
  0
LWPOLYLINE
  5
F8
330
17
100
AcDbEntity
  8
0
100
AcDbPolyline
 90
4
 70
1
 10
26.82864344954075
 20
152.15279784038614
 10
19.791951842553843
 20
153.22704931656824
 10
18.31876448857734
 20
141.82179969106315
 10
24.831689406371048
 20
140.82750868074575
  0
LWPOLYLINE
  5
F9
330
17
100
AcDbEntity
  8
0
100
AcDbPolyline
 90
4
 70
1
 10
5.3919722405364165
 20
154.4058827744503
 10
-1.7257456765957142
 20
154.49036151766785
 10
-1.59729211490736
 20
142.99107894515535
 10
4.990628028457654
 20
142.9128882637307
  0
LWPOLYLINE
  5
FA
330
17
100
AcDbEntity
  8
0
100
AcDbPolyline
 90
4
 70
1
 10
-16.149647574852473
 20
153.65363283439822
 10
-23.209853519156944
 20
152.74669456200772
 10
-21.48225924426824
 20
141.3771994975217
 10
-14.947570247274458
 20
142.2166310376631
  0
LWPOLYLINE
  5
FB
330
17
100
AcDbEntity
  8
0
100
AcDbPolyline
 90
4
 70
1
 10
-37.37693287014867
 20
149.91068970964145
 10
-44.24220796378489
 20
148.02998694348793
 10
-40.94909863314718
 20
137.01157367584966
 10
-34.59483107075249
 20
138.7522888574675
  0
LWPOLYLINE
  5
FC
330
17
100
AcDbEntity
  8
0
100
AcDbPolyline
 90
4
 70
1
 10
-57.876718682758415
 20
143.24990553056867
 10
-64.41343815516336
 20
140.43204401072762
 10
-59.61891039604117
 20
129.97917342093237
 10
-53.568742858475424
 20
132.5872912030506
  0
LWPOLYLINE
  5
FD
330
17
100
AcDbEntity
  8
0
100
AcDbPolyline
 90
4
 70
1
 10
-77.24999999999997
 20
133.80092488469577
 10
-83.3309340420516
 20
130.10075108038097
 10
-77.12830788358173
 20
120.416876404495
 10
-71.49999999999997
 20
123.84163274117473
  0
LWPOLYLINE
  5
FE
330
17
100
AcDbEntity
  8
0
100
AcDbPolyline
 90
4
 70
1
 10
-95.11969793781421
 20
121.74766143223854
 10
-100.62648808534378
 20
117.23719501766566
 10
-93.13649059031819
 20
108.51080186101093
 10
-88.03959097156914
 20
112.68553776576125
  0
LWPOLYLINE
  5
FF
330
17
100
AcDbEntity
  8
0
100
AcDbPolyline
 90
4
 70
1
 10
-111.13799915232163
 20
107.32471823591506
 10
-115.96346199898845
 20
102.09175030926427
 10
-107.33187744890193
 20
94.49268798850997
 10
-102.86559144842714
 20
99.3361469756366
  0
LWPOLYLINE
  5
100
330
17
100
AcDbEntity
  8
0
100
AcDbPolyline
 90
4
 70
1
 10
-124.99312563092937
 20
90.81282147918712
 10
-129.0433390313058
 20
84.95920580873779
 10
-119.43817140114389
 20
78.63538142815213
 10
-115.68943019561748
 20
84.05329107782367
  0
LWPOLYLINE
  5
101
330
17
100
AcDbEntity
  8
0
100
AcDbPolyline
 90
4
 70
1
 10
-136.4154030967042
 20
72.53335645042011
 10
-139.61153425400136
 20
66.17302700680847
 10
-129.2197372059689
 20
61.24752661471592
 10
-126.26150577882656
 20
67.13443347838236
  0
LWPOLYLINE
  5
102
330
17
100
AcDbEntity
  8
0
100
AcDbPolyline
 90
4
 70
1
 10
-145.18250991142284
 20
52.84211214381584
 10
-147.4623497682092
 20
46.09886550489426
 10
-136.4861878113522
 20
42.667558363753265
 10
-134.3760447723849
 20
48.90888049557065
  0
LWPOLYLINE
  5
103
330
17
100
AcDbEntity
  8
0
100
AcDbPolyline
 90
4
 70
1
 10
-151.12380431337297
 20
32.122356231343815
 10
-152.44297838011562
 20
25.127442022609543
 10
-141.09609002172513
 20
23.25711462286838
 10
-139.87510690493423
 20
29.731371786939583
  0
LWPOLYLINE
  5
104
330
17
100
AcDbEntity
  8
0
100
AcDbPolyline
 90
4
 70
1
 10
-154.12364576514284
 20
10.777375193467394
 10
-154.45647781917089
 20
3.666941463396464
 10
-142.95971733424878
 20
3.393997600425206
 10
-142.65165918715485
 20
9.97517574540995
  0
LWPOLYLINE
  5
105
330
17
100
AcDbEntity
  8
0
100
AcDbPolyline
 90
4
 70
1
 10
-154.12364576514284
 20
-10.777375193467355
 10
-153.46365760911544
 20
-17.8649319403176
 10
-142.04079636312952
 20
-16.535179724695254
 10
-142.65165918715485
 20
-9.975175745409913
  0
LWPOLYLINE
  5
106
330
17
100
AcDbEntity
  8
0
100
AcDbPolyline
 90
4
 70
1
 10
-151.12380431337297
 20
-32.12235623134384
 10
-149.48384186602183
 20
-39.04908476487221
 10
-138.3572128598131
 20
-36.14251858496263
 10
-139.8751069049342
 20
-29.73137178693961
  0
LWPOLYLINE
  5
107
330
17
100
AcDbEntity
  8
0
100
AcDbPolyline
 90
4
 70
1
 10
-145.18250991142284
 20
-52.84211214381581
 10
-142.59449317635602
 20
-59.47319157215422
 10
-131.98066358717742
 20
-55.046384432479314
 10
-134.37604477238492
 20
-48.90888049557062
  0
LWPOLYLINE
  5
108
330
17
100
AcDbEntity
  8
0
100
AcDbPolyline
 90
4
 70
1
 10
-136.4154030967042
 20
-72.53335645042014
 10
-132.92970487584435
 20
-78.73972035523697
 10
-123.03526082359704
 20
-72.87883502135202
 10
-126.26150577882655
 20
-67.13443347838239
  0
LWPOLYLINE
  5
109
330
17
100
AcDbEntity
  8
0
100
AcDbPolyline
 90
4
 70
1
 10
-124.99312563092938
 20
-90.81282147918708
 10
-120.6775910752226
 20
-96.4736700467094
 10
-111.69511665862026
 20
-89.29278198498022
 10
-115.68943019561749
 20
-84.05329107782364
  0
LWPOLYLINE
  5
10A
330
17
100
AcDbEntity
  8
0
100
AcDbPolyline
 90
4
 70
1
 10
-111.1379991523216
 20
-107.32471823591507
 10
-106.07662523304688
 20
-112.32986948789586
 10
-98.1809540991955
 20
-103.96874651630492
 10
-102.86559144842711
 20
-99.33614697563661
  0
LWPOLYLINE
  5
10B
330
17
100
AcDbEntity
  8
0
100
AcDbPolyline
 90
4
 70
1
 10
-95.11969793781417
 20
-121.74766143223857
 10
-89.41099854108275
 20
-125.99969579283317
 10
-82.75581094740991
 20
-116.62107765938603
 10
-88.0395909715691
 20
-112.68553776576127
  0
LWPOLYLINE
  5
10C
330
17
100
AcDbEntity
  8
0
100
AcDbPolyline
 90
4
 70
1
 10
-77.25000000000007
 20
-133.80092488469575
 10
-71.00508846601996
 20
-137.2170813416926
 10
-65.71992006887284
 20
-127.00351218033683
 10
-71.50000000000006
 20
-123.8416327411747
  0
LWPOLYLINE
  5
10D
330
17
100
AcDbEntity
  8
0
100
AcDbPolyline
 90
4
 70
1
 10
-57.87671868275845
 20
-143.24990553056864
 10
-51.217145111057015
 20
-145.76369248435265
 10
-47.404865701496135
 20
-134.9139678010513
 10
-53.56874285847546
 20
-132.5872912030506
  0
LWPOLYLINE
  5
10E
330
17
100
AcDbEntity
  8
0
100
AcDbPolyline
 90
4
 70
1
 10
-37.37693287014867
 20
-149.91068970964145
 10
-30.43231828514642
 20
-151.47317915654753
 10
-28.167129545475326
 20
-140.19847650088218
 10
-34.59483107075249
 20
-138.7522888574675
  0
LWPOLYLINE
  5
10F
330
17
100
AcDbEntity
  8
0
100
AcDbPolyline
 90
4
 70
1
 10
-16.149647574852445
 20
-153.65363283439825
 10
-9.055161000064421
 20
-154.23441269464772
 10
-8.381152252486812
 20
-142.7541813290267
 10
-14.947570247274431
 20
-142.2166310376631
  0
LWPOLYLINE
  5
110
330
17
100
AcDbEntity
  8
0
100
AcDbPolyline
 90
4
 70
1
 10
5.391972240536448
 20
-154.4058827744503
 10
12.498244693790856
 20
-153.99364882869074
 10
11.567954635676973
 20
-142.53133839807623
 10
4.990628028457683
 20
-142.9128882637307
  0
LWPOLYLINE
  5
111
330
17
100
AcDbEntity
  8
0
100
AcDbPolyline
 90
4
 70
1
 10
26.82864344954068
 20
-152.15279784038614
 10
33.80838627122399
 20
-150.75557375346264
 10
31.29190444521055
 20
-139.53428509220169
 10
24.831689406370987
 20
-140.82750868074575
  0
LWPOLYLINE
  5
112
330
17
100
AcDbEntity
  8
0
100
AcDbPolyline
 90
4
 70
1
 10
47.74312563092935
 20
-146.93823176760122
 10
54.46048606635728
 20
-144.58321291704686
 10
50.406792928731974
 20
-133.8213556449042
 10
44.189430195617454
 20
-136.00108183020697
  0
LWPOLYLINE
  5
113
330
17
100
AcDbEntity
  8
0
100
AcDbPolyline
 90
4
 70
1
 10
67.72834217891246
 20
-138.8636801532213
 10
74.05257444809364
 20
-135.59670430216786
 10
68.54057052477276
 20
-125.50374572951459
 10
62.687073990838066
 20
-128.5275486207809
  0
LWPOLYLINE
  5
114
330
17
100
AcDbEntity
  8
0
100
AcDbPolyline
 90
4
 70
1
 10
86.39530358623041
 20
-128.08630495975393
 10
92.20331370175282
 20
-123.97096007701222
 10
85.34028387929226
 20
-114.74334816189482
 10
79.96458519631682
 20
-118.55237287537095
  0
LWPOLYLINE
  5
115
330
17
100
AcDbEntity
  8
0
100
AcDbPolyline
 90
4
 70
1
 10
103.38067868244353
 20
-114.81587553625747
 10
108.55942033392212
 20
-109.93226212883465
 10
100.47894568123536
 20
-101.74960184092787
 10
95.68567670931667
 20
-106.26971004326742
  0
LWPOLYLINE
  5
116
330
17
100
AcDbEntity
  8
0
100
AcDbPolyline
 90
4
 70
1
 10
118.35386646188206
 20
-99.31068569657036
 10
122.80254133380213
 20
-93.75385774441402
 10
113.66189909860003
 20
-86.77541525858385
 10
109.54435536601382
 20
-91.91862818517517
  0
LWPOLYLINE
  5
117
330
17
100
AcDbEntity
  8
0
100
AcDbPolyline
 90
4
 70
1
 10
131.0234308561678
 20
-81.87252632403018
 10
134.65545055244004
 20
-75.75064116243091
 10
124.63255293850438
 20
-70.11224392380336
 10
121.2708777503689
 20
-75.77845478534832
  0
LWPOLYLINE
  5
118
330
17
100
AcDbEntity
  8
0
100
AcDbPolyline
 90
4
 70
1
 10
141.14277320578185
 20
-62.84081135521112
 10
143.88744459437953
 20
-56.27302451529829
 10
133.17737590288849
 20
-52.08441751254146
 10
130.63700044289195
 20
-58.16333995983942
  0
LWPOLYLINE
  5
119
330
17
100
AcDbEntity
  8
0
100
AcDbPolyline
 90
4
 70
1
 10
148.51493202247028
 20
-42.58597147372634
 10
150.31883319683178
 20
-35.70011745559205
 10
139.13005273234268
 20
-33.04282715954474
 10
137.4604225191796
 20
-39.416141881830846
  0
LWPOLYLINE
  5
11A
330
17
100
AcDbEntity
  8
0
100
AcDbPolyline
 90
4
 70
1
 10
152.9964166205726
 20
-21.502244098330177
 10
153.82443669624615
 20
-14.432348217894562
 10
142.3747213434511
 20
-13.358095761546423
 10
141.60833383004456
 20
-19.901753437289422
  0
LWPOLYLINE
  5
11B
330
17
100
AcDbEntity
  8
0
100
AcDbPolyline
 90
4
 70
1
 10
168.0
 20
0.0
 10
167.84328271655195
 20
7.254822322539175
 10
156.35401038774037
 20
6.758212461174886
 10
156.5
 20
0.0
  0
LWPOLYLINE
  5
11C
330
17
100
AcDbEntity
  8
0
100
AcDbPolyline
 90
4
 70
1
 10
166.56273671080015
 20
21.928400292968664
 10
165.46041583244306
 20
29.100700894566597
 10
154.1342564153413
 20
27.108688630950432
 10
155.16112080500133
 20
20.42734908243807
  0
LWPOLYLINE
  5
11D
330
17
100
AcDbEntity
  8
0
100
AcDbPolyline
 90
4
 70
1
 10
162.27553881656348
 20
43.481599577223484
 10
160.2464753591471
 20
50.44865840604944
 10
149.27722258158641
 20
46.99532762230201
 10
151.16739181423918
 20
40.505180558544495
  0
LWPOLYLINE
  5
11E
330
17
100
AcDbEntity
  8
0
100
AcDbPolyline
 90
4
 70
1
 10
155.21176146189617
 20
64.29081663733508
 10
152.2906732637396
 20
70.9334253851942
 10
141.86601408199553
 20
66.07786352846959
 10
144.58714683801637
 20
59.88995716513655
  0
LWPOLYLINE
  5
11F
330
17
100
AcDbEntity
  8
0
100
AcDbPolyline
 90
4
 70
1
 10
145.4922678357857
 20
83.99999999999999
 10
141.72913552583802
 20
90.20450178953733
 10
132.02743874877171
 20
84.02978886942019
 10
135.53297569226467
 20
78.24999999999999
  0
LWPOLYLINE
  5
120
330
17
100
AcDbEntity
  8
0
100
AcDbPolyline
 90
4
 70
1
 10
133.2833611689275
 20
102.27192007346507
 10
128.74257298434932
 20
107.93215415884873
 10
119.92983733363492
 20
100.54394122535611
 10
124.15979775557831
 20
95.27116363986478
  0
LWPOLYLINE
  5
121
330
17
100
AcDbEntity
  8
0
100
AcDbPolyline
 90
4
 70
1
 10
118.79393923933999
 20
118.79393923933999
 10
113.55318932491373
 20
123.81305744605574
 10
105.78020315088689
 20
115.3377588708793
 10
110.6622112556947
 20
110.6622112556947
  0
LWPOLYLINE
  5
122
330
17
100
AcDbEntity
  8
0
100
AcDbPolyline
 90
4
 70
1
 10
102.27192007346507
 20
133.2833611689275
 10
96.42087911323699
 20
137.57548499289595
 10
89.82064036441422
 20
128.15811548445367
 10
95.27116363986478
 20
124.15979775557831
  0
LWPOLYLINE
  5
123
330
17
100
AcDbEntity
  8
0
100
AcDbPolyline
 90
4
 70
1
 10
84.00000000000001
 20
145.4922678357857
 10
77.63878092701462
 20
148.98395784837717
 10
72.32422151832016
 20
138.7856512099466
 10
78.25000000000001
 20
135.53297569226464
  0
LWPOLYLINE
  5
124
330
17
100
AcDbEntity
  8
0
100
AcDbPolyline
 90
4
 70
1
 10
64.2908166373351
 20
155.21176146189617
 10
57.528261673594315
 20
157.8432738789159
 10
53.59031518998518
 20
147.03852596458538
 10
59.88995716513656
 20
144.58714683801637
  0
LWPOLYLINE
  5
125
330
17
100
AcDbEntity
  8
0
100
AcDbPolyline
 90
4
 70
1
 10
43.481599577223484
 20
162.27553881656348
 10
36.43341791309141
 20
164.00184773096316
 10
33.93946371070718
 20
152.7755307731889
 10
40.505180558544495
 20
151.16739181423918
  0
LWPOLYLINE
  5
126
330
17
100
AcDbEntity
  8
0
100
AcDbPolyline
 90
4
 70
1
 10
21.92840029296869
 20
166.56273671080015
 10
14.715188270843672
 20
167.3543044984312
 10
13.707898597541874
 20
155.8985038928838
 10
20.42734908243809
 20
155.16112080500133
  0
LWPOLYLINE
  5
127
330
17
100
AcDbEntity
  8
0
100
AcDbPolyline
 90
4
 70
1
 10
1.0287033112837767e-14
 20
168.0
 10
-7.25482232253916
 20
167.84328271655195
 10
-6.758212461174872
 20
156.35401038774037
 10
9.58286120332804e-15
 20
156.5
  0
LWPOLYLINE
  5
128
330
17
100
AcDbEntity
  8
0
100
AcDbPolyline
 90
4
 70
1
 10
-21.928400292968668
 20
166.56273671080015
 10
-29.10070089456656
 20
165.46041583244306
 10
-27.108688630950397
 20
154.1342564153413
 10
-20.427349082438077
 20
155.16112080500133
  0
LWPOLYLINE
  5
129
330
17
100
AcDbEntity
  8
0
100
AcDbPolyline
 90
4
 70
1
 10
-43.481599577223506
 20
162.27553881656348
 10
-50.44865840604941
 20
160.2464753591471
 10
-46.99532762230198
 20
149.27722258158644
 10
-40.50518055854452
 20
151.16739181423918
  0
LWPOLYLINE
  5
12A
330
17
100
AcDbEntity
  8
0
100
AcDbPolyline
 90
4
 70
1
 10
-64.29081663733507
 20
155.21176146189617
 10
-70.93342538519418
 20
152.2906732637396
 10
-66.07786352846958
 20
141.86601408199553
 10
-59.88995716513654
 20
144.58714683801637
  0
LWPOLYLINE
  5
12B
330
17
100
AcDbEntity
  8
0
100
AcDbPolyline
 90
4
 70
1
 10
-83.99999999999996
 20
145.4922678357857
 10
-90.20450178953729
 20
141.72913552583802
 10
-84.02978886942016
 20
132.02743874877174
 10
-78.24999999999997
 20
135.53297569226467
  0
LWPOLYLINE
  5
12C
330
17
100
AcDbEntity
  8
0
100
AcDbPolyline
 90
4
 70
1
 10
-102.27192007346507
 20
133.2833611689275
 10
-107.93215415884875
 20
128.74257298434932
 10
-100.54394122535612
 20
119.92983733363492
 10
-95.27116363986478
 20
124.15979775557831
  0
LWPOLYLINE
  5
12D
330
17
100
AcDbEntity
  8
0
100
AcDbPolyline
 90
4
 70
1
 10
-118.79393923933998
 20
118.79393923933999
 10
-123.8130574460557
 20
113.55318932491375
 10
-115.33775887087927
 20
105.78020315088692
 10
-110.66221125569467
 20
110.6622112556947
  0
LWPOLYLINE
  5
12E
330
17
100
AcDbEntity
  8
0
100
AcDbPolyline
 90
4
 70
1
 10
-133.28336116892748
 20
102.27192007346511
 10
-137.57548499289592
 20
96.42087911323705
 10
-128.15811548445362
 20
89.82064036441427
 10
-124.15979775557828
 20
95.27116363986482
  0
LWPOLYLINE
  5
12F
330
17
100
AcDbEntity
  8
0
100
AcDbPolyline
 90
4
 70
1
 10
-145.4922678357857
 20
83.99999999999999
 10
-148.98395784837717
 20
77.63878092701462
 10
-138.7856512099466
 20
72.32422151832017
 10
-135.53297569226467
 20
78.24999999999999
  0
LWPOLYLINE
  5
130
330
17
100
AcDbEntity
  8
0
100
AcDbPolyline
 90
4
 70
1
 10
-155.21176146189617
 20
64.2908166373351
 10
-157.8432738789159
 20
57.52826167359433
 10
-147.03852596458535
 20
53.59031518998519
 10
-144.58714683801637
 20
59.889957165136565
  0
LWPOLYLINE
  5
131
330
17
100
AcDbEntity
  8
0
100
AcDbPolyline
 90
4
 70
1
 10
-162.27553881656345
 20
43.481599577223534
 10
-164.00184773096316
 20
36.43341791309142
 10
-152.7755307731889
 20
33.93946371070719
 10
-151.16739181423918
 20
40.50518055854454
  0
LWPOLYLINE
  5
132
330
17
100
AcDbEntity
  8
0
100
AcDbPolyline
 90
4
 70
1
 10
-166.56273671080015
 20
21.928400292968664
 10
-167.3543044984312
 20
14.715188270843644
 10
-155.8985038928838
 20
13.707898597541847
 10
-155.16112080500133
 20
20.42734908243807
  0
LWPOLYLINE
  5
133
330
17
100
AcDbEntity
  8
0
100
AcDbPolyline
 90
4
 70
1
 10
-168.0
 20
2.0574066225675533e-14
 10
-167.84328271655195
 20
-7.254822322539149
 10
-156.35401038774037
 20
-6.758212461174862
 10
-156.5
 20
1.916572240665608e-14
  0
LWPOLYLINE
  5
134
330
17
100
AcDbEntity
  8
0
100
AcDbPolyline
 90
4
 70
1
 10
-166.56273671080015
 20
-21.92840029296862
 10
-165.46041583244306
 20
-29.10070089456655
 10
-154.1342564153413
 20
-27.10868863095039
 10
-155.16112080500133
 20
-20.42734908243803
  0
LWPOLYLINE
  5
135
330
17
100
AcDbEntity
  8
0
100
AcDbPolyline
 90
4
 70
1
 10
-162.27553881656348
 20
-43.48159957722349
 10
-160.2464753591471
 20
-50.448658406049425
 10
-149.27722258158641
 20
-46.995327622302
 10
-151.16739181423918
 20
-40.5051805585445
  0
LWPOLYLINE
  5
136
330
17
100
AcDbEntity
  8
0
100
AcDbPolyline
 90
4
 70
1
 10
-155.2117614618962
 20
-64.29081663733507
 10
-152.2906732637396
 20
-70.93342538519417
 10
-141.86601408199553
 20
-66.07786352846956
 10
-144.5871468380164
 20
-59.889957165136536
  0
LWPOLYLINE
  5
137
330
17
100
AcDbEntity
  8
0
100
AcDbPolyline
 90
4
 70
1
 10
-145.4922678357857
 20
-84.00000000000001
 10
-141.72913552583802
 20
-90.20450178953728
 10
-132.02743874877174
 20
-84.02978886942014
 10
-135.53297569226464
 20
-78.25000000000001
  0
LWPOLYLINE
  5
138
330
17
100
AcDbEntity
  8
0
100
AcDbPolyline
 90
4
 70
1
 10
-133.2833611689275
 20
-102.27192007346507
 10
-128.74257298434932
 20
-107.93215415884873
 10
-119.92983733363492
 20
-100.54394122535611
 10
-124.15979775557831
 20
-95.27116363986478
  0
LWPOLYLINE
  5
139
330
17
100
AcDbEntity
  8
0
100
AcDbPolyline
 90
4
 70
1
 10
-118.79393923934
 20
-118.79393923933998
 10
-113.55318932491377
 20
-123.8130574460557
 10
-105.78020315088693
 20
-115.33775887087927
 10
-110.66221125569471
 20
-110.66221125569467
  0
LWPOLYLINE
  5
13A
330
17
100
AcDbEntity
  8
0
100
AcDbPolyline
 90
4
 70
1
 10
-102.27192007346511
 20
-133.28336116892746
 10
-96.42087911323699
 20
-137.57548499289595
 10
-89.82064036441422
 20
-128.15811548445367
 10
-95.27116363986482
 20
-124.15979775557827
  0
LWPOLYLINE
  5
13B
330
17
100
AcDbEntity
  8
0
100
AcDbPolyline
 90
4
 70
1
 10
-84.00000000000007
 20
-145.49226783578567
 10
-77.63878092701464
 20
-148.98395784837717
 10
-72.32422151832019
 20
-138.7856512099466
 10
-78.25000000000007
 20
-135.5329756922646
  0
LWPOLYLINE
  5
13C
330
17
100
AcDbEntity
  8
0
100
AcDbPolyline
 90
4
 70
1
 10
-64.29081663733504
 20
-155.2117614618962
 10
-57.528261673594336
 20
-157.8432738789159
 10
-53.5903151899852
 20
-147.03852596458535
 10
-59.88995716513651
 20
-144.5871468380164
  0
LWPOLYLINE
  5
13D
330
17
100
AcDbEntity
  8
0
100
AcDbPolyline
 90
4
 70
1
 10
-43.48159957722346
 20
-162.27553881656348
 10
-36.43341791309128
 20
-164.0018477309632
 10
-33.93946371070706
 20
-152.77553077318893
 10
-40.50518055854448
 20
-151.16739181423918
  0
LWPOLYLINE
  5
13E
330
17
100
AcDbEntity
  8
0
100
AcDbPolyline
 90
4
 70
1
 10
-21.928400292968675
 20
-166.56273671080015
 10
-14.715188270843582
 20
-167.3543044984312
 10
-13.707898597541789
 20
-155.89850389288384
 10
-20.42734908243808
 20
-155.16112080500133
  0
LWPOLYLINE
  5
13F
330
17
100
AcDbEntity
  8
0
100
AcDbPolyline
 90
4
 70
1
 10
-3.08610993385133e-14
 20
-168.0
 10
7.254822322539215
 20
-167.84328271655195
 10
6.758212461174923
 20
-156.35401038774037
 10
-2.8748583609984114e-14
 20
-156.5
  0
LWPOLYLINE
  5
140
330
17
100
AcDbEntity
  8
0
100
AcDbPolyline
 90
4
 70
1
 10
21.928400292968615
 20
-166.56273671080015
 10
29.10070089456661
 20
-165.46041583244306
 10
27.108688630950446
 20
-154.1342564153413
 10
20.427349082438024
 20
-155.16112080500133
  0
LWPOLYLINE
  5
141
330
17
100
AcDbEntity
  8
0
100
AcDbPolyline
 90
4
 70
1
 10
43.481599577223406
 20
-162.27553881656348
 10
50.44865840604942
 20
-160.2464753591471
 10
46.995327622301986
 20
-149.27722258158644
 10
40.505180558544424
 20
-151.1673918142392
  0
LWPOLYLINE
  5
142
330
17
100
AcDbEntity
  8
0
100
AcDbPolyline
 90
4
 70
1
 10
64.29081663733513
 20
-155.21176146189615
 10
70.93342538519428
 20
-152.29067326373954
 10
66.07786352846968
 20
-141.86601408199547
 10
59.889957165136586
 20
-144.58714683801637
  0
LWPOLYLINE
  5
143
330
17
100
AcDbEntity
  8
0
100
AcDbPolyline
 90
4
 70
1
 10
84.00000000000001
 20
-145.4922678357857
 10
90.20450178953739
 20
-141.72913552583796
 10
84.02978886942024
 20
-132.02743874877166
 10
78.25000000000001
 20
-135.53297569226464
  0
LWPOLYLINE
  5
144
330
17
100
AcDbEntity
  8
0
100
AcDbPolyline
 90
4
 70
1
 10
102.27192007346505
 20
-133.2833611689275
 10
107.93215415884879
 20
-128.74257298434927
 10
100.54394122535616
 20
-119.9298373336349
 10
95.27116363986477
 20
-124.15979775557831
  0
LWPOLYLINE
  5
145
330
17
100
AcDbEntity
  8
0
100
AcDbPolyline
 90
4
 70
1
 10
118.79393923933995
 20
-118.79393923934
 10
123.81305744605575
 20
-113.55318932491372
 10
115.33775887087931
 20
-105.78020315088688
 10
110.66221125569466
 20
-110.66221125569471
  0
LWPOLYLINE
  5
146
330
17
100
AcDbEntity
  8
0
100
AcDbPolyline
 90
4
 70
1
 10
133.28336116892746
 20
-102.27192007346513
 10
137.57548499289595
 20
-96.42087911323699
 10
128.15811548445367
 20
-89.82064036441422
 10
124.15979775557827
 20
-95.27116363986484
  0
LWPOLYLINE
  5
147
330
17
100
AcDbEntity
  8
0
100
AcDbPolyline
 90
4
 70
1
 10
145.49226783578564
 20
-84.00000000000007
 10
148.98395784837717
 20
-77.63878092701464
 10
138.7856512099466
 20
-72.32422151832019
 10
135.5329756922646
 20
-78.25000000000007
  0
LWPOLYLINE
  5
148
330
17
100
AcDbEntity
  8
0
100
AcDbPolyline
 90
4
 70
1
 10
155.2117614618962
 20
-64.29081663733504
 10
157.84327387891597
 20
-57.52826167359421
 10
147.0385259645854
 20
-53.59031518998508
 10
144.5871468380164
 20
-59.889957165136515
  0
LWPOLYLINE
  5
149
330
17
100
AcDbEntity
  8
0
100
AcDbPolyline
 90
4
 70
1
 10
162.27553881656348
 20
-43.48159957722348
 10
164.0018477309632
 20
-36.4334179130913
 10
152.77553077318893
 20
-33.93946371070707
 10
151.16739181423918
 20
-40.50518055854449
  0
LWPOLYLINE
  5
14A
330
17
100
AcDbEntity
  8
0
100
AcDbPolyline
 90
4
 70
1
 10
166.56273671080015
 20
-21.928400292968682
 10
167.3543044984312
 20
-14.71518827084359
 10
155.89850389288384
 20
-13.707898597541798
 10
155.16112080500133
 20
-20.427349082438088
  0
ENDSEC
  0
SECTION
  2
OBJECTS
  0
DICTIONARY
  5
A
330
0
100
AcDbDictionary
280
0
281
1
  3
ACAD_COLOR
350
B
  3
ACAD_GROUP
350
C
  3
ACAD_LAYOUT
350
D
  3
ACAD_MATERIAL
350
E
  3
ACAD_MLEADERSTYLE
350
F
  3
ACAD_MLINESTYLE
350
10
  3
ACAD_PLOTSETTINGS
350
11
  3
ACAD_PLOTSTYLENAME
350
12
  3
ACAD_SCALELIST
350
14
  3
ACAD_TABLESTYLE
350
15
  3
ACAD_VISUALSTYLE
350
16
  3
EZDXF_META
350
2D
  0
DICTIONARY
  5
B
330
A
100
AcDbDictionary
280
0
281
1
  0
DICTIONARY
  5
C
330
A
100
AcDbDictionary
280
0
281
1
  0
DICTIONARY
  5
D
330
A
100
AcDbDictionary
280
0
281
1
  3
Model
350
1A
  3
Layout1
350
1E
  0
DICTIONARY
  5
E
330
A
100
AcDbDictionary
280
0
281
1
  3
ByBlock
350
1F
  3
ByLayer
350
20
  3
Global
350
21
  0
DICTIONARY
  5
F
330
A
100
AcDbDictionary
280
0
281
1
  3
Standard
350
2C
  0
DICTIONARY
  5
10
330
A
100
AcDbDictionary
280
0
281
1
  3
Standard
350
22
  0
DICTIONARY
  5
11
330
A
100
AcDbDictionary
280
0
281
1
  0
ACDBDICTIONARYWDFLT
  5
12
330
A
100
AcDbDictionary
280
0
281
1
  3
Normal
350
13
100
AcDbDictionaryWithDefault
340
13
  0
ACDBPLACEHOLDER
  5
13
330
12
  0
DICTIONARY
  5
14
330
A
100
AcDbDictionary
280
0
281
1
  0
DICTIONARY
  5
15
330
A
100
AcDbDictionary
280
0
281
1
  0
DICTIONARY
  5
16
330
A
100
AcDbDictionary
280
0
281
1
  0
LAYOUT
  5
1A
330
D
100
AcDbPlotSettings
  1

  4
A3
  6

 40
7.5
 41
20.0
 42
7.5
 43
20.0
 44
420.0
 45
297.0
 46
0.0
 47
0.0
 48
0.0
 49
0.0
140
0.0
141
0.0
142
1.0
143
1.0
 70
1024
 72
1
 73
0
 74
5
  7

 75
16
 76
0
 77
2
 78
300
147
1.0
148
0.0
149
0.0
100
AcDbLayout
  1
Model
 70
1
 71
0
 10
0.0
 20
0.0
 11
420.0
 21
297.0
 12
0.0
 22
0.0
 32
0.0
 14
1e+20
 24
1e+20
 34
1e+20
 15
-1e+20
 25
-1e+20
 35
-1e+20
146
0.0
 13
0.0
 23
0.0
 33
0.0
 16
1.0
 26
0.0
 36
0.0
 17
0.0
 27
1.0
 37
0.0
 76
1
330
17
  0
LAYOUT
  5
1E
330
D
100
AcDbPlotSettings
  1

  4
A3
  6

 40
7.5
 41
20.0
 42
7.5
 43
20.0
 44
420.0
 45
297.0
 46
0.0
 47
0.0
 48
0.0
 49
0.0
140
0.0
141
0.0
142
1.0
143
1.0
 70
0
 72
1
 73
0
 74
5
  7

 75
16
 76
0
 77
2
 78
300
147
1.0
148
0.0
149
0.0
100
AcDbLayout
  1
Layout1
 70
1
 71
1
 10
0.0
 20
0.0
 11
420.0
 21
297.0
 12
0.0
 22
0.0
 32
0.0
 14
1e+20
 24
1e+20
 34
1e+20
 15
-1e+20
 25
-1e+20
 35
-1e+20
146
0.0
 13
0.0
 23
0.0
 33
0.0
 16
1.0
 26
0.0
 36
0.0
 17
0.0
 27
1.0
 37
0.0
 76
1
330
1B
  0
MATERIAL
  5
1F
102
{ACAD_REACTORS
330
E
102
}
330
E
100
AcDbMaterial
  1
ByBlock
  2

 70
0
 40
1.0
 71
1
 41
1.0
 91
-1023410177
 42
1.0
 72
1
  3

 73
1
 74
1
 75
1
 44
0.5
 73
0
 45
1.0
 46
1.0
 77
1
  4

 78
1
 79
1
170
1
 48
1.0
171
1
  6

172
1
173
1
174
1
140
1.0
141
1.0
175
1
  7

176
1
177
1
178
1
143
1.0
179
1
  8

270
1
271
1
272
1
145
1.0
146
1.0
273
1
  9

274
1
275
1
276
1
 42
1.0
 72
1
  3

 73
1
 74
1
 75
1
 94
63
  0
MATERIAL
  5
20
102
{ACAD_REACTORS
330
E
102
}
330
E
100
AcDbMaterial
  1
ByLayer
  2

 70
0
 40
1.0
 71
1
 41
1.0
 91
-1023410177
 42
1.0
 72
1
  3

 73
1
 74
1
 75
1
 44
0.5
 73
0
 45
1.0
 46
1.0
 77
1
  4

 78
1
 79
1
170
1
 48
1.0
171
1
  6

172
1
173
1
174
1
140
1.0
141
1.0
175
1
  7

176
1
177
1
178
1
143
1.0
179
1
  8

270
1
271
1
272
1
145
1.0
146
1.0
273
1
  9

274
1
275
1
276
1
 42
1.0
 72
1
  3

 73
1
 74
1
 75
1
 94
63
  0
MATERIAL
  5
21
102
{ACAD_REACTORS
330
E
102
}
330
E
100
AcDbMaterial
  1
Global
  2

 70
0
 40
1.0
 71
1
 41
1.0
 91
-1023410177
 42
1.0
 72
1
  3

 73
1
 74
1
 75
1
 44
0.5
 73
0
 45
1.0
 46
1.0
 77
1
  4

 78
1
 79
1
170
1
 48
1.0
171
1
  6

172
1
173
1
174
1
140
1.0
141
1.0
175
1
  7

176
1
177
1
178
1
143
1.0
179
1
  8

270
1
271
1
272
1
145
1.0
146
1.0
273
1
  9

274
1
275
1
276
1
 42
1.0
 72
1
  3

 73
1
 74
1
 75
1
 94
63
  0
MLINESTYLE
  5
22
102
{ACAD_REACTORS
330
10
102
}
330
10
100
AcDbMlineStyle
  2
Standard
 70
0
  3

 62
256
 51
90.0
 52
90.0
 71
2
 49
0.5
 62
256
  6
BYLAYER
 49
-0.5
 62
256
  6
BYLAYER
  0
MLEADERSTYLE
  5
2C
102
{ACAD_REACTORS
330
F
102
}
330
F
100
AcDbMLeaderStyle
179
2
170
2
171
1
172
0
 90
2
 40
0.0
 41
0.0
173
1
 91
-1056964608
 92
-2
290
1
 42
2.0
291
1
 43
8.0
  3
Standard
 44
4.0
300

342
29
174
1
175
1
176
0
178
1
 93
-1056964608
 45
4.0
292
0
297
0
 46
4.0
 94
-1056964608
 47
1.0
 49
1.0
140
1.0
294
1
141
0.0
177
0
142
1.0
295
0
296
0
143
3.75
271
0
272
9
273
9
  0
DICTIONARY
  5
2D
330
A
100
AcDbDictionary
281
1
  3
CREATED_BY_EZDXF
350
2E
  3
WRITTEN_BY_EZDXF
350
14D
  0
DICTIONARYVAR
  5
2E
330
2D
100
DictionaryVariables
280
0
  1
1.3.3 @ 2024-11-09T14:47:04.503088+00:00
  0
DICTIONARYVAR
  5
14D
330
2D
100
DictionaryVariables
280
0
  1
1.3.3 @ 2024-11-09T14:47:04.569859+00:00
  0
ENDSEC
  0
EOF
