<?xml version="1.0" encoding="utf-8" ?>
<svg baseProfile="tiny" height="364.0mm" version="1.2" viewBox="0,0,364.0,364.0" width="364.0mm" xmlns="http://www.w3.org/2000/svg" xmlns:ev="http://www.w3.org/2001/xml-events" xmlns:xlink="http://www.w3.org/1999/xlink"><defs /><circle cx="182.0" cy="182.0" fill="none" r="4.0" stroke="red" /><circle cx="182.0" cy="182.0" fill="none" r="172.0" stroke="red" /><path d="M 255.5,182.0 A 73.5,73.5 0 0,1 255.22587267223116,188.34204788614736 L 243.76876334256235,187.34975467947126 A 62.0,62.0 0 0,0 244.0,182.0 Z" fill="none" stroke="red" /><path d="M 252.9955482322465,201.02319981503527 A 73.5,73.5 0 0,1 251.08931878877587,207.07819828661738 L 240.27942537284497,203.15439855469765 A 62.0,62.0 0 0,0 241.88740122992223,198.0467807963563 Z" fill="none" stroke="red" /><path d="M 245.65286717815624,218.75 A 73.5,73.5 0 0,1 242.24444200536323,224.1053109175366 L 232.81844087527236,217.51740512771795 A 62.0,62.0 0 0,0 235.69357503463522,213.0 Z" fill="none" stroke="red" /><path d="M 233.97234841721124,233.97234841721124 A 73.5,73.5 0 0,1 229.29400605793273,238.26301619174197 L 221.8942636134943,229.45995923657148 A 62.0,62.0 0 0,0 225.84062043356596,225.84062043356596 Z" fill="none" stroke="red" /><path d="M 218.75,245.65286717815624 A 73.5,73.5 0 0,1 213.12056175469456,248.5864898915106 L 208.2513582148444,238.16819555474362 A 62.0,62.0 0 0,0 213.0,235.6935750346352 Z" fill="none" stroke="red" /><path d="M 201.02319981503527,252.9955482322465 A 73.5,73.5 0 0,1 194.8263025970339,254.37220434455014 L 192.8194661362735,243.04866216819195 A 62.0,62.0 0 0,0 198.0467807963563,241.88740122992223 Z" fill="none" stroke="red" /><path d="M 182.0,255.5 A 73.5,73.5 0 0,1 175.65795211385262,255.22587267223116 L 176.65024532052874,243.76876334256235 A 62.0,62.0 0 0,0 182.0,244.0 Z" fill="none" stroke="red" /><path d="M 162.9768001849647,252.9955482322465 A 73.5,73.5 0 0,1 156.92180171338262,251.08931878877587 L 160.84560144530235,240.27942537284497 A 62.0,62.0 0 0,0 165.9532192036437,241.88740122992223 Z" fill="none" stroke="red" /><path d="M 145.25,245.65286717815624 A 73.5,73.5 0 0,1 139.89468908246337,242.24444200536323 L 146.48259487228205,232.81844087527236 A 62.0,62.0 0 0,0 151.0,235.69357503463522 Z" fill="none" stroke="red" /><path d="M 130.02765158278876,233.97234841721124 A 73.5,73.5 0 0,1 125.73698380825803,229.29400605793276 L 134.54004076342852,221.8942636134943 A 62.0,62.0 0 0,0 138.15937956643404,225.84062043356596 Z" fill="none" stroke="red" /><path d="M 118.34713282184376,218.75 A 73.5,73.5 0 0,1 115.41351010848942,213.1205617546946 L 125.83180444525638,208.25135821484443 A 62.0,62.0 0 0,0 128.30642496536478,213.0 Z" fill="none" stroke="red" /><path d="M 111.0044517677535,201.0231998150353 A 73.5,73.5 0 0,1 109.62779565544987,194.82630259703393 L 120.95133783180805,192.81946613627352 A 62.0,62.0 0 0,0 122.11259877007777,198.0467807963563 Z" fill="none" stroke="red" /><path d="M 108.5,182.0 A 73.5,73.5 0 0,1 108.77412732776882,175.65795211385264 L 120.23123665743765,176.65024532052877 A 62.0,62.0 0 0,0 120.0,182.0 Z" fill="none" stroke="red" /><path d="M 111.00445176775348,162.97680018496473 A 73.5,73.5 0 0,1 112.9106812112241,156.92180171338265 L 123.72057462715503,160.84560144530238 A 62.0,62.0 0 0,0 122.11259877007777,165.9532192036437 Z" fill="none" stroke="red" /><path d="M 118.34713282184376,145.25 A 73.5,73.5 0 0,1 121.75555799463677,139.8946890824634 L 131.1815591247276,146.48259487228205 A 62.0,62.0 0 0,0 128.3064249653648,151.0 Z" fill="none" stroke="red" /><path d="M 130.02765158278874,130.02765158278876 A 73.5,73.5 0 0,1 134.70599394206724,125.73698380825803 L 142.1057363865057,134.54004076342855 A 62.0,62.0 0 0,0 138.15937956643404,138.15937956643404 Z" fill="none" stroke="red" /><path d="M 145.24999999999997,118.34713282184377 A 73.5,73.5 0 0,1 150.87943824530538,115.41351010848943 L 155.74864178515557,125.8318044452564 A 62.0,62.0 0 0,0 150.99999999999997,128.3064249653648 Z" fill="none" stroke="red" /><path d="M 162.97680018496473,111.00445176775348 A 73.5,73.5 0 0,1 169.1736974029661,109.62779565544987 L 171.1805338637265,120.95133783180805 A 62.0,62.0 0 0,0 165.95321920364373,122.11259877007777 Z" fill="none" stroke="red" /><path d="M 182.0,108.5 A 73.5,73.5 0 0,1 188.34204788614736,108.77412732776882 L 187.34975467947123,120.23123665743765 A 62.0,62.0 0 0,0 182.0,120.0 Z" fill="none" stroke="red" /><path d="M 201.02319981503524,111.00445176775347 A 73.5,73.5 0 0,1 207.07819828661735,112.9106812112241 L 203.15439855469762,123.72057462715503 A 62.0,62.0 0 0,0 198.04678079635624,122.11259877007777 Z" fill="none" stroke="red" /><path d="M 218.75,118.34713282184376 A 73.5,73.5 0 0,1 224.1053109175366,121.75555799463677 L 217.51740512771795,131.18155912472764 A 62.0,62.0 0 0,0 213.0,128.3064249653648 Z" fill="none" stroke="red" /><path d="M 233.97234841721124,130.02765158278874 A 73.5,73.5 0 0,1 238.26301619174197,134.70599394206724 L 229.45995923657145,142.1057363865057 A 62.0,62.0 0 0,0 225.84062043356593,138.15937956643404 Z" fill="none" stroke="red" /><path d="M 245.6528671781562,145.24999999999997 A 73.5,73.5 0 0,1 248.58648989151055,150.87943824530538 L 238.1681955547436,155.74864178515557 A 62.0,62.0 0 0,0 235.6935750346352,150.99999999999997 Z" fill="none" stroke="red" /><path d="M 252.9955482322465,162.97680018496473 A 73.5,73.5 0 0,1 254.37220434455014,169.1736974029661 L 243.04866216819195,171.1805338637265 A 62.0,62.0 0 0,0 241.88740122992223,165.95321920364373 Z" fill="none" stroke="red" /><path d="M 269.0,182.0 A 87.0,87.0 0 0,1 268.74358944374205,188.6745554470332 L 257.2774827931325,187.7922866235748 A 75.5,75.5 0 0,0 257.5,182.0 Z" fill="none" stroke="red" /><path d="M 266.65490374044464,202.0635807545923 A 87.0,87.0 0 0,1 264.8661463476791,208.4990903520296 L 253.91257527873302,204.9963370296349 A 75.5,75.5 0 0,0 255.46488772877672,199.41149824105423 Z" fill="none" stroke="red" /><path d="M 259.7460397081369,221.04552867744022 A 87.0,87.0 0 0,1 256.52136785291026,226.8950524371142 L 246.67084221718073,220.9606489540474 A 75.5,75.5 0 0,0 249.46926434441764,215.8843381051349 Z" fill="none" stroke="red" /><path d="M 248.6458665513511,237.92252204272893 A 87.0,87.0 0 0,1 244.1591231280539,242.8707106246628 L 235.94268731227666,234.82458220875907 A 75.5,75.5 0 0,0 239.83635545548285,230.5304645313337 Z" fill="none" stroke="red" /><path d="M 233.9527974781424,251.78471776968883 A 87.0,87.0 0 0,1 228.4458639860748,255.5648130466396 L 222.30646817182355,245.8407285634631 A 75.5,75.5 0 0,0 227.08547367356036,242.5603010530058 Z" fill="none" stroke="red" /><path d="M 216.45893964540664,261.88480129858385 A 87.0,87.0 0 0,1 210.22869629454263,264.29301735572994 L 206.497316899287,253.41520471675418 A 75.5,75.5 0 0,0 211.90402233595634,251.3253160694607 Z" fill="none" stroke="red" /><path d="M 197.10739145702294,267.6782745120621 A 87.0,87.0 0 0,1 190.489712279046,268.5847837984193 L 189.3675089318158,257.13966869862827 A 75.5,75.5 0 0,0 195.11043741385325,256.3529853524217 Z" fill="none" stroke="red" /><path d="M 176.94139988478858,268.8528097696003 A 87.0,87.0 0 0,1 170.29304567710585,268.2087421348999 L 171.84051665082174,256.81333369178094 A 75.5,75.5 0 0,0 177.61006541725905,257.3722659494807 Z" fill="none" stroke="red" /><path d="M 157.04811875413515,265.34508757144755 A 87.0,87.0 0 0,1 150.72750401294513,263.18516486858687 L 154.86122474686616,252.45379250090014 A 75.5,75.5 0 0,0 160.34635593031268,254.3282081798194 Z" fill="none" stroke="red" /><path d="M 138.50000000000003,257.34421012924616 A 87.0,87.0 0 0,1 132.8478707020304,253.78487435021168 L 139.34499124141718,244.29606912001128 A 75.5,75.5 0 0,0 144.25,247.3849179857251 Z" fill="none" stroke="red" /><path d="M 122.29697750542016,245.28150681685523 A 87.0,87.0 0 0,1 117.61804140412366,240.51464267479435 L 126.12830029898088,232.77994852812614 A 75.5,75.5 0 0,0 130.1887563409106,236.91670993876517 Z" fill="none" stroke="red" /><path d="M 109.31256040707451,229.8072810921601 A 87.0,87.0 0 0,1 105.85906015876948,224.08987146682816 L 115.92366714927697,218.52626776718995 A 75.5,75.5 0 0,0 118.92067023832328,223.48792784434585 Z" fill="none" stroke="red" /><path d="M 100.24674199162598,211.7557524693332 A 87.0,87.0 0 0,1 98.20485668860374,205.39602439352814 L 109.28122620677681,202.30344645645258 A 75.5,75.5 0 0,0 111.05320713066392,207.822520821088 Z" fill="none" stroke="red" /><path d="M 95.58826287645095,192.100083528895 A 87.0,87.0 0 0,1 95.06807108391978,185.44089158933772 L 106.55907318202233,184.98606109189652 A 75.5,75.5 0 0,0 107.0105039904833,190.76501501645487 Z" fill="none" stroke="red" /><path d="M 95.58826287645097,171.89991647110494 A 87.0,87.0 0 0,1 96.61780826859281,165.30025942892456 L 107.90396004918112,167.50769640096328 A 75.5,75.5 0 0,0 107.01050399048331,173.2349849835451 Z" fill="none" stroke="red" /><path d="M 100.24674199162597,152.24424753066683 A 87.0,87.0 0 0,1 102.77052150986259,146.05991460526485 L 113.24338360913363,150.81061554824709 A 75.5,75.5 0 0,0 111.0532071306639,156.17747917891202 Z" fill="none" stroke="red" /><path d="M 109.31256040707453,134.1927189078399 A 87.0,87.0 0 0,1 113.1945164443218,128.75710908797967 L 122.28949415570456,135.79496248439614 A 75.5,75.5 0 0,0 118.9206702383233,140.51207215565415 Z" fill="none" stroke="red" /><path d="M 122.29697750542022,118.71849318314474 A 87.0,87.0 0 0,1 127.32783280690325,114.32464160117011 L 134.55461352782982,123.27023495273957 A 75.5,75.5 0 0,0 130.18875634091063,127.0832900612348 Z" fill="none" stroke="red" /><path d="M 138.49999999999997,106.65578987075385 A 87.0,87.0 0 0,1 144.40853985422754,103.5405702027551 L 149.37752596545033,113.91164425641391 A 75.5,75.5 0 0,0 144.24999999999997,116.61508201427489 Z" fill="none" stroke="red" /><path d="M 157.04811875413517,98.65491242855245 A 87.0,87.0 0 0,1 163.51581224819722,96.98626697317601 L 165.9591244222861,108.22371444223896 A 75.5,75.5 0 0,0 160.3463559303127,109.67179182018057 Z" fill="none" stroke="red" /><path d="M 176.94139988478864,95.14719023039966 A 87.0,87.0 0 0,1 183.61957198832027,95.01507609605761 L 183.4054906335423,106.51308327876264 A 75.5,75.5 0 0,0 177.6100654172591,106.62773405051925 Z" fill="none" stroke="red" /><path d="M 197.1073914570229,96.3217254879379 A 87.0,87.0 0 0,1 203.6360201833423,97.73326498180907 L 200.77608648094647,108.87197133478834 A 75.5,75.5 0 0,0 195.11043741385322,107.64701464757829 Z" fill="none" stroke="red" /><path d="M 216.4589396454067,102.11519870141618 A 87.0,87.0 0 0,1 222.4860649300054,104.99429536402263 L 217.13445864615412,115.17321034464034 A 75.5,75.5 0 0,0 211.90402233595637,112.67468393053933 Z" fill="none" stroke="red" /><path d="M 233.95279747814243,112.21528223031122 A 87.0,87.0 0 0,1 239.15349543686455,116.40672321534544 L 231.59872305153186,125.07709888228254 A 75.5,75.5 0 0,0 227.0854736735604,121.43969894699421 Z" fill="none" stroke="red" /><path d="M 248.64586655135105,126.07747795727106 A 87.0,87.0 0 0,1 252.73976621109136,131.35530159631577 L 243.38910745905056,138.04971575312462 A 75.5,75.5 0 0,0 239.83635545548282,133.46953546866627 Z" fill="none" stroke="red" /><path d="M 259.7460397081369,142.95447132255984 A 87.0,87.0 0 0,1 262.5124378785723,149.03414877712044 L 251.86998919347369,153.3917038238229 A 75.5,75.5 0 0,0 249.46926434441764,148.11566189486516 Z" fill="none" stroke="red" /><path d="M 266.6549037404447,161.93641924540776 A 87.0,87.0 0 0,1 267.9446631801516,168.49019353024292 L 256.584161725304,170.27597254636024 A 75.5,75.5 0 0,0 255.46488772877672,164.58850175894582 Z" fill="none" stroke="red" /><path d="M 282.5,182.0 A 100.5,100.5 0 0,1 282.26005688930314,188.94053258429778 L 270.787513066149,188.1463422885821 A 89.0,89.0 0 0,0 271.0,182.0 Z" fill="none" stroke="red" /><path d="M 280.30383387374746,202.8951249271848 A 100.5,100.5 0 0,1 278.6261162309296,209.63410324448543 L 267.5693964632113,206.47199192795227 A 89.0,89.0 0 0,0 269.0551364653087,200.50414048278057 Z" fill="none" stroke="red" /><path d="M 273.8113184930814,222.87703262911793 A 100.5,100.5 0 0,1 270.76915062971614,229.1199309897496 L 260.6114866273108,223.72809809042502 A 89.0,89.0 0 0,0 263.3055457301915,218.1995612337462 Z" fill="none" stroke="red" /><path d="M 263.3062079346822,241.07241785539355 A 100.5,100.5 0 0,1 259.03254718433965,246.54639164424674 L 250.21787760603212,239.16048613271602 A 89.0,89.0 0 0,0 254.0025124993703,234.31288745403012 Z" fill="none" stroke="red" /><path d="M 249.24762593906524,256.68605496047815 A 100.5,100.5 0 0,1 243.9292517838349,261.15186525593936 L 236.8428199876747,252.09468664456324 A 89.0,89.0 0 0,0 241.55262396593838,248.1398894674881 Z" fill="none" stroke="red" /><path d="M 232.25,269.03555308033606 A 100.5,100.5 0 0,1 226.119350910856,272.2980225431584 L 221.07086797080783,261.9654129984189 A 89.0,89.0 0 0,0 226.5,259.07626093681506 Z" fill="none" stroke="red" /><path d="M 213.05620793468222,277.5811798876629 A 100.5,100.5 0 0,1 206.38122269493846,279.4977229472556 L 203.59133154079126,268.3412670876194 A 89.0,89.0 0 0,0 209.5025124993703,266.64402995026865 Z" fill="none" stroke="red" /><path d="M 192.50511055839917,281.94945048451143 A 100.5,100.5 0 0,1 185.57751805316528,282.4363050125764 L 185.16815031573842,270.9435934937244 A 89.0,89.0 0 0,0 191.30303323082114,270.5124486877763 Z" fill="none" stroke="red" /><path d="M 171.4948894416008,281.94945048451143 A 100.5,100.5 0 0,1 164.61745870563257,280.98533860198495 L 166.6065057194159,269.6586580654394 A 89.0,89.0 0 0,0 172.69696676917883,270.5124486877763 Z" fill="none" stroke="red" /><path d="M 150.94379206531778,277.5811798876629 A 100.5,100.5 0 0,1 144.41709982335107,275.20823791013345 L 148.71763068933578,264.54261864678483 A 89.0,89.0 0 0,0 154.4974875006297,266.64402995026865 Z" fill="none" stroke="red" /><path d="M 131.75000000000003,269.03555308033606 A 100.5,100.5 0 0,1 125.8592940215529,265.35748995886064 L 132.28335490465878,255.8190707098368 A 89.0,89.0 0 0,0 137.50000000000003,259.07626093681506 Z" fill="none" stroke="red" /><path d="M 114.75237406093474,256.68605496047815 A 100.5,100.5 0 0,1 109.75510646400882,251.86361970277017 L 118.02193507757994,243.86927515966713 A 89.0,89.0 0 0,0 122.44737603406162,248.1398894674881 Z" fill="none" stroke="red" /><path d="M 100.6937920653178,241.07241785539355 A 100.5,100.5 0 0,1 96.80836742344914,235.31637402282678 L 106.55666368842759,229.21549540329931 A 89.0,89.0 0 0,0 109.99748750062969,234.31288745403012 Z" fill="none" stroke="red" /><path d="M 90.18868150691863,222.87703262911793 A 100.5,100.5 0 0,1 87.58491152129288,216.4389469577382 L 98.38862811338375,212.4981719327234 A 89.0,89.0 0 0,0 100.69445426980853,218.19956123374624 Z" fill="none" stroke="red" /><path d="M 83.69616612625254,202.8951249271848 A 100.5,100.5 0 0,1 82.48784803951617,196.05637265419406 L 93.87481070166109,194.44793200222162 A 89.0,89.0 0 0,0 94.9448635346913,200.50414048278057 Z" fill="none" stroke="red" /><path d="M 81.5,182.0 A 100.5,100.5 0 0,1 81.73994311069687,175.05946741570222 L 93.21248693385095,175.8536577114179 A 89.0,89.0 0 0,0 93.0,182.0 Z" fill="none" stroke="red" /><path d="M 83.69616612625254,161.10487507281516 A 100.5,100.5 0 0,1 85.37388376907037,154.36589675551457 L 96.4306035367887,157.52800807204773 A 89.0,89.0 0 0,0 94.94486353469131,163.4958595172194 Z" fill="none" stroke="red" /><path d="M 90.18868150691861,141.12296737088207 A 100.5,100.5 0 0,1 93.23084937028386,134.88006901025037 L 103.38851337268919,140.27190190957495 A 89.0,89.0 0 0,0 100.69445426980852,145.8004387662538 Z" fill="none" stroke="red" /><path d="M 100.69379206531778,122.92758214460646 A 100.5,100.5 0 0,1 104.96745281566034,117.45360835575326 L 113.78212239396787,124.83951386728398 A 89.0,89.0 0 0,0 109.99748750062967,129.6871125459699 Z" fill="none" stroke="red" /><path d="M 114.75237406093476,107.31394503952187 A 100.5,100.5 0 0,1 120.07074821616514,102.84813474406059 L 127.15718001232534,111.90531335543675 A 89.0,89.0 0 0,0 122.44737603406162,115.8601105325119 Z" fill="none" stroke="red" /><path d="M 131.74999999999994,94.96444691966393 A 100.5,100.5 0 0,1 137.88064908914396,91.70197745684159 L 142.92913202919215,102.0345870015811 A 89.0,89.0 0 0,0 137.49999999999994,104.92373906318497 Z" fill="none" stroke="red" /><path d="M 150.94379206531778,86.41882011233707 A 100.5,100.5 0 0,1 157.61877730506154,84.50227705274436 L 160.40866845920874,95.65873291238059 A 89.0,89.0 0 0,0 154.49748750062966,97.35597004973134 Z" fill="none" stroke="red" /><path d="M 171.49488944160083,82.05054951548853 A 100.5,100.5 0 0,1 178.42248194683467,81.56369498742362 L 178.83184968426153,93.05640650627565 A 89.0,89.0 0 0,0 172.69696676917886,93.48755131222367 Z" fill="none" stroke="red" /><path d="M 192.5051105583991,82.05054951548853 A 100.5,100.5 0 0,1 199.38254129436743,83.01466139801505 L 197.3934942805841,94.34134193456059 A 89.0,89.0 0 0,0 191.30303323082111,93.48755131222367 Z" fill="none" stroke="red" /><path d="M 213.0562079346822,86.41882011233706 A 100.5,100.5 0 0,1 219.58290017664893,88.79176208986654 L 215.28236931066425,99.45738135321514 A 89.0,89.0 0 0,0 209.5025124993703,97.35597004973133 Z" fill="none" stroke="red" /><path d="M 232.25,94.96444691966393 A 100.5,100.5 0 0,1 238.14070597844704,98.64251004113932 L 231.71664509534116,108.18092929016318 A 89.0,89.0 0 0,0 226.5,104.92373906318497 Z" fill="none" stroke="red" /><path d="M 249.2476259390652,107.31394503952184 A 100.5,100.5 0 0,1 254.24489353599114,112.13638029722978 L 245.97806492242,120.13072484033283 A 89.0,89.0 0 0,0 241.55262396593835,115.86011053251188 Z" fill="none" stroke="red" /><path d="M 263.3062079346822,122.92758214460642 A 100.5,100.5 0 0,1 267.1916325765509,128.68362597717322 L 257.4433363115724,134.78450459670066 A 89.0,89.0 0 0,0 254.0025124993703,129.68711254596985 Z" fill="none" stroke="red" /><path d="M 273.8113184930814,141.1229673708821 A 100.5,100.5 0 0,1 276.4150884787071,147.56105304226173 L 265.6113718866162,151.50182806727656 A 89.0,89.0 0 0,0 263.3055457301915,145.8004387662538 Z" fill="none" stroke="red" /><path d="M 280.30383387374746,161.10487507281513 A 100.5,100.5 0 0,1 281.51215196048383,167.94362734580588 L 270.1251892983389,169.55206799777835 A 89.0,89.0 0 0,0 269.0551364653087,163.49585951721937 Z" fill="none" stroke="red" /><path d="M 296.0,182.0 A 114.0,114.0 0 0,1 295.76077279641174,189.38150206686845 L 284.2849053651948,188.63687685836857 A 102.5,102.5 0 0,0 284.5,182.0 Z" fill="none" stroke="red" /><path d="M 293.80952196596826,204.24029670983862 A 114.0,114.0 0 0,1 292.13483183082883,211.43329437210616 L 281.02473914613995,208.46414625562176 A 102.5,102.5 0 0,0 282.5304912413311,201.99675800665315 Z" fill="none" stroke="red" /><path d="M 287.32226670628665,225.62591128962023 A 114.0,114.0 0 0,1 284.2764710423124,232.35398168100548 L 273.95910773541243,227.27441335353564 A 102.5,102.5 0 0,0 276.6976520824069,221.2250518174217 Z" fill="none" stroke="red" /><path d="M 276.78753580249014,245.33500656423465 A 114.0,114.0 0 0,1 272.48768282894565,251.33959371274204 L 263.3595393856748,244.34481013645666 A 102.5,102.5 0 0,0 267.2256352610109,238.94594888450922 Z" fill="none" stroke="red" /><path d="M 262.61017305526644,262.61017305526644 A 114.0,114.0 0 0,1 257.2215037105397,267.6605240441901 L 249.63336956430106,259.01933082920596 A 102.5,102.5 0 0,0 254.47844507162114,254.47844507162114 Z" fill="none" stroke="red" /><path d="M 245.33500656423467,276.78753580249014 A 114.0,114.0 0 0,1 239.064604389243,280.6895684755952 L 233.3080872798018,270.73404183112723 A 102.5,102.5 0 0,0 238.94594888450922,267.2256352610109 Z" fill="none" stroke="red" /><path d="M 225.62591128962023,287.32226670628665 A 114.0,114.0 0 0,1 218.71474432346645,289.9260281362308 L 215.0110639750466,279.0387533681023 A 102.5,102.5 0 0,0 221.2250518174217,276.6976520824069 Z" fill="none" stroke="red" /><path d="M 204.24029670983862,293.80952196596826 A 114.0,114.0 0 0,1 196.95395722320498,295.014951061205 L 195.44544399454833,283.61432003310097 A 102.5,102.5 0 0,0 201.99675800665315,282.5304912413311 Z" fill="none" stroke="red" /><path d="M 182.0,296.0 A 114.0,114.0 0 0,1 174.61849793313155,295.76077279641174 L 175.36312314163143,284.2849053651948 A 102.5,102.5 0 0,0 182.0,284.5 Z" fill="none" stroke="red" /><path d="M 159.75970329016138,293.80952196596826 A 114.0,114.0 0 0,1 152.56670562789384,292.13483183082883 L 155.53585374437822,281.02473914613995 A 102.5,102.5 0 0,0 162.00324199334688,282.5304912413311 Z" fill="none" stroke="red" /><path d="M 138.37408871037977,287.32226670628665 A 114.0,114.0 0 0,1 131.6460183189945,284.2764710423124 L 136.72558664646436,273.95910773541243 A 102.5,102.5 0 0,0 142.7749481825783,276.6976520824069 Z" fill="none" stroke="red" /><path d="M 118.66499343576534,276.78753580249014 A 114.0,114.0 0 0,1 112.66040628725797,272.48768282894565 L 119.65518986354334,263.3595393856748 A 102.5,102.5 0 0,0 125.05405111549076,267.2256352610109 Z" fill="none" stroke="red" /><path d="M 101.38982694473358,262.61017305526644 A 114.0,114.0 0 0,1 96.33947595580993,257.22150371053965 L 104.98066917079402,249.633369564301 A 102.5,102.5 0 0,0 109.52155492837889,254.47844507162114 Z" fill="none" stroke="red" /><path d="M 87.21246419750983,245.33500656423465 A 114.0,114.0 0 0,1 83.31043152440482,239.064604389243 L 93.26595816887274,233.3080872798018 A 102.5,102.5 0 0,0 96.7743647389891,238.94594888450922 Z" fill="none" stroke="red" /><path d="M 76.67773329371332,225.62591128962026 A 114.0,114.0 0 0,1 74.07397186376917,218.71474432346645 L 84.96124663189772,215.0110639750466 A 102.5,102.5 0 0,0 87.30234791759311,221.22505181742173 Z" fill="none" stroke="red" /><path d="M 70.19047803403173,204.24029670983862 A 114.0,114.0 0 0,1 68.98504893879503,196.953957223205 L 80.38567996689905,195.44544399454836 A 102.5,102.5 0 0,0 81.46950875866888,201.99675800665312 Z" fill="none" stroke="red" /><path d="M 68.0,182.0 A 114.0,114.0 0 0,1 68.23922720358824,174.61849793313155 L 79.71509463480521,175.36312314163143 A 102.5,102.5 0 0,0 79.5,182.0 Z" fill="none" stroke="red" /><path d="M 70.19047803403173,159.75970329016138 A 114.0,114.0 0 0,1 71.86516816917118,152.56670562789387 L 82.97526085386005,155.53585374437824 A 102.5,102.5 0 0,0 81.46950875866888,162.00324199334685 Z" fill="none" stroke="red" /><path d="M 76.6777332937133,138.3740887103798 A 114.0,114.0 0 0,1 79.72352895768762,131.6460183189945 L 90.04089226458755,136.72558664646436 A 102.5,102.5 0 0,0 87.3023479175931,142.7749481825783 Z" fill="none" stroke="red" /><path d="M 87.21246419750985,118.66499343576534 A 114.0,114.0 0 0,1 91.51231717105435,112.66040628725798 L 100.64046061432518,119.65518986354336 A 102.5,102.5 0 0,0 96.7743647389891,125.05405111549076 Z" fill="none" stroke="red" /><path d="M 101.38982694473357,101.38982694473358 A 114.0,114.0 0 0,1 106.77849628946032,96.33947595580993 L 114.36663043569897,104.98066917079402 A 102.5,102.5 0 0,0 109.52155492837886,109.52155492837889 Z" fill="none" stroke="red" /><path d="M 118.66499343576535,87.21246419750985 A 114.0,114.0 0 0,1 124.93539561075701,83.31043152440482 L 130.6919127201982,93.26595816887274 A 102.5,102.5 0 0,0 125.05405111549078,96.7743647389891 Z" fill="none" stroke="red" /><path d="M 138.3740887103798,76.6777332937133 A 114.0,114.0 0 0,1 145.28525567653352,74.07397186376919 L 148.9889360249534,84.96124663189774 A 102.5,102.5 0 0,0 142.77494818257833,87.3023479175931 Z" fill="none" stroke="red" /><path d="M 159.75970329016133,70.19047803403174 A 114.0,114.0 0 0,1 167.04604277679493,68.98504893879503 L 168.5545560054516,80.38567996689905 A 102.5,102.5 0 0,0 162.00324199334682,81.4695087586689 Z" fill="none" stroke="red" /><path d="M 181.99999999999997,68.0 A 114.0,114.0 0 0,1 189.3815020668684,68.23922720358824 L 188.6368768583685,79.71509463480521 A 102.5,102.5 0 0,0 181.99999999999997,79.5 Z" fill="none" stroke="red" /><path d="M 204.24029670983862,70.19047803403173 A 114.0,114.0 0 0,1 211.43329437210613,71.86516816917118 L 208.46414625562176,82.97526085386005 A 102.5,102.5 0 0,0 201.99675800665315,81.46950875866888 Z" fill="none" stroke="red" /><path d="M 225.62591128962026,76.67773329371333 A 114.0,114.0 0 0,1 232.3539816810054,79.72352895768758 L 227.27441335353555,90.04089226458751 A 102.5,102.5 0 0,0 221.22505181742173,87.30234791759312 Z" fill="none" stroke="red" /><path d="M 245.33500656423462,87.21246419750982 A 114.0,114.0 0 0,1 251.339593712742,91.5123171710543 L 244.3448101364566,100.64046061432515 A 102.5,102.5 0 0,0 238.9459488845092,96.77436473898909 Z" fill="none" stroke="red" /><path d="M 262.6101730552664,101.38982694473357 A 114.0,114.0 0 0,1 267.66052404419,106.77849628946028 L 259.01933082920596,114.36663043569894 A 102.5,102.5 0 0,0 254.4784450716211,109.52155492837886 Z" fill="none" stroke="red" /><path d="M 276.78753580249014,118.66499343576535 A 114.0,114.0 0 0,1 280.68956847559514,124.93539561075701 L 270.73404183112723,130.6919127201982 A 102.5,102.5 0 0,0 267.2256352610109,125.05405111549078 Z" fill="none" stroke="red" /><path d="M 287.3222667062867,138.3740887103798 A 114.0,114.0 0 0,1 289.9260281362308,145.28525567653344 L 279.0387533681022,148.9889360249533 A 102.5,102.5 0 0,0 276.6976520824069,142.77494818257833 Z" fill="none" stroke="red" /><path d="M 293.80952196596826,159.75970329016133 A 114.0,114.0 0 0,1 295.01495106120495,167.04604277679493 L 283.61432003310097,168.5545560054516 A 102.5,102.5 0 0,0 282.5304912413311,162.00324199334682 Z" fill="none" stroke="red" /><path d="M 309.5,182.0 A 127.5,127.5 0 0,1 309.2885816182886,189.33941343734483 L 297.80765072722727,188.6774271273098 A 116.0,116.0 0 0,0 298.0,182.0 Z" fill="none" stroke="red" /><path d="M 307.56298850905654,204.14014265253363 A 127.5,127.5 0 0,1 306.08030627907874,211.33134149148333 L 294.88874924214224,208.6857695138201 A 116.0,116.0 0 0,0 296.2376993494161,202.1431886093639 Z" fill="none" stroke="red" /><path d="M 301.81080915020334,225.60756827402275 A 127.5,127.5 0 0,1 299.1019136212436,232.43205157677804 L 288.5397802357981,227.88327829730395 A 116.0,116.0 0 0,0 291.00434401116536,221.67433662577758 Z" fill="none" stroke="red" /><path d="M 292.41823898251596,245.75 A 127.5,127.5 0 0,1 288.56543857445445,252.0004092947618 L 278.95365391871934,245.68664688778327 A 116.0,116.0 0 0,0 282.4589468389949,240.0 Z" fill="none" stroke="red" /><path d="M 279.6706664976697,263.9554202350338 A 127.5,127.5 0 0,1 274.79102660129433,269.4418399982404 L 266.4216398882364,261.55492893957563 A 116.0,116.0 0 0,0 270.86115540180145,256.56336272363853 Z" fill="none" stroke="red" /><path d="M 263.9554202350338,279.6706664976697 A 127.5,127.5 0 0,1 258.19720623937894,284.2263946410786 L 251.32451704916045,275.0059747322755 A 116.0,116.0 0 0,0 256.56336272363853,270.86115540180145 Z" fill="none" stroke="red" /><path d="M 245.75,292.4182389825159 A 127.5,127.5 0 0,1 239.28817232352685,295.9048520117993 L 234.12100383944403,285.6310810460292 A 116.0,116.0 0 0,0 240.0,282.45894683899485 Z" fill="none" stroke="red" /><path d="M 225.60756827402278,301.81080915020334 A 127.5,127.5 0 0,1 218.6384662808383,304.12236809277766 L 215.3338203025666,293.10740940205653 A 116.0,116.0 0 0,0 221.67433662577758,291.00434401116536 Z" fill="none" stroke="red" /><path d="M 204.14014265253363,307.56298850905654 A 127.5,127.5 0 0,1 196.875518980165,308.62925781615695 L 195.53380550352267,297.20779534646437 A 116.0,116.0 0 0,0 202.14318860936393,296.2376993494161 Z" fill="none" stroke="red" /><path d="M 182.0,309.5 A 127.5,127.5 0 0,1 174.66058656265517,309.2885816182886 L 175.32257287269022,297.80765072722727 A 116.0,116.0 0 0,0 182.0,298.0 Z" fill="none" stroke="red" /><path d="M 159.8598573474664,307.56298850905654 A 127.5,127.5 0 0,1 152.6686585085167,306.08030627907874 L 155.3142304861799,294.88874924214224 A 116.0,116.0 0 0,0 161.8568113906361,296.2376993494161 Z" fill="none" stroke="red" /><path d="M 138.39243172597725,301.81080915020334 A 127.5,127.5 0 0,1 131.567948423222,299.1019136212436 L 136.11672170269608,288.5397802357981 A 116.0,116.0 0 0,0 142.32566337422242,291.00434401116536 Z" fill="none" stroke="red" /><path d="M 118.25000000000003,292.41823898251596 A 127.5,127.5 0 0,1 111.99959070523822,288.56543857445445 L 118.31335311221673,278.9536539187194 A 116.0,116.0 0 0,0 124.00000000000003,282.4589468389949 Z" fill="none" stroke="red" /><path d="M 100.04457976496623,279.6706664976697 A 127.5,127.5 0 0,1 94.55816000175953,274.79102660129433 L 102.44507106042435,266.4216398882364 A 116.0,116.0 0 0,0 107.43663727636144,270.86115540180145 Z" fill="none" stroke="red" /><path d="M 84.32933350233031,263.9554202350338 A 127.5,127.5 0 0,1 79.77360535892134,258.19720623937894 L 88.99402526772452,251.32451704916042 A 116.0,116.0 0 0,0 93.13884459819856,256.5633627236386 Z" fill="none" stroke="red" /><path d="M 71.58176101748407,245.75 A 127.5,127.5 0 0,1 68.09514798820071,239.28817232352682 L 78.36891895397085,234.121003839444 A 116.0,116.0 0 0,0 81.54105316100511,240.0 Z" fill="none" stroke="red" /><path d="M 62.18919084979669,225.60756827402278 A 127.5,127.5 0 0,1 59.87763190722234,218.63846628083826 L 70.89259059794345,215.33382030256655 A 116.0,116.0 0 0,0 72.99565598883464,221.67433662577758 Z" fill="none" stroke="red" /><path d="M 56.437011490943476,204.1401426525336 A 127.5,127.5 0 0,1 55.37074218384302,196.87551898016497 L 66.7922046535356,195.53380550352264 A 116.0,116.0 0 0,0 67.76230065058387,202.1431886093639 Z" fill="none" stroke="red" /><path d="M 54.5,182.00000000000003 A 127.5,127.5 0 0,1 54.71141838171138,174.66058656265514 L 66.19234927277272,175.32257287269016 A 116.0,116.0 0 0,0 66.0,182.0 Z" fill="none" stroke="red" /><path d="M 56.437011490943476,159.85985734746637 A 127.5,127.5 0 0,1 57.919693720921245,152.66865850851667 L 69.11125075785776,155.31423048617987 A 116.0,116.0 0 0,0 67.76230065058387,161.85681139063607 Z" fill="none" stroke="red" /><path d="M 62.189190849796674,138.39243172597725 A 127.5,127.5 0 0,1 64.89808637875639,131.56794842322194 L 75.4602197642019,136.11672170269603 A 116.0,116.0 0 0,0 72.99565598883463,142.32566337422244 Z" fill="none" stroke="red" /><path d="M 71.58176101748408,118.24999999999999 A 127.5,127.5 0 0,1 75.43456142554555,111.99959070523819 L 85.04634608128066,118.3133531122167 A 116.0,116.0 0 0,0 81.54105316100512,123.99999999999999 Z" fill="none" stroke="red" /><path d="M 84.3293335023303,100.04457976496624 A 127.5,127.5 0 0,1 89.20897339870567,94.55816000175955 L 97.57836011176359,102.44507106042437 A 116.0,116.0 0 0,0 93.13884459819855,107.43663727636145 Z" fill="none" stroke="red" /><path d="M 100.04457976496622,84.32933350233031 A 127.5,127.5 0 0,1 105.80279376062103,79.77360535892139 L 112.67548295083952,88.99402526772455 A 116.0,116.0 0 0,0 107.43663727636142,93.13884459819856 Z" fill="none" stroke="red" /><path d="M 118.24999999999994,71.5817610174841 A 127.5,127.5 0 0,1 124.71182767647323,68.0951479882007 L 129.87899616055603,78.36891895397083 A 116.0,116.0 0 0,0 123.99999999999994,81.54105316100514 Z" fill="none" stroke="red" /><path d="M 138.39243172597725,62.189190849796674 A 127.5,127.5 0 0,1 145.36153371916174,59.87763190722235 L 148.66617969743342,70.89259059794347 A 116.0,116.0 0 0,0 142.32566337422244,72.99565598883463 Z" fill="none" stroke="red" /><path d="M 159.85985734746637,56.437011490943476 A 127.5,127.5 0 0,1 167.12448101983503,55.370742183843035 L 168.46619449647736,66.79220465353562 A 116.0,116.0 0 0,0 161.8568113906361,67.76230065058387 Z" fill="none" stroke="red" /><path d="M 181.99999999999997,54.5 A 127.5,127.5 0 0,1 189.3394134373448,54.71141838171138 L 188.67742712730978,66.19234927277272 A 116.0,116.0 0 0,0 181.99999999999997,66.0 Z" fill="none" stroke="red" /><path d="M 204.14014265253357,56.43701149094346 A 127.5,127.5 0 0,1 211.33134149148339,57.91969372092126 L 208.68576951382016,69.11125075785777 A 116.0,116.0 0 0,0 202.14318860936388,67.76230065058385 Z" fill="none" stroke="red" /><path d="M 225.6075682740228,62.18919084979669 A 127.5,127.5 0 0,1 232.43205157677806,64.89808637875639 L 227.88327829730395,75.4602197642019 A 116.0,116.0 0 0,0 221.6743366257776,72.99565598883464 Z" fill="none" stroke="red" /><path d="M 245.75,71.58176101748408 A 127.5,127.5 0 0,1 252.00040929476182,75.43456142554555 L 245.6866468877833,85.04634608128066 A 116.0,116.0 0 0,0 240.0,81.54105316100512 Z" fill="none" stroke="red" /><path d="M 263.9554202350338,84.32933350233029 A 127.5,127.5 0 0,1 269.4418399982404,89.20897339870565 L 261.55492893957563,97.57836011176357 A 116.0,116.0 0 0,0 256.56336272363853,93.13884459819853 Z" fill="none" stroke="red" /><path d="M 279.6706664976697,100.0445797649662 A 127.5,127.5 0 0,1 284.2263946410787,105.80279376062111 L 275.0059747322755,112.6754829508396 A 116.0,116.0 0 0,0 270.8611554018014,107.43663727636141 Z" fill="none" stroke="red" /><path d="M 292.4182389825159,118.24999999999994 A 127.5,127.5 0 0,1 295.90485201179933,124.71182767647322 L 285.6310810460292,129.87899616055603 A 116.0,116.0 0 0,0 282.45894683899485,123.99999999999994 Z" fill="none" stroke="red" /><path d="M 301.81080915020334,138.39243172597725 A 127.5,127.5 0 0,1 304.12236809277766,145.36153371916174 L 293.10740940205653,148.66617969743342 A 116.0,116.0 0 0,0 291.00434401116536,142.32566337422244 Z" fill="none" stroke="red" /><path d="M 307.56298850905654,159.85985734746637 A 127.5,127.5 0 0,1 308.62925781615695,167.124481019835 L 297.20779534646437,168.46619449647733 A 116.0,116.0 0 0,0 296.2376993494161,161.85681139063607 Z" fill="none" stroke="red" /><path d="M 323.0,182.0 A 141.0,141.0 0 0,1 322.8106089277396,189.30564257263978 L 311.3260557173212,188.70979229189257 A 129.5,129.5 0 0,0 311.5,182.0 Z" fill="none" stroke="red" /><path d="M 321.26405602391446,204.05725957067256 A 141.0,141.0 0 0,1 319.93414238240405,211.2433302691519 L 308.684194599442,208.85823595641963 A 129.5,129.5 0 0,0 309.9056401070703,202.2582632227099 Z" fill="none" stroke="red" /><path d="M 316.09896879761664,225.57139620686758 A 141.0,141.0 0 0,1 313.6612794744405,232.46095012138858 L 302.92294816978756,228.34534071432498 A 129.5,129.5 0 0,0 305.1618188602224,222.0177007715557 Z" fill="none" stroke="red" /><path d="M 307.6319199105599,246.0126604632761 A 141.0,141.0 0 0,1 304.14647890708164,252.43605391134474 L 294.1841774359367,246.6912693724762 A 129.5,129.5 0 0,0 297.3853448823936,240.7917697162713 Z" fill="none" stroke="red" /><path d="M 296.0713962068676,264.8777205732387 A 141.0,141.0 0 0,1 291.6240266481084,270.6767882901429 L 282.683059935674,263.44428428066317 A 129.5,129.5 0 0,0 286.7677007715557,258.11819017187526 Z" fill="none" stroke="red" /><path d="M 281.7020561473032,281.7020561473032 A 141.0,141.0 0 0,1 276.402267031773,286.7340058398504 L 268.7027913518766,278.1918706117775 A 129.5,129.5 0 0,0 273.5703281636579,273.5703281636579 Z" fill="none" stroke="red" /><path d="M 264.8777205732387,296.0713962068676 A 141.0,141.0 0 0,1 258.85601029795356,300.21232457354375 L 252.58761229492896,290.5708938459143 A 129.5,129.5 0 0,0 258.11819017187526,286.7677007715557 Z" fill="none" stroke="red" /><path d="M 246.01266046327612,307.6319199105599 A 141.0,141.0 0 0,1 239.41730352012408,310.7798635520241 L 234.73433195642602,300.27654134742636 A 129.5,129.5 0 0,0 240.79176971627132,297.3853448823936 Z" fill="none" stroke="red" /><path d="M 225.57139620686758,316.09896879761664 A 141.0,141.0 0 0,1 218.56479217252388,318.1764148939901 L 215.58255734994216,307.06982786362926 A 129.5,129.5 0 0,0 222.0177007715557,305.1618188602224 Z" fill="none" stroke="red" /><path d="M 204.05725957067256,321.26405602391446 A 141.0,141.0 0 0,1 196.81193429004833,322.2198509576561 L 195.60386872738482,310.78348013486857 A 129.5,129.5 0 0,0 202.2582632227099,309.9056401070703 Z" fill="none" stroke="red" /><path d="M 182.0,323.0 A 141.0,141.0 0 0,1 174.69435742736022,322.8106089277396 L 175.29020770810743,311.3260557173212 A 129.5,129.5 0 0,0 182.0,311.5 Z" fill="none" stroke="red" /><path d="M 159.94274042932744,321.26405602391446 A 141.0,141.0 0 0,1 152.7566697308481,319.93414238240405 L 155.14176404358037,308.684194599442 A 129.5,129.5 0 0,0 161.7417367772901,309.9056401070703 Z" fill="none" stroke="red" /><path d="M 138.42860379313242,316.09896879761664 A 141.0,141.0 0 0,1 131.5390498786114,313.6612794744405 L 135.654659285675,302.92294816978756 A 129.5,129.5 0 0,0 141.98229922844433,305.1618188602224 Z" fill="none" stroke="red" /><path d="M 117.98733953672391,307.6319199105599 A 141.0,141.0 0 0,1 111.56394608865529,304.14647890708164 L 117.30873062752383,294.1841774359367 A 129.5,129.5 0 0,0 123.2082302837287,297.3853448823936 Z" fill="none" stroke="red" /><path d="M 99.12227942676131,296.0713962068676 A 141.0,141.0 0 0,1 93.32321170985712,291.6240266481084 L 100.55571571933686,282.683059935674 A 129.5,129.5 0 0,0 105.88180982812474,286.7677007715557 Z" fill="none" stroke="red" /><path d="M 82.2979438526968,281.7020561473032 A 141.0,141.0 0 0,1 77.26599416014959,276.402267031773 L 85.8081293882225,268.7027913518766 A 129.5,129.5 0 0,0 90.42967183634211,273.5703281636579 Z" fill="none" stroke="red" /><path d="M 67.92860379313242,264.8777205732387 A 141.0,141.0 0 0,1 63.787675426456246,258.85601029795356 L 73.4291061540857,252.587612294929 A 129.5,129.5 0 0,0 77.23229922844432,258.1181901718753 Z" fill="none" stroke="red" /><path d="M 56.36808008944014,246.01266046327612 A 141.0,141.0 0 0,1 53.220136447975904,239.4173035201241 L 63.723458652573626,234.73433195642605 A 129.5,129.5 0 0,0 66.61465511760638,240.79176971627132 Z" fill="none" stroke="red" /><path d="M 47.901031202383365,225.5713962068676 A 141.0,141.0 0 0,1 45.82358510600989,218.56479217252394 L 56.930172136370786,215.5825573499422 A 129.5,129.5 0 0,0 58.83818113977762,222.0177007715557 Z" fill="none" stroke="red" /><path d="M 42.73594397608559,204.05725957067256 A 141.0,141.0 0 0,1 41.78014904234391,196.81193429004838 L 53.21651986513146,195.60386872738485 A 129.5,129.5 0 0,0 54.094359892929674,202.2582632227099 Z" fill="none" stroke="red" /><path d="M 41.0,182.00000000000003 A 141.0,141.0 0 0,1 41.18939107226035,174.69435742736027 L 52.67394428267883,175.29020770810746 A 129.5,129.5 0 0,0 52.5,182.00000000000003 Z" fill="none" stroke="red" /><path d="M 42.735943976085565,159.94274042932747 A 141.0,141.0 0 0,1 44.06585761759598,152.75666973084816 L 55.315805400558006,155.1417640435804 A 129.5,129.5 0 0,0 54.09435989292966,161.74173677729013 Z" fill="none" stroke="red" /><path d="M 47.90103120238334,138.42860379313242 A 141.0,141.0 0 0,1 50.33872052555947,131.53904987861142 L 61.077051830212426,135.65465928567505 A 129.5,129.5 0 0,0 58.8381811397776,141.98229922844433 Z" fill="none" stroke="red" /><path d="M 56.36808008944013,117.98733953672392 A 141.0,141.0 0 0,1 59.853521092918356,111.56394608865529 L 69.81582256406331,117.30873062752383 A 129.5,129.5 0 0,0 66.61465511760636,123.20823028372871 Z" fill="none" stroke="red" /><path d="M 67.92860379313241,99.12227942676131 A 141.0,141.0 0 0,1 72.3759733518916,93.32321170985712 L 81.31694006432598,100.55571571933686 A 129.5,129.5 0 0,0 77.2322992284443,105.88180982812474 Z" fill="none" stroke="red" /><path d="M 82.29794385269678,82.2979438526968 A 141.0,141.0 0 0,1 87.59773296822698,77.26599416014959 L 95.29720864812336,85.8081293882225 A 129.5,129.5 0 0,0 90.42967183634208,90.42967183634211 Z" fill="none" stroke="red" /><path d="M 99.12227942676127,67.92860379313242 A 141.0,141.0 0 0,1 105.1439897020465,63.78767542645622 L 111.41238770507107,73.42910615408567 A 129.5,129.5 0 0,0 105.88180982812472,77.23229922844432 Z" fill="none" stroke="red" /><path d="M 117.98733953672388,56.36808008944014 A 141.0,141.0 0 0,1 124.58269647987595,53.220136447975875 L 129.265668043574,63.7234586525736 A 129.5,129.5 0 0,0 123.20823028372868,66.61465511760638 Z" fill="none" stroke="red" /><path d="M 138.4286037931324,47.901031202383365 A 141.0,141.0 0 0,1 145.43520782747612,45.82358510600986 L 148.41744265005786,56.93017213637077 A 129.5,129.5 0 0,0 141.98229922844428,58.83818113977762 Z" fill="none" stroke="red" /><path d="M 159.94274042932742,42.73594397608559 A 141.0,141.0 0 0,1 167.18806570995167,41.78014904234391 L 168.3961312726152,53.21651986513146 A 129.5,129.5 0 0,0 161.74173677729007,54.094359892929674 Z" fill="none" stroke="red" /><path d="M 181.99999999999997,41.0 A 141.0,141.0 0 0,1 189.30564257263978,41.18939107226035 L 188.70979229189257,52.67394428267883 A 129.5,129.5 0 0,0 181.99999999999997,52.5 Z" fill="none" stroke="red" /><path d="M 204.05725957067253,42.735943976085565 A 141.0,141.0 0 0,1 211.2433302691519,44.06585761759598 L 208.85823595641966,55.315805400558006 A 129.5,129.5 0 0,0 202.25826322270987,54.09435989292966 Z" fill="none" stroke="red" /><path d="M 225.57139620686758,47.90103120238334 A 141.0,141.0 0 0,1 232.4609501213886,50.338720525559495 L 228.345340714325,61.07705183021244 A 129.5,129.5 0 0,0 222.01770077155567,58.8381811397776 Z" fill="none" stroke="red" /><path d="M 246.01266046327606,56.36808008944011 A 141.0,141.0 0 0,1 252.43605391134474,59.853521092918385 L 246.6912693724762,69.81582256406334 A 129.5,129.5 0 0,0 240.7917697162713,66.61465511760635 Z" fill="none" stroke="red" /><path d="M 264.87772057323866,67.9286037931324 A 141.0,141.0 0 0,1 270.6767882901429,72.37597335189164 L 263.44428428066317,81.31694006432602 A 129.5,129.5 0 0,0 258.11819017187526,77.23229922844429 Z" fill="none" stroke="red" /><path d="M 281.7020561473032,82.29794385269678 A 141.0,141.0 0 0,1 286.73400583985045,87.597732968227 L 278.1918706117775,95.29720864812339 A 129.5,129.5 0 0,0 273.5703281636579,90.42967183634208 Z" fill="none" stroke="red" /><path d="M 296.0713962068676,99.12227942676125 A 141.0,141.0 0 0,1 300.2123245735438,105.1439897020465 L 290.5708938459143,111.41238770507107 A 129.5,129.5 0 0,0 286.76770077155567,105.8818098281247 Z" fill="none" stroke="red" /><path d="M 307.6319199105599,117.98733953672388 A 141.0,141.0 0 0,1 310.77986355202415,124.58269647987593 L 300.2765413474264,129.265668043574 A 129.5,129.5 0 0,0 297.3853448823936,123.20823028372867 Z" fill="none" stroke="red" /><path d="M 316.09896879761664,138.42860379313237 A 141.0,141.0 0 0,1 318.1764148939901,145.43520782747612 L 307.06982786362926,148.41744265005786 A 129.5,129.5 0 0,0 305.1618188602224,141.98229922844428 Z" fill="none" stroke="red" /><path d="M 321.2640560239144,159.94274042932742 A 141.0,141.0 0 0,1 322.2198509576561,167.18806570995167 L 310.78348013486857,168.39613127261518 A 129.5,129.5 0 0,0 309.9056401070703,161.74173677729007 Z" fill="none" stroke="red" /><path d="M 336.5,182.0 A 154.5,154.5 0 0,1 336.33602250807144,189.11633026131167 L 324.8482279524545,188.58663577584187 A 143.0,143.0 0 0,0 325.0,182.0 Z" fill="none" stroke="red" /><path d="M 334.99641662057263,203.5022440983301 A 154.5,154.5 0 0,1 333.8436331964008,210.52649746668706 L 322.5413562918143,208.40316594004045 A 143.0,143.0 0 0,0 323.60833383004456,201.90175343728936 Z" fill="none" stroke="red" /><path d="M 330.51493202247025,224.58597147372637 A 154.5,154.5 0 0,1 328.39578028413484,231.3814288472833 L 317.4990069943773,227.70578851237227 A 143.0,143.0 0 0,0 319.4604225191796,221.41614188183087 Z" fill="none" stroke="red" /><path d="M 323.14277320578185,244.84081135521114 A 154.5,154.5 0 0,1 320.09850003137024,251.27520688591 L 309.8193236536307,246.1187999008746 A 143.0,143.0 0 0,0 312.6370004428919,240.16333995983942 Z" fill="none" stroke="red" /><path d="M 313.0234308561678,263.87252632403016 A 154.5,154.5 0 0,1 309.11328956021055,269.8206218218823 L 299.65178257029197,263.2838117833603 A 143.0,143.0 0 0,0 303.2708777503689,257.7784547853483 Z" fill="none" stroke="red" /><path d="M 300.3538664618821,281.3106856965703 A 154.5,154.5 0 0,1 295.65396349698517,286.6567082485684 L 287.1942833661416,278.86672672844844 A 143.0,143.0 0 0,0 291.54435536601386,273.9186281851751 Z" fill="none" stroke="red" /><path d="M 285.3806786824436,296.8158755362574 A 154.5,154.5 0 0,1 279.9824923137583,301.4557708944373 L 272.6892970929931,292.56424102203584 A 143.0,143.0 0 0,0 277.68567670931674,288.26971004326737 Z" fill="none" stroke="red" /><path d="M 268.3953035862304,310.086304959754 A 154.5,154.5 0 0,1 262.4039033710772,313.92976283877147 L 256.419146809476,304.10974812908944 A 143.0,143.0 0 0,0 261.96458519631676,300.55237287537096 Z" fill="none" stroke="red" /><path d="M 249.72834217891247,320.8636801532213 A 154.5,154.5 0 0,1 243.26034390736262,323.83589201732985 L 238.70051248383726,313.2785278865901 A 143.0,143.0 0 0,0 244.6870739908381,310.52754862078086 Z" fill="none" stroke="red" /><path d="M 229.7431256309294,328.9382317676012 A 154.5,154.5 0 0,1 222.92442153209964,330.98134689370687 L 219.87826717857766,319.8921204258905 A 143.0,143.0 0 0,0 226.1894301956175,318.00108183020694 Z" fill="none" stroke="red" /><path d="M 208.82864344954075,334.15279784038614 A 154.5,154.5 0 0,1 201.79195184255383,335.22704931656824 L 200.31876448857733,323.8217996910631 A 143.0,143.0 0 0,0 206.83168940637105,322.8275086807457 Z" fill="none" stroke="red" /><path d="M 187.3919722405364,336.40588277445033 A 154.5,154.5 0 0,1 180.27425432340428,336.49036151766785 L 180.40270788509264,324.9910789451553 A 143.0,143.0 0 0,0 186.99062802845765,324.9128882637307 Z" fill="none" stroke="red" /><path d="M 165.85035242514752,335.6536328343982 A 154.5,154.5 0 0,1 158.79014648084305,334.74669456200775 L 160.51774075573175,323.3771994975217 A 143.0,143.0 0 0,0 167.05242975272554,324.2166310376631 Z" fill="none" stroke="red" /><path d="M 144.62306712985134,331.9106897096415 A 154.5,154.5 0 0,1 137.7577920362151,330.0299869434879 L 141.05090136685283,319.01157367584966 A 143.0,143.0 0 0,0 147.4051689292475,320.75228885746753 Z" fill="none" stroke="red" /><path d="M 124.12328131724158,325.24990553056864 A 154.5,154.5 0 0,1 117.58656184483664,322.4320440107276 L 122.38108960395883,311.9791734209324 A 143.0,143.0 0 0,0 128.43125714152458,314.5872912030506 Z" fill="none" stroke="red" /><path d="M 104.75000000000003,315.80092488469575 A 154.5,154.5 0 0,1 98.6690659579484,312.100751080381 L 104.87169211641827,302.416876404495 A 143.0,143.0 0 0,0 110.50000000000003,305.84163274117475 Z" fill="none" stroke="red" /><path d="M 86.88030206218579,303.74766143223854 A 154.5,154.5 0 0,1 81.37351191465622,299.23719501766567 L 88.86350940968181,290.5108018610109 A 143.0,143.0 0 0,0 93.96040902843086,294.68553776576124 Z" fill="none" stroke="red" /><path d="M 70.86200084767837,289.32471823591504 A 154.5,154.5 0 0,1 66.03653800101155,284.0917503092643 L 74.66812255109807,276.49268798850994 A 143.0,143.0 0 0,0 79.13440855157286,281.3361469756366 Z" fill="none" stroke="red" /><path d="M 57.00687436907063,272.8128214791871 A 154.5,154.5 0 0,1 52.956660968694194,266.9592058087378 L 62.56182859885611,260.63538142815213 A 143.0,143.0 0 0,0 66.31056980438252,266.0532910778237 Z" fill="none" stroke="red" /><path d="M 45.58459690329579,254.53335645042011 A 154.5,154.5 0 0,1 42.388465745998644,248.17302700680847 L 52.7802627940311,243.24752661471592 A 143.0,143.0 0 0,0 55.73849422117344,249.13443347838236 Z" fill="none" stroke="red" /><path d="M 36.81749008857716,234.84211214381583 A 154.5,154.5 0 0,1 34.53765023179079,228.09886550489426 L 45.51381218864779,224.66755836375327 A 143.0,143.0 0 0,0 47.62395522761511,230.90888049557066 Z" fill="none" stroke="red" /><path d="M 30.876195686627028,214.12235623134382 A 154.5,154.5 0 0,1 29.55702161988438,207.12744202260956 L 40.90390997827487,205.2571146228684 A 143.0,143.0 0 0,0 42.12489309506577,211.73137178693958 Z" fill="none" stroke="red" /><path d="M 27.87635423485716,192.7773751934674 A 154.5,154.5 0 0,1 27.543522180829115,185.66694146339645 L 39.04028266575122,185.3939976004252 A 143.0,143.0 0 0,0 39.34834081284515,191.97517574540996 Z" fill="none" stroke="red" /><path d="M 27.87635423485716,171.22262480653265 A 154.5,154.5 0 0,1 28.536342390884556,164.1350680596824 L 39.959203636870484,165.46482027530476 A 143.0,143.0 0 0,0 39.34834081284515,172.0248242545901 Z" fill="none" stroke="red" /><path d="M 30.876195686627028,149.87764376865616 A 154.5,154.5 0 0,1 32.516158133978166,142.95091523512778 L 43.6427871401869,145.85748141503737 A 143.0,143.0 0 0,0 42.1248930950658,152.2686282130604 Z" fill="none" stroke="red" /><path d="M 36.81749008857716,129.15788785618417 A 154.5,154.5 0 0,1 39.405506823643975,122.52680842784578 L 50.01933641282258,126.95361556752069 A 143.0,143.0 0 0,0 47.623955227615085,133.09111950442937 Z" fill="none" stroke="red" /><path d="M 45.58459690329579,109.46664354957986 A 154.5,154.5 0 0,1 49.07029512415565,103.26027964476303 L 58.96473917640296,109.12116497864798 A 143.0,143.0 0 0,0 55.738494221173454,114.86556652161761 Z" fill="none" stroke="red" /><path d="M 57.006874369070616,91.18717852081292 A 154.5,154.5 0 0,1 61.322408924777406,85.5263299532906 L 70.30488334137974,92.70721801501978 A 143.0,143.0 0 0,0 66.31056980438251,97.94670892217636 Z" fill="none" stroke="red" /><path d="M 70.8620008476784,74.67528176408493 A 154.5,154.5 0 0,1 75.92337476695312,69.67013051210414 L 83.8190459008045,78.03125348369508 A 143.0,143.0 0 0,0 79.13440855157289,82.66385302436339 Z" fill="none" stroke="red" /><path d="M 86.88030206218583,60.25233856776143 A 154.5,154.5 0 0,1 92.58900145891725,56.000304207166835 L 99.24418905259009,65.37892234061397 A 143.0,143.0 0 0,0 93.9604090284309,69.31446223423873 Z" fill="none" stroke="red" /><path d="M 104.74999999999993,48.199075115304254 A 154.5,154.5 0 0,1 110.99491153398004,44.78291865830741 L 116.28007993112716,54.99648781966317 A 143.0,143.0 0 0,0 110.49999999999994,58.158367258825294 Z" fill="none" stroke="red" /><path d="M 124.12328131724155,38.75009446943136 A 154.5,154.5 0 0,1 130.78285488894298,36.236307515647354 L 134.59513429850387,47.086032198948686 A 143.0,143.0 0 0,0 128.43125714152455,49.4127087969494 Z" fill="none" stroke="red" /><path d="M 144.62306712985134,32.089310290358554 A 154.5,154.5 0 0,1 151.5676817148536,30.52682084345247 L 153.83287045452468,41.80152349911782 A 143.0,143.0 0 0,0 147.4051689292475,43.247711142532495 Z" fill="none" stroke="red" /><path d="M 165.85035242514755,28.346367165601748 A 154.5,154.5 0 0,1 172.94483899993557,27.765587305352284 L 173.6188477475132,39.24581867097331 A 143.0,143.0 0 0,0 167.05242975272557,39.78336896233691 Z" fill="none" stroke="red" /><path d="M 187.39197224053646,27.594117225549695 A 154.5,154.5 0 0,1 194.49824469379087,28.006351171309262 L 193.56795463567698,39.46866160192377 A 143.0,143.0 0 0,0 186.99062802845768,39.08711173626929 Z" fill="none" stroke="red" /><path d="M 208.8286434495407,29.847202159613857 A 154.5,154.5 0 0,1 215.80838627122398,31.24442624653736 L 213.29190444521055,42.465714907798315 A 143.0,143.0 0 0,0 206.831689406371,41.17249131925425 Z" fill="none" stroke="red" /><path d="M 229.74312563092934,35.06176823239878 A 154.5,154.5 0 0,1 236.46048606635728,37.416787082953135 L 232.406792928732,48.1786443550958 A 143.0,143.0 0 0,0 226.18943019561746,45.99891816979303 Z" fill="none" stroke="red" /><path d="M 249.72834217891244,43.13631984677869 A 154.5,154.5 0 0,1 256.05257444809365,46.403295697832135 L 250.54057052477276,56.49625427048541 A 143.0,143.0 0 0,0 244.68707399083806,53.47245137921911 Z" fill="none" stroke="red" /><path d="M 268.3953035862304,53.91369504024607 A 154.5,154.5 0 0,1 274.2033137017528,58.02903992298778 L 267.34028387929226,67.25665183810518 A 143.0,143.0 0 0,0 261.9645851963168,63.44762712462905 Z" fill="none" stroke="red" /><path d="M 285.38067868244354,67.18412446374253 A 154.5,154.5 0 0,1 290.5594203339221,72.06773787116535 L 282.47894568123536,80.25039815907213 A 143.0,143.0 0 0,0 277.6856767093167,75.73028995673258 Z" fill="none" stroke="red" /><path d="M 300.35386646188203,82.68931430342964 A 154.5,154.5 0 0,1 304.80254133380214,88.24614225558598 L 295.66189909860003,95.22458474141615 A 143.0,143.0 0 0,0 291.5443553660138,90.08137181482483 Z" fill="none" stroke="red" /><path d="M 313.0234308561678,100.12747367596982 A 154.5,154.5 0 0,1 316.65545055244,106.24935883756909 L 306.6325529385044,111.88775607619664 A 143.0,143.0 0 0,0 303.27087775036887,106.22154521465168 Z" fill="none" stroke="red" /><path d="M 323.14277320578185,119.15918864478888 A 154.5,154.5 0 0,1 325.88744459437953,125.72697548470171 L 315.17737590288846,129.91558248745855 A 143.0,143.0 0 0,0 312.6370004428919,123.83666004016058 Z" fill="none" stroke="red" /><path d="M 330.51493202247025,139.41402852627365 A 154.5,154.5 0 0,1 332.31883319683175,146.29988254440795 L 321.1300527323427,148.95717284045526 A 143.0,143.0 0 0,0 319.4604225191796,142.58385811816916 Z" fill="none" stroke="red" /><path d="M 334.99641662057263,160.49775590166982 A 154.5,154.5 0 0,1 335.82443669624615,167.56765178210543 L 324.37472134345114,168.64190423845358 A 143.0,143.0 0 0,0 323.60833383004456,162.09824656271059 Z" fill="none" stroke="red" /><path d="M 350.0,182.0 A 168.0,168.0 0 0,1 349.8432827165519,189.25482232253918 L 338.35401038774035,188.75821246117488 A 156.5,156.5 0 0,0 338.5,182.0 Z" fill="none" stroke="red" /><path d="M 348.56273671080015,203.92840029296866 A 168.0,168.0 0 0,1 347.46041583244306,211.1007008945666 L 336.13425641534127,209.10868863095044 A 156.5,156.5 0 0,0 337.16112080500136,202.42734908243807 Z" fill="none" stroke="red" /><path d="M 344.2755388165635,225.48159957722348 A 168.0,168.0 0 0,1 342.2464753591471,232.44865840604945 L 331.27722258158644,228.995327622302 A 156.5,156.5 0 0,0 333.1673918142392,222.5051805585445 Z" fill="none" stroke="red" /><path d="M 337.2117614618962,246.29081663733507 A 168.0,168.0 0 0,1 334.29067326373956,252.9334253851942 L 323.86601408199556,248.0778635284696 A 156.5,156.5 0 0,0 326.58714683801634,241.88995716513654 Z" fill="none" stroke="red" /><path d="M 327.4922678357857,266.0 A 168.0,168.0 0 0,1 323.72913552583805,272.20450178953735 L 314.0274387487717,266.0297888694202 A 156.5,156.5 0 0,0 317.5329756922647,260.25 Z" fill="none" stroke="red" /><path d="M 315.2833611689275,284.2719200734651 A 168.0,168.0 0 0,1 310.7425729843493,289.93215415884873 L 301.9298373336349,282.5439412253561 A 156.5,156.5 0 0,0 306.1597977555783,277.27116363986477 Z" fill="none" stroke="red" /><path d="M 300.79393923934,300.79393923934 A 168.0,168.0 0 0,1 295.5531893249137,305.8130574460557 L 287.7802031508869,297.33775887087927 A 156.5,156.5 0 0,0 292.66221125569473,292.66221125569473 Z" fill="none" stroke="red" /><path d="M 284.2719200734651,315.2833611689275 A 168.0,168.0 0 0,1 278.420879113237,319.57548499289595 L 271.8206403644142,310.1581154844537 A 156.5,156.5 0 0,0 277.27116363986477,306.1597977555783 Z" fill="none" stroke="red" /><path d="M 266.0,327.4922678357857 A 168.0,168.0 0 0,1 259.63878092701464,330.98395784837714 L 254.32422151832014,320.7856512099466 A 156.5,156.5 0 0,0 260.25,317.53297569226464 Z" fill="none" stroke="red" /><path d="M 246.2908166373351,337.2117614618962 A 168.0,168.0 0 0,1 239.52826167359433,339.8432738789159 L 235.59031518998518,329.03852596458535 A 156.5,156.5 0 0,0 241.88995716513656,326.58714683801634 Z" fill="none" stroke="red" /><path d="M 225.48159957722348,344.2755388165635 A 168.0,168.0 0 0,1 218.4334179130914,346.00184773096316 L 215.93946371070717,334.7755307731889 A 156.5,156.5 0 0,0 222.5051805585445,333.1673918142392 Z" fill="none" stroke="red" /><path d="M 203.9284002929687,348.56273671080015 A 168.0,168.0 0 0,1 196.71518827084367,349.3543044984312 L 195.70789859754188,337.8985038928838 A 156.5,156.5 0 0,0 202.4273490824381,337.16112080500136 Z" fill="none" stroke="red" /><path d="M 182.0,350.0 A 168.0,168.0 0 0,1 174.74517767746084,349.8432827165519 L 175.24178753882512,338.35401038774035 A 156.5,156.5 0 0,0 182.0,338.5 Z" fill="none" stroke="red" /><path d="M 160.07159970703134,348.56273671080015 A 168.0,168.0 0 0,1 152.89929910543344,347.46041583244306 L 154.89131136904962,336.13425641534127 A 156.5,156.5 0 0,0 161.57265091756193,337.16112080500136 Z" fill="none" stroke="red" /><path d="M 138.5184004227765,344.2755388165635 A 168.0,168.0 0 0,1 131.55134159395058,342.2464753591471 L 135.00467237769803,331.27722258158644 A 156.5,156.5 0 0,0 141.4948194414555,333.1673918142392 Z" fill="none" stroke="red" /><path d="M 117.70918336266493,337.2117614618962 A 168.0,168.0 0 0,1 111.06657461480582,334.29067326373956 L 115.92213647153042,323.86601408199556 A 156.5,156.5 0 0,0 122.11004283486346,326.58714683801634 Z" fill="none" stroke="red" /><path d="M 98.00000000000004,327.4922678357857 A 168.0,168.0 0 0,1 91.79549821046271,323.72913552583805 L 97.97021113057984,314.0274387487717 A 156.5,156.5 0 0,0 103.75000000000003,317.5329756922647 Z" fill="none" stroke="red" /><path d="M 79.72807992653493,315.2833611689275 A 168.0,168.0 0 0,1 74.06784584115125,310.7425729843493 L 81.45605877464388,301.9298373336349 A 156.5,156.5 0 0,0 86.72883636013522,306.1597977555783 Z" fill="none" stroke="red" /><path d="M 63.20606076066002,300.79393923934 A 168.0,168.0 0 0,1 58.186942553944306,295.5531893249138 L 66.66224112912073,287.7802031508869 A 156.5,156.5 0 0,0 71.33778874430533,292.66221125569473 Z" fill="none" stroke="red" /><path d="M 48.716638831072515,284.27192007346514 A 168.0,168.0 0 0,1 44.42451500710408,278.42087911323705 L 53.84188451554638,271.82064036441426 A 156.5,156.5 0 0,0 57.84020224442172,277.2711636398648 Z" fill="none" stroke="red" /><path d="M 36.5077321642143,266.0 A 168.0,168.0 0 0,1 33.01604215162283,259.63878092701464 L 43.21434879005341,254.32422151832017 A 156.5,156.5 0 0,0 46.46702430773533,260.25 Z" fill="none" stroke="red" /><path d="M 26.788238538103826,246.2908166373351 A 168.0,168.0 0 0,1 24.15672612108409,239.52826167359433 L 34.96147403541465,235.59031518998518 A 156.5,156.5 0 0,0 37.412853161983634,241.88995716513656 Z" fill="none" stroke="red" /><path d="M 19.724461183436546,225.48159957722353 A 168.0,168.0 0 0,1 17.998152269036837,218.43341791309143 L 29.224469226811095,215.93946371070717 A 156.5,156.5 0 0,0 30.83260818576082,222.50518055854454 Z" fill="none" stroke="red" /><path d="M 15.437263289199848,203.92840029296866 A 168.0,168.0 0 0,1 14.64569550156881,196.71518827084364 L 26.10149610711619,195.70789859754186 A 156.5,156.5 0 0,0 26.83887919499867,202.42734908243807 Z" fill="none" stroke="red" /><path d="M 14.0,182.00000000000003 A 168.0,168.0 0 0,1 14.156717283448046,174.74517767746084 L 25.645989612259626,175.24178753882515 A 156.5,156.5 0 0,0 25.5,182.00000000000003 Z" fill="none" stroke="red" /><path d="M 15.437263289199848,160.07159970703137 A 168.0,168.0 0 0,1 16.53958416755694,152.89929910543344 L 27.865743584658702,154.89131136904962 A 156.5,156.5 0 0,0 26.83887919499867,161.57265091756196 Z" fill="none" stroke="red" /><path d="M 19.724461183436517,138.5184004227765 A 168.0,168.0 0 0,1 21.753524640852902,131.55134159395058 L 32.722777418413585,135.004672377698 A 156.5,156.5 0 0,0 30.83260818576082,141.4948194414555 Z" fill="none" stroke="red" /><path d="M 26.788238538103798,117.70918336266493 A 168.0,168.0 0 0,1 29.709326736260408,111.06657461480583 L 40.13398591800447,115.92213647153044 A 156.5,156.5 0 0,0 37.412853161983605,122.11004283486346 Z" fill="none" stroke="red" /><path d="M 36.5077321642143,97.99999999999999 A 168.0,168.0 0 0,1 40.27086447416198,91.79549821046272 L 49.97256125122826,97.97021113057986 A 156.5,156.5 0 0,0 46.46702430773536,103.74999999999999 Z" fill="none" stroke="red" /><path d="M 48.71663883107249,79.72807992653493 A 168.0,168.0 0 0,1 53.25742701565068,74.06784584115127 L 62.07016266636508,81.45605877464389 A 156.5,156.5 0 0,0 57.84020224442169,86.72883636013522 Z" fill="none" stroke="red" /><path d="M 63.206060760659994,63.20606076066002 A 168.0,168.0 0 0,1 68.44681067508623,58.186942553944306 L 76.21979684911307,66.66224112912073 A 156.5,156.5 0 0,0 71.33778874430529,71.33778874430533 Z" fill="none" stroke="red" /><path d="M 79.72807992653489,48.716638831072544 A 168.0,168.0 0 0,1 85.57912088676301,44.42451500710405 L 92.17935963558578,53.841884515546326 A 156.5,156.5 0 0,0 86.72883636013518,57.84020224442173 Z" fill="none" stroke="red" /><path d="M 97.99999999999993,36.50773216421433 A 168.0,168.0 0 0,1 104.36121907298536,33.01604215162283 L 109.67577848167981,43.21434879005341 A 156.5,156.5 0 0,0 103.74999999999993,46.467024307735386 Z" fill="none" stroke="red" /><path d="M 117.70918336266496,26.788238538103798 A 168.0,168.0 0 0,1 124.47173832640567,24.15672612108409 L 128.4096848100148,34.96147403541465 A 156.5,156.5 0 0,0 122.11004283486349,37.412853161983605 Z" fill="none" stroke="red" /><path d="M 138.51840042277655,19.724461183436517 A 168.0,168.0 0 0,1 145.5665820869087,17.998152269036808 L 148.06053628929294,29.224469226811067 A 156.5,156.5 0 0,0 141.49481944145552,30.83260818576082 Z" fill="none" stroke="red" /><path d="M 160.07159970703134,15.437263289199848 A 168.0,168.0 0 0,1 167.28481172915642,14.64569550156881 L 168.2921014024582,26.101496107116162 A 156.5,156.5 0 0,0 161.57265091756193,26.83887919499867 Z" fill="none" stroke="red" /><path d="M 181.99999999999997,14.0 A 168.0,168.0 0 0,1 189.2548223225392,14.156717283448046 L 188.75821246117494,25.645989612259626 A 156.5,156.5 0 0,0 181.99999999999997,25.5 Z" fill="none" stroke="red" /><path d="M 203.9284002929686,15.437263289199848 A 168.0,168.0 0 0,1 211.10070089456661,16.53958416755694 L 209.10868863095044,27.865743584658702 A 156.5,156.5 0 0,0 202.427349082438,26.83887919499867 Z" fill="none" stroke="red" /><path d="M 225.4815995772234,19.724461183436517 A 168.0,168.0 0 0,1 232.44865840604942,21.753524640852902 L 228.995327622302,32.72277741841356 A 156.5,156.5 0 0,0 222.50518055854442,30.83260818576079 Z" fill="none" stroke="red" /><path d="M 246.29081663733513,26.788238538103855 A 168.0,168.0 0 0,1 252.93342538519428,29.709326736260465 L 248.07786352846966,40.13398591800453 A 156.5,156.5 0 0,0 241.8899571651366,37.412853161983634 Z" fill="none" stroke="red" /><path d="M 266.0,36.5077321642143 A 168.0,168.0 0 0,1 272.2045017895374,40.27086447416204 L 266.02978886942026,49.97256125122834 A 156.5,156.5 0 0,0 260.25,46.46702430773536 Z" fill="none" stroke="red" /><path d="M 284.271920073465,48.71663883107249 A 168.0,168.0 0 0,1 289.9321541588488,53.257427015650734 L 282.54394122535615,62.07016266636511 A 156.5,156.5 0 0,0 277.27116363986477,57.84020224442169 Z" fill="none" stroke="red" /><path d="M 300.7939392393399,63.206060760659994 A 168.0,168.0 0 0,1 305.8130574460557,68.44681067508628 L 297.3377588708793,76.21979684911312 A 156.5,156.5 0 0,0 292.6622112556947,71.33778874430529 Z" fill="none" stroke="red" /><path d="M 315.28336116892746,79.72807992653487 A 168.0,168.0 0 0,1 319.57548499289595,85.57912088676301 L 310.1581154844537,92.17935963558578 A 156.5,156.5 0 0,0 306.15979775557827,86.72883636013516 Z" fill="none" stroke="red" /><path d="M 327.49226783578564,97.99999999999993 A 168.0,168.0 0 0,1 330.98395784837714,104.36121907298536 L 320.7856512099466,109.67577848167981 A 156.5,156.5 0 0,0 317.5329756922646,103.74999999999993 Z" fill="none" stroke="red" /><path d="M 337.21176146189623,117.70918336266496 A 168.0,168.0 0 0,1 339.84327387891597,124.47173832640578 L 329.0385259645854,128.40968481001494 A 156.5,156.5 0 0,0 326.5871468380164,122.11004283486349 Z" fill="none" stroke="red" /><path d="M 344.2755388165635,138.51840042277652 A 168.0,168.0 0 0,1 346.00184773096316,145.5665820869087 L 334.77553077318896,148.06053628929294 A 156.5,156.5 0 0,0 333.1673918142392,141.49481944145552 Z" fill="none" stroke="red" /><path d="M 348.56273671080015,160.0715997070313 A 168.0,168.0 0 0,1 349.3543044984312,167.28481172915642 L 337.8985038928838,168.2921014024582 A 156.5,156.5 0 0,0 337.16112080500136,161.5726509175619 Z" fill="none" stroke="red" /><text fill="red" font-size="10" x="162.0" y="202.0">C4-C5.svg</text></svg>