<?xml version="1.0" encoding="utf-8" ?>
<svg baseProfile="tiny" height="360.0mm" version="1.2" viewBox="0,0,360.0,360.0" width="360.0mm" xmlns="http://www.w3.org/2000/svg" xmlns:ev="http://www.w3.org/2001/xml-events" xmlns:xlink="http://www.w3.org/1999/xlink"><defs /><circle cx="180.0" cy="180.0" fill="none" r="4.0" stroke="red" /><circle cx="180.0" cy="180.0" fill="none" r="170.0" stroke="red" /><path d="M 253.5,180.0 A 73.5,73.5 0 0,1 253.22587267223116,186.34204788614736 L 241.76876334256235,185.34975467947126 A 62.0,62.0 0 0,0 242.0,180.0 Z" fill="none" stroke="red" /><path d="M 250.9955482322465,199.02319981503527 A 73.5,73.5 0 0,1 249.08931878877587,205.07819828661738 L 238.27942537284497,201.15439855469765 A 62.0,62.0 0 0,0 239.88740122992223,196.0467807963563 Z" fill="none" stroke="red" /><path d="M 243.65286717815624,216.75 A 73.5,73.5 0 0,1 240.24444200536323,222.1053109175366 L 230.81844087527236,215.51740512771795 A 62.0,62.0 0 0,0 233.69357503463522,211.0 Z" fill="none" stroke="red" /><path d="M 231.97234841721124,231.97234841721124 A 73.5,73.5 0 0,1 227.29400605793273,236.26301619174197 L 219.8942636134943,227.45995923657148 A 62.0,62.0 0 0,0 223.84062043356596,223.84062043356596 Z" fill="none" stroke="red" /><path d="M 216.75,243.65286717815624 A 73.5,73.5 0 0,1 211.12056175469456,246.5864898915106 L 206.2513582148444,236.16819555474362 A 62.0,62.0 0 0,0 211.0,233.6935750346352 Z" fill="none" stroke="red" /><path d="M 199.02319981503527,250.9955482322465 A 73.5,73.5 0 0,1 192.8263025970339,252.37220434455014 L 190.8194661362735,241.04866216819195 A 62.0,62.0 0 0,0 196.0467807963563,239.88740122992223 Z" fill="none" stroke="red" /><path d="M 180.0,253.5 A 73.5,73.5 0 0,1 173.65795211385262,253.22587267223116 L 174.65024532052874,241.76876334256235 A 62.0,62.0 0 0,0 180.0,242.0 Z" fill="none" stroke="red" /><path d="M 160.9768001849647,250.9955482322465 A 73.5,73.5 0 0,1 154.92180171338262,249.08931878877587 L 158.84560144530235,238.27942537284497 A 62.0,62.0 0 0,0 163.9532192036437,239.88740122992223 Z" fill="none" stroke="red" /><path d="M 143.25,243.65286717815624 A 73.5,73.5 0 0,1 137.89468908246337,240.24444200536323 L 144.48259487228205,230.81844087527236 A 62.0,62.0 0 0,0 149.0,233.69357503463522 Z" fill="none" stroke="red" /><path d="M 128.02765158278876,231.97234841721124 A 73.5,73.5 0 0,1 123.73698380825803,227.29400605793276 L 132.54004076342852,219.8942636134943 A 62.0,62.0 0 0,0 136.15937956643404,223.84062043356596 Z" fill="none" stroke="red" /><path d="M 116.34713282184376,216.75 A 73.5,73.5 0 0,1 113.41351010848942,211.1205617546946 L 123.83180444525638,206.25135821484443 A 62.0,62.0 0 0,0 126.3064249653648,211.0 Z" fill="none" stroke="red" /><path d="M 109.0044517677535,199.0231998150353 A 73.5,73.5 0 0,1 107.62779565544987,192.82630259703393 L 118.95133783180805,190.81946613627352 A 62.0,62.0 0 0,0 120.11259877007777,196.0467807963563 Z" fill="none" stroke="red" /><path d="M 106.5,180.0 A 73.5,73.5 0 0,1 106.77412732776882,173.65795211385264 L 118.23123665743765,174.65024532052877 A 62.0,62.0 0 0,0 118.0,180.0 Z" fill="none" stroke="red" /><path d="M 109.00445176775348,160.97680018496473 A 73.5,73.5 0 0,1 110.9106812112241,154.92180171338265 L 121.72057462715503,158.84560144530238 A 62.0,62.0 0 0,0 120.11259877007777,163.9532192036437 Z" fill="none" stroke="red" /><path d="M 116.34713282184376,143.25 A 73.5,73.5 0 0,1 119.75555799463677,137.8946890824634 L 129.1815591247276,144.48259487228205 A 62.0,62.0 0 0,0 126.30642496536481,149.0 Z" fill="none" stroke="red" /><path d="M 128.02765158278874,128.02765158278876 A 73.5,73.5 0 0,1 132.70599394206724,123.73698380825803 L 140.1057363865057,132.54004076342855 A 62.0,62.0 0 0,0 136.15937956643404,136.15937956643404 Z" fill="none" stroke="red" /><path d="M 143.24999999999997,116.34713282184377 A 73.5,73.5 0 0,1 148.87943824530538,113.41351010848943 L 153.74864178515557,123.8318044452564 A 62.0,62.0 0 0,0 148.99999999999997,126.30642496536481 Z" fill="none" stroke="red" /><path d="M 160.97680018496473,109.00445176775348 A 73.5,73.5 0 0,1 167.1736974029661,107.62779565544987 L 169.1805338637265,118.95133783180805 A 62.0,62.0 0 0,0 163.95321920364373,120.11259877007777 Z" fill="none" stroke="red" /><path d="M 180.0,106.5 A 73.5,73.5 0 0,1 186.34204788614736,106.77412732776882 L 185.34975467947123,118.23123665743765 A 62.0,62.0 0 0,0 180.0,118.0 Z" fill="none" stroke="red" /><path d="M 199.02319981503524,109.00445176775347 A 73.5,73.5 0 0,1 205.07819828661735,110.9106812112241 L 201.15439855469762,121.72057462715503 A 62.0,62.0 0 0,0 196.04678079635624,120.11259877007777 Z" fill="none" stroke="red" /><path d="M 216.75,116.34713282184376 A 73.5,73.5 0 0,1 222.1053109175366,119.75555799463677 L 215.51740512771795,129.18155912472764 A 62.0,62.0 0 0,0 211.0,126.30642496536481 Z" fill="none" stroke="red" /><path d="M 231.97234841721124,128.02765158278874 A 73.5,73.5 0 0,1 236.26301619174197,132.70599394206724 L 227.45995923657145,140.1057363865057 A 62.0,62.0 0 0,0 223.84062043356593,136.15937956643404 Z" fill="none" stroke="red" /><path d="M 243.6528671781562,143.24999999999997 A 73.5,73.5 0 0,1 246.58648989151055,148.87943824530538 L 236.1681955547436,153.74864178515557 A 62.0,62.0 0 0,0 233.6935750346352,148.99999999999997 Z" fill="none" stroke="red" /><path d="M 250.9955482322465,160.97680018496473 A 73.5,73.5 0 0,1 252.37220434455014,167.1736974029661 L 241.04866216819195,169.1805338637265 A 62.0,62.0 0 0,0 239.88740122992223,163.95321920364373 Z" fill="none" stroke="red" /><path d="M 267.0,180.0 A 87.0,87.0 0 0,1 266.74358944374205,186.6745554470332 L 255.2774827931325,185.7922866235748 A 75.5,75.5 0 0,0 255.5,180.0 Z" fill="none" stroke="red" /><path d="M 264.65490374044464,200.0635807545923 A 87.0,87.0 0 0,1 262.8661463476791,206.4990903520296 L 251.91257527873302,202.9963370296349 A 75.5,75.5 0 0,0 253.46488772877672,197.41149824105423 Z" fill="none" stroke="red" /><path d="M 257.7460397081369,219.04552867744022 A 87.0,87.0 0 0,1 254.52136785291026,224.8950524371142 L 244.67084221718073,218.9606489540474 A 75.5,75.5 0 0,0 247.46926434441764,213.8843381051349 Z" fill="none" stroke="red" /><path d="M 246.6458665513511,235.92252204272893 A 87.0,87.0 0 0,1 242.1591231280539,240.8707106246628 L 233.94268731227666,232.82458220875907 A 75.5,75.5 0 0,0 237.83635545548285,228.5304645313337 Z" fill="none" stroke="red" /><path d="M 231.9527974781424,249.78471776968883 A 87.0,87.0 0 0,1 226.4458639860748,253.5648130466396 L 220.30646817182355,243.8407285634631 A 75.5,75.5 0 0,0 225.08547367356036,240.5603010530058 Z" fill="none" stroke="red" /><path d="M 214.45893964540664,259.88480129858385 A 87.0,87.0 0 0,1 208.22869629454263,262.29301735572994 L 204.497316899287,251.41520471675418 A 75.5,75.5 0 0,0 209.90402233595634,249.3253160694607 Z" fill="none" stroke="red" /><path d="M 195.10739145702294,265.6782745120621 A 87.0,87.0 0 0,1 188.489712279046,266.5847837984193 L 187.3675089318158,255.13966869862827 A 75.5,75.5 0 0,0 193.11043741385325,254.3529853524217 Z" fill="none" stroke="red" /><path d="M 174.94139988478858,266.8528097696003 A 87.0,87.0 0 0,1 168.29304567710585,266.2087421348999 L 169.84051665082174,254.81333369178097 A 75.5,75.5 0 0,0 175.61006541725905,255.37226594948075 Z" fill="none" stroke="red" /><path d="M 155.04811875413515,263.34508757144755 A 87.0,87.0 0 0,1 148.72750401294513,261.18516486858687 L 152.86122474686616,250.45379250090014 A 75.5,75.5 0 0,0 158.34635593031268,252.3282081798194 Z" fill="none" stroke="red" /><path d="M 136.50000000000003,255.34421012924616 A 87.0,87.0 0 0,1 130.8478707020304,251.78487435021168 L 137.34499124141718,242.29606912001128 A 75.5,75.5 0 0,0 142.25,245.3849179857251 Z" fill="none" stroke="red" /><path d="M 120.29697750542016,243.28150681685523 A 87.0,87.0 0 0,1 115.61804140412366,238.51464267479435 L 124.12830029898088,230.77994852812614 A 75.5,75.5 0 0,0 128.1887563409106,234.91670993876517 Z" fill="none" stroke="red" /><path d="M 107.31256040707451,227.8072810921601 A 87.0,87.0 0 0,1 103.85906015876948,222.08987146682816 L 113.92366714927697,216.52626776718995 A 75.5,75.5 0 0,0 116.92067023832328,221.48792784434585 Z" fill="none" stroke="red" /><path d="M 98.24674199162598,209.7557524693332 A 87.0,87.0 0 0,1 96.20485668860374,203.39602439352814 L 107.28122620677681,200.30344645645258 A 75.5,75.5 0 0,0 109.05320713066392,205.822520821088 Z" fill="none" stroke="red" /><path d="M 93.58826287645095,190.100083528895 A 87.0,87.0 0 0,1 93.06807108391978,183.44089158933772 L 104.55907318202233,182.98606109189652 A 75.5,75.5 0 0,0 105.0105039904833,188.76501501645487 Z" fill="none" stroke="red" /><path d="M 93.58826287645097,169.89991647110494 A 87.0,87.0 0 0,1 94.61780826859281,163.30025942892456 L 105.90396004918112,165.50769640096328 A 75.5,75.5 0 0,0 105.01050399048331,171.2349849835451 Z" fill="none" stroke="red" /><path d="M 98.24674199162597,150.24424753066683 A 87.0,87.0 0 0,1 100.77052150986259,144.05991460526485 L 111.24338360913363,148.81061554824709 A 75.5,75.5 0 0,0 109.0532071306639,154.17747917891202 Z" fill="none" stroke="red" /><path d="M 107.31256040707453,132.1927189078399 A 87.0,87.0 0 0,1 111.1945164443218,126.75710908797967 L 120.28949415570456,133.79496248439614 A 75.5,75.5 0 0,0 116.9206702383233,138.51207215565415 Z" fill="none" stroke="red" /><path d="M 120.29697750542022,116.71849318314474 A 87.0,87.0 0 0,1 125.32783280690325,112.32464160117011 L 132.55461352782982,121.27023495273957 A 75.5,75.5 0 0,0 128.18875634091063,125.0832900612348 Z" fill="none" stroke="red" /><path d="M 136.49999999999997,104.65578987075385 A 87.0,87.0 0 0,1 142.40853985422754,101.5405702027551 L 147.37752596545033,111.91164425641391 A 75.5,75.5 0 0,0 142.24999999999997,114.61508201427489 Z" fill="none" stroke="red" /><path d="M 155.04811875413517,96.65491242855245 A 87.0,87.0 0 0,1 161.51581224819722,94.98626697317601 L 163.9591244222861,106.22371444223896 A 75.5,75.5 0 0,0 158.3463559303127,107.67179182018057 Z" fill="none" stroke="red" /><path d="M 174.94139988478864,93.14719023039966 A 87.0,87.0 0 0,1 181.61957198832027,93.01507609605761 L 181.4054906335423,104.51308327876264 A 75.5,75.5 0 0,0 175.6100654172591,104.62773405051925 Z" fill="none" stroke="red" /><path d="M 195.1073914570229,94.3217254879379 A 87.0,87.0 0 0,1 201.6360201833423,95.73326498180907 L 198.77608648094647,106.87197133478834 A 75.5,75.5 0 0,0 193.11043741385322,105.64701464757829 Z" fill="none" stroke="red" /><path d="M 214.4589396454067,100.11519870141618 A 87.0,87.0 0 0,1 220.4860649300054,102.99429536402263 L 215.13445864615412,113.17321034464034 A 75.5,75.5 0 0,0 209.90402233595637,110.67468393053933 Z" fill="none" stroke="red" /><path d="M 231.95279747814243,110.21528223031122 A 87.0,87.0 0 0,1 237.15349543686455,114.40672321534544 L 229.59872305153186,123.07709888228254 A 75.5,75.5 0 0,0 225.0854736735604,119.43969894699421 Z" fill="none" stroke="red" /><path d="M 246.64586655135105,124.07747795727106 A 87.0,87.0 0 0,1 250.73976621109136,129.35530159631577 L 241.38910745905056,136.04971575312462 A 75.5,75.5 0 0,0 237.83635545548282,131.46953546866627 Z" fill="none" stroke="red" /><path d="M 257.7460397081369,140.95447132255984 A 87.0,87.0 0 0,1 260.5124378785723,147.03414877712044 L 249.86998919347369,151.3917038238229 A 75.5,75.5 0 0,0 247.46926434441764,146.11566189486516 Z" fill="none" stroke="red" /><path d="M 264.6549037404447,159.93641924540776 A 87.0,87.0 0 0,1 265.9446631801516,166.49019353024292 L 254.584161725304,168.27597254636024 A 75.5,75.5 0 0,0 253.46488772877672,162.58850175894582 Z" fill="none" stroke="red" /><path d="M 280.5,180.0 A 100.5,100.5 0 0,1 280.26005688930314,186.94053258429778 L 268.787513066149,186.1463422885821 A 89.0,89.0 0 0,0 269.0,180.0 Z" fill="none" stroke="red" /><path d="M 278.30383387374746,200.8951249271848 A 100.5,100.5 0 0,1 276.6261162309296,207.63410324448543 L 265.5693964632113,204.47199192795227 A 89.0,89.0 0 0,0 267.0551364653087,198.50414048278057 Z" fill="none" stroke="red" /><path d="M 271.8113184930814,220.87703262911793 A 100.5,100.5 0 0,1 268.76915062971614,227.1199309897496 L 258.6114866273108,221.72809809042502 A 89.0,89.0 0 0,0 261.3055457301915,216.1995612337462 Z" fill="none" stroke="red" /><path d="M 261.3062079346822,239.07241785539355 A 100.5,100.5 0 0,1 257.03254718433965,244.54639164424674 L 248.21787760603212,237.16048613271602 A 89.0,89.0 0 0,0 252.0025124993703,232.31288745403012 Z" fill="none" stroke="red" /><path d="M 247.24762593906524,254.68605496047812 A 100.5,100.5 0 0,1 241.9292517838349,259.15186525593936 L 234.8428199876747,250.09468664456324 A 89.0,89.0 0 0,0 239.55262396593838,246.1398894674881 Z" fill="none" stroke="red" /><path d="M 230.25,267.03555308033606 A 100.5,100.5 0 0,1 224.119350910856,270.2980225431584 L 219.07086797080783,259.9654129984189 A 89.0,89.0 0 0,0 224.5,257.07626093681506 Z" fill="none" stroke="red" /><path d="M 211.05620793468222,275.5811798876629 A 100.5,100.5 0 0,1 204.38122269493846,277.4977229472556 L 201.59133154079126,266.3412670876194 A 89.0,89.0 0 0,0 207.5025124993703,264.64402995026865 Z" fill="none" stroke="red" /><path d="M 190.50511055839917,279.94945048451143 A 100.5,100.5 0 0,1 183.57751805316528,280.4363050125764 L 183.16815031573842,268.9435934937244 A 89.0,89.0 0 0,0 189.30303323082114,268.5124486877763 Z" fill="none" stroke="red" /><path d="M 169.4948894416008,279.94945048451143 A 100.5,100.5 0 0,1 162.61745870563257,278.98533860198495 L 164.6065057194159,267.6586580654394 A 89.0,89.0 0 0,0 170.69696676917883,268.5124486877763 Z" fill="none" stroke="red" /><path d="M 148.94379206531778,275.5811798876629 A 100.5,100.5 0 0,1 142.41709982335107,273.20823791013345 L 146.71763068933578,262.54261864678483 A 89.0,89.0 0 0,0 152.4974875006297,264.64402995026865 Z" fill="none" stroke="red" /><path d="M 129.75000000000003,267.03555308033606 A 100.5,100.5 0 0,1 123.8592940215529,263.35748995886064 L 130.28335490465878,253.8190707098368 A 89.0,89.0 0 0,0 135.50000000000003,257.07626093681506 Z" fill="none" stroke="red" /><path d="M 112.75237406093474,254.68605496047812 A 100.5,100.5 0 0,1 107.75510646400882,249.86361970277017 L 116.02193507757994,241.86927515966713 A 89.0,89.0 0 0,0 120.44737603406162,246.1398894674881 Z" fill="none" stroke="red" /><path d="M 98.6937920653178,239.07241785539355 A 100.5,100.5 0 0,1 94.80836742344914,233.31637402282678 L 104.55666368842759,227.21549540329931 A 89.0,89.0 0 0,0 107.99748750062969,232.31288745403012 Z" fill="none" stroke="red" /><path d="M 88.18868150691863,220.87703262911793 A 100.5,100.5 0 0,1 85.58491152129288,214.4389469577382 L 96.38862811338375,210.4981719327234 A 89.0,89.0 0 0,0 98.69445426980853,216.19956123374624 Z" fill="none" stroke="red" /><path d="M 81.69616612625254,200.8951249271848 A 100.5,100.5 0 0,1 80.48784803951617,194.05637265419406 L 91.87481070166109,192.44793200222162 A 89.0,89.0 0 0,0 92.9448635346913,198.50414048278057 Z" fill="none" stroke="red" /><path d="M 79.5,180.0 A 100.5,100.5 0 0,1 79.73994311069687,173.05946741570222 L 91.21248693385095,173.8536577114179 A 89.0,89.0 0 0,0 91.0,180.0 Z" fill="none" stroke="red" /><path d="M 81.69616612625254,159.10487507281516 A 100.5,100.5 0 0,1 83.37388376907037,152.36589675551457 L 94.4306035367887,155.52800807204773 A 89.0,89.0 0 0,0 92.94486353469131,161.4958595172194 Z" fill="none" stroke="red" /><path d="M 88.18868150691861,139.12296737088207 A 100.5,100.5 0 0,1 91.23084937028386,132.88006901025037 L 101.38851337268919,138.27190190957495 A 89.0,89.0 0 0,0 98.69445426980852,143.8004387662538 Z" fill="none" stroke="red" /><path d="M 98.69379206531778,120.92758214460646 A 100.5,100.5 0 0,1 102.96745281566034,115.45360835575326 L 111.78212239396787,122.83951386728398 A 89.0,89.0 0 0,0 107.99748750062967,127.68711254596991 Z" fill="none" stroke="red" /><path d="M 112.75237406093476,105.31394503952187 A 100.5,100.5 0 0,1 118.07074821616514,100.84813474406059 L 125.15718001232534,109.90531335543675 A 89.0,89.0 0 0,0 120.44737603406162,113.8601105325119 Z" fill="none" stroke="red" /><path d="M 129.74999999999994,92.96444691966393 A 100.5,100.5 0 0,1 135.88064908914396,89.70197745684159 L 140.92913202919215,100.0345870015811 A 89.0,89.0 0 0,0 135.49999999999994,102.92373906318497 Z" fill="none" stroke="red" /><path d="M 148.94379206531778,84.41882011233707 A 100.5,100.5 0 0,1 155.61877730506154,82.50227705274436 L 158.40866845920874,93.65873291238059 A 89.0,89.0 0 0,0 152.49748750062966,95.35597004973134 Z" fill="none" stroke="red" /><path d="M 169.49488944160083,80.05054951548853 A 100.5,100.5 0 0,1 176.42248194683467,79.56369498742362 L 176.83184968426153,91.05640650627565 A 89.0,89.0 0 0,0 170.69696676917886,91.48755131222367 Z" fill="none" stroke="red" /><path d="M 190.5051105583991,80.05054951548853 A 100.5,100.5 0 0,1 197.38254129436743,81.01466139801505 L 195.3934942805841,92.34134193456059 A 89.0,89.0 0 0,0 189.30303323082111,91.48755131222367 Z" fill="none" stroke="red" /><path d="M 211.0562079346822,84.41882011233706 A 100.5,100.5 0 0,1 217.58290017664893,86.79176208986654 L 213.28236931066425,97.45738135321514 A 89.0,89.0 0 0,0 207.5025124993703,95.35597004973133 Z" fill="none" stroke="red" /><path d="M 230.25,92.96444691966393 A 100.5,100.5 0 0,1 236.14070597844704,96.64251004113932 L 229.71664509534116,106.18092929016318 A 89.0,89.0 0 0,0 224.5,102.92373906318497 Z" fill="none" stroke="red" /><path d="M 247.2476259390652,105.31394503952184 A 100.5,100.5 0 0,1 252.24489353599114,110.13638029722978 L 243.97806492242,118.13072484033283 A 89.0,89.0 0 0,0 239.55262396593835,113.86011053251188 Z" fill="none" stroke="red" /><path d="M 261.3062079346822,120.92758214460642 A 100.5,100.5 0 0,1 265.1916325765509,126.68362597717322 L 255.4433363115724,132.78450459670066 A 89.0,89.0 0 0,0 252.0025124993703,127.68711254596987 Z" fill="none" stroke="red" /><path d="M 271.8113184930814,139.1229673708821 A 100.5,100.5 0 0,1 274.4150884787071,145.56105304226173 L 263.6113718866162,149.50182806727656 A 89.0,89.0 0 0,0 261.3055457301915,143.8004387662538 Z" fill="none" stroke="red" /><path d="M 278.30383387374746,159.10487507281513 A 100.5,100.5 0 0,1 279.51215196048383,165.94362734580588 L 268.1251892983389,167.55206799777835 A 89.0,89.0 0 0,0 267.0551364653087,161.49585951721937 Z" fill="none" stroke="red" /><path d="M 294.0,180.0 A 114.0,114.0 0 0,1 293.76077279641174,187.38150206686845 L 282.2849053651948,186.63687685836857 A 102.5,102.5 0 0,0 282.5,180.0 Z" fill="none" stroke="red" /><path d="M 291.80952196596826,202.24029670983862 A 114.0,114.0 0 0,1 290.13483183082883,209.43329437210616 L 279.02473914613995,206.46414625562176 A 102.5,102.5 0 0,0 280.5304912413311,199.99675800665315 Z" fill="none" stroke="red" /><path d="M 285.32226670628665,223.62591128962023 A 114.0,114.0 0 0,1 282.2764710423124,230.35398168100548 L 271.95910773541243,225.27441335353564 A 102.5,102.5 0 0,0 274.6976520824069,219.2250518174217 Z" fill="none" stroke="red" /><path d="M 274.78753580249014,243.33500656423465 A 114.0,114.0 0 0,1 270.48768282894565,249.33959371274204 L 261.3595393856748,242.34481013645666 A 102.5,102.5 0 0,0 265.2256352610109,236.94594888450922 Z" fill="none" stroke="red" /><path d="M 260.61017305526644,260.61017305526644 A 114.0,114.0 0 0,1 255.2215037105397,265.6605240441901 L 247.63336956430106,257.01933082920596 A 102.5,102.5 0 0,0 252.47844507162114,252.47844507162114 Z" fill="none" stroke="red" /><path d="M 243.33500656423467,274.78753580249014 A 114.0,114.0 0 0,1 237.064604389243,278.6895684755952 L 231.3080872798018,268.73404183112723 A 102.5,102.5 0 0,0 236.94594888450922,265.2256352610109 Z" fill="none" stroke="red" /><path d="M 223.62591128962023,285.32226670628665 A 114.0,114.0 0 0,1 216.71474432346645,287.9260281362308 L 213.0110639750466,277.0387533681023 A 102.5,102.5 0 0,0 219.2250518174217,274.6976520824069 Z" fill="none" stroke="red" /><path d="M 202.24029670983862,291.80952196596826 A 114.0,114.0 0 0,1 194.95395722320498,293.014951061205 L 193.44544399454833,281.61432003310097 A 102.5,102.5 0 0,0 199.99675800665315,280.5304912413311 Z" fill="none" stroke="red" /><path d="M 180.0,294.0 A 114.0,114.0 0 0,1 172.61849793313155,293.76077279641174 L 173.36312314163143,282.2849053651948 A 102.5,102.5 0 0,0 180.0,282.5 Z" fill="none" stroke="red" /><path d="M 157.75970329016138,291.80952196596826 A 114.0,114.0 0 0,1 150.56670562789384,290.13483183082883 L 153.53585374437822,279.02473914613995 A 102.5,102.5 0 0,0 160.00324199334688,280.5304912413311 Z" fill="none" stroke="red" /><path d="M 136.37408871037977,285.32226670628665 A 114.0,114.0 0 0,1 129.6460183189945,282.2764710423124 L 134.72558664646436,271.95910773541243 A 102.5,102.5 0 0,0 140.7749481825783,274.6976520824069 Z" fill="none" stroke="red" /><path d="M 116.66499343576534,274.78753580249014 A 114.0,114.0 0 0,1 110.66040628725797,270.48768282894565 L 117.65518986354334,261.3595393856748 A 102.5,102.5 0 0,0 123.05405111549076,265.2256352610109 Z" fill="none" stroke="red" /><path d="M 99.38982694473358,260.61017305526644 A 114.0,114.0 0 0,1 94.33947595580993,255.22150371053968 L 102.98066917079402,247.633369564301 A 102.5,102.5 0 0,0 107.52155492837889,252.47844507162114 Z" fill="none" stroke="red" /><path d="M 85.21246419750983,243.33500656423465 A 114.0,114.0 0 0,1 81.31043152440482,237.064604389243 L 91.26595816887274,231.3080872798018 A 102.5,102.5 0 0,0 94.7743647389891,236.94594888450922 Z" fill="none" stroke="red" /><path d="M 74.67773329371332,223.62591128962026 A 114.0,114.0 0 0,1 72.07397186376917,216.71474432346645 L 82.96124663189772,213.0110639750466 A 102.5,102.5 0 0,0 85.30234791759311,219.22505181742173 Z" fill="none" stroke="red" /><path d="M 68.19047803403173,202.24029670983862 A 114.0,114.0 0 0,1 66.98504893879503,194.953957223205 L 78.38567996689905,193.44544399454836 A 102.5,102.5 0 0,0 79.46950875866888,199.99675800665312 Z" fill="none" stroke="red" /><path d="M 66.0,180.0 A 114.0,114.0 0 0,1 66.23922720358824,172.61849793313155 L 77.71509463480521,173.36312314163143 A 102.5,102.5 0 0,0 77.5,180.0 Z" fill="none" stroke="red" /><path d="M 68.19047803403173,157.75970329016138 A 114.0,114.0 0 0,1 69.86516816917118,150.56670562789387 L 80.97526085386005,153.53585374437824 A 102.5,102.5 0 0,0 79.46950875866888,160.00324199334685 Z" fill="none" stroke="red" /><path d="M 74.6777332937133,136.3740887103798 A 114.0,114.0 0 0,1 77.72352895768762,129.6460183189945 L 88.04089226458755,134.72558664646436 A 102.5,102.5 0 0,0 85.3023479175931,140.7749481825783 Z" fill="none" stroke="red" /><path d="M 85.21246419750985,116.66499343576534 A 114.0,114.0 0 0,1 89.51231717105435,110.66040628725798 L 98.64046061432518,117.65518986354336 A 102.5,102.5 0 0,0 94.7743647389891,123.05405111549076 Z" fill="none" stroke="red" /><path d="M 99.38982694473357,99.38982694473358 A 114.0,114.0 0 0,1 104.77849628946032,94.33947595580993 L 112.36663043569897,102.98066917079402 A 102.5,102.5 0 0,0 107.52155492837886,107.52155492837889 Z" fill="none" stroke="red" /><path d="M 116.66499343576535,85.21246419750985 A 114.0,114.0 0 0,1 122.93539561075701,81.31043152440482 L 128.6919127201982,91.26595816887274 A 102.5,102.5 0 0,0 123.05405111549078,94.7743647389891 Z" fill="none" stroke="red" /><path d="M 136.3740887103798,74.6777332937133 A 114.0,114.0 0 0,1 143.28525567653352,72.07397186376919 L 146.9889360249534,82.96124663189774 A 102.5,102.5 0 0,0 140.77494818257833,85.3023479175931 Z" fill="none" stroke="red" /><path d="M 157.75970329016133,68.19047803403174 A 114.0,114.0 0 0,1 165.04604277679493,66.98504893879503 L 166.5545560054516,78.38567996689905 A 102.5,102.5 0 0,0 160.00324199334682,79.4695087586689 Z" fill="none" stroke="red" /><path d="M 179.99999999999997,66.0 A 114.0,114.0 0 0,1 187.3815020668684,66.23922720358824 L 186.6368768583685,77.71509463480521 A 102.5,102.5 0 0,0 179.99999999999997,77.5 Z" fill="none" stroke="red" /><path d="M 202.24029670983862,68.19047803403173 A 114.0,114.0 0 0,1 209.43329437210613,69.86516816917118 L 206.46414625562176,80.97526085386005 A 102.5,102.5 0 0,0 199.99675800665315,79.46950875866888 Z" fill="none" stroke="red" /><path d="M 223.62591128962026,74.67773329371333 A 114.0,114.0 0 0,1 230.3539816810054,77.72352895768758 L 225.27441335353555,88.04089226458751 A 102.5,102.5 0 0,0 219.22505181742173,85.30234791759312 Z" fill="none" stroke="red" /><path d="M 243.33500656423462,85.21246419750982 A 114.0,114.0 0 0,1 249.339593712742,89.5123171710543 L 242.3448101364566,98.64046061432515 A 102.5,102.5 0 0,0 236.9459488845092,94.77436473898909 Z" fill="none" stroke="red" /><path d="M 260.6101730552664,99.38982694473357 A 114.0,114.0 0 0,1 265.66052404419,104.77849628946028 L 257.01933082920596,112.36663043569894 A 102.5,102.5 0 0,0 252.4784450716211,107.52155492837886 Z" fill="none" stroke="red" /><path d="M 274.78753580249014,116.66499343576535 A 114.0,114.0 0 0,1 278.68956847559514,122.93539561075701 L 268.73404183112723,128.6919127201982 A 102.5,102.5 0 0,0 265.2256352610109,123.05405111549078 Z" fill="none" stroke="red" /><path d="M 285.3222667062867,136.3740887103798 A 114.0,114.0 0 0,1 287.9260281362308,143.28525567653344 L 277.0387533681022,146.9889360249533 A 102.5,102.5 0 0,0 274.6976520824069,140.77494818257833 Z" fill="none" stroke="red" /><path d="M 291.80952196596826,157.75970329016133 A 114.0,114.0 0 0,1 293.01495106120495,165.04604277679493 L 281.61432003310097,166.5545560054516 A 102.5,102.5 0 0,0 280.5304912413311,160.00324199334682 Z" fill="none" stroke="red" /><path d="M 307.5,180.0 A 127.5,127.5 0 0,1 307.2885816182886,187.33941343734483 L 295.80765072722727,186.6774271273098 A 116.0,116.0 0 0,0 296.0,180.0 Z" fill="none" stroke="red" /><path d="M 305.56298850905654,202.14014265253363 A 127.5,127.5 0 0,1 304.08030627907874,209.33134149148333 L 292.88874924214224,206.6857695138201 A 116.0,116.0 0 0,0 294.2376993494161,200.1431886093639 Z" fill="none" stroke="red" /><path d="M 299.81080915020334,223.60756827402275 A 127.5,127.5 0 0,1 297.1019136212436,230.43205157677804 L 286.5397802357981,225.88327829730395 A 116.0,116.0 0 0,0 289.00434401116536,219.67433662577758 Z" fill="none" stroke="red" /><path d="M 290.41823898251596,243.75 A 127.5,127.5 0 0,1 286.56543857445445,250.0004092947618 L 276.95365391871934,243.68664688778327 A 116.0,116.0 0 0,0 280.4589468389949,238.0 Z" fill="none" stroke="red" /><path d="M 277.6706664976697,261.9554202350338 A 127.5,127.5 0 0,1 272.79102660129433,267.4418399982404 L 264.4216398882364,259.55492893957563 A 116.0,116.0 0 0,0 268.86115540180145,254.56336272363853 Z" fill="none" stroke="red" /><path d="M 261.9554202350338,277.6706664976697 A 127.5,127.5 0 0,1 256.19720623937894,282.2263946410786 L 249.32451704916045,273.0059747322755 A 116.0,116.0 0 0,0 254.56336272363856,268.86115540180145 Z" fill="none" stroke="red" /><path d="M 243.75,290.4182389825159 A 127.5,127.5 0 0,1 237.28817232352685,293.9048520117993 L 232.12100383944403,283.6310810460292 A 116.0,116.0 0 0,0 238.0,280.45894683899485 Z" fill="none" stroke="red" /><path d="M 223.60756827402278,299.81080915020334 A 127.5,127.5 0 0,1 216.6384662808383,302.12236809277766 L 213.3338203025666,291.10740940205653 A 116.0,116.0 0 0,0 219.67433662577758,289.00434401116536 Z" fill="none" stroke="red" /><path d="M 202.14014265253363,305.56298850905654 A 127.5,127.5 0 0,1 194.875518980165,306.62925781615695 L 193.53380550352267,295.20779534646437 A 116.0,116.0 0 0,0 200.14318860936393,294.2376993494161 Z" fill="none" stroke="red" /><path d="M 180.0,307.5 A 127.5,127.5 0 0,1 172.66058656265517,307.2885816182886 L 173.32257287269022,295.80765072722727 A 116.0,116.0 0 0,0 180.0,296.0 Z" fill="none" stroke="red" /><path d="M 157.8598573474664,305.56298850905654 A 127.5,127.5 0 0,1 150.6686585085167,304.08030627907874 L 153.3142304861799,292.88874924214224 A 116.0,116.0 0 0,0 159.8568113906361,294.2376993494161 Z" fill="none" stroke="red" /><path d="M 136.39243172597725,299.81080915020334 A 127.5,127.5 0 0,1 129.567948423222,297.1019136212436 L 134.11672170269608,286.5397802357981 A 116.0,116.0 0 0,0 140.32566337422242,289.00434401116536 Z" fill="none" stroke="red" /><path d="M 116.25000000000003,290.41823898251596 A 127.5,127.5 0 0,1 109.99959070523822,286.56543857445445 L 116.31335311221673,276.9536539187194 A 116.0,116.0 0 0,0 122.00000000000003,280.4589468389949 Z" fill="none" stroke="red" /><path d="M 98.04457976496623,277.6706664976697 A 127.5,127.5 0 0,1 92.55816000175953,272.79102660129433 L 100.44507106042435,264.4216398882364 A 116.0,116.0 0 0,0 105.43663727636144,268.86115540180145 Z" fill="none" stroke="red" /><path d="M 82.32933350233031,261.9554202350338 A 127.5,127.5 0 0,1 77.77360535892134,256.19720623937894 L 86.99402526772452,249.32451704916042 A 116.0,116.0 0 0,0 91.13884459819856,254.5633627236386 Z" fill="none" stroke="red" /><path d="M 69.58176101748407,243.75 A 127.5,127.5 0 0,1 66.09514798820071,237.28817232352682 L 76.36891895397085,232.121003839444 A 116.0,116.0 0 0,0 79.54105316100511,238.0 Z" fill="none" stroke="red" /><path d="M 60.18919084979669,223.60756827402278 A 127.5,127.5 0 0,1 57.87763190722234,216.63846628083826 L 68.89259059794345,213.33382030256655 A 116.0,116.0 0 0,0 70.99565598883464,219.67433662577758 Z" fill="none" stroke="red" /><path d="M 54.437011490943476,202.1401426525336 A 127.5,127.5 0 0,1 53.37074218384302,194.87551898016497 L 64.7922046535356,193.53380550352264 A 116.0,116.0 0 0,0 65.76230065058387,200.1431886093639 Z" fill="none" stroke="red" /><path d="M 52.5,180.00000000000003 A 127.5,127.5 0 0,1 52.71141838171138,172.66058656265514 L 64.19234927277272,173.32257287269016 A 116.0,116.0 0 0,0 64.0,180.0 Z" fill="none" stroke="red" /><path d="M 54.437011490943476,157.85985734746637 A 127.5,127.5 0 0,1 55.919693720921245,150.66865850851667 L 67.11125075785776,153.31423048617987 A 116.0,116.0 0 0,0 65.76230065058387,159.85681139063607 Z" fill="none" stroke="red" /><path d="M 60.189190849796674,136.39243172597725 A 127.5,127.5 0 0,1 62.89808637875639,129.56794842322194 L 73.4602197642019,134.11672170269603 A 116.0,116.0 0 0,0 70.99565598883463,140.32566337422244 Z" fill="none" stroke="red" /><path d="M 69.58176101748408,116.24999999999999 A 127.5,127.5 0 0,1 73.43456142554555,109.99959070523819 L 83.04634608128066,116.3133531122167 A 116.0,116.0 0 0,0 79.54105316100512,121.99999999999999 Z" fill="none" stroke="red" /><path d="M 82.3293335023303,98.04457976496624 A 127.5,127.5 0 0,1 87.20897339870567,92.55816000175955 L 95.57836011176359,100.44507106042437 A 116.0,116.0 0 0,0 91.13884459819855,105.43663727636145 Z" fill="none" stroke="red" /><path d="M 98.04457976496622,82.32933350233031 A 127.5,127.5 0 0,1 103.80279376062103,77.77360535892139 L 110.67548295083952,86.99402526772455 A 116.0,116.0 0 0,0 105.43663727636142,91.13884459819856 Z" fill="none" stroke="red" /><path d="M 116.24999999999994,69.5817610174841 A 127.5,127.5 0 0,1 122.71182767647323,66.0951479882007 L 127.87899616055603,76.36891895397083 A 116.0,116.0 0 0,0 121.99999999999994,79.54105316100514 Z" fill="none" stroke="red" /><path d="M 136.39243172597725,60.189190849796674 A 127.5,127.5 0 0,1 143.36153371916174,57.87763190722235 L 146.66617969743342,68.89259059794347 A 116.0,116.0 0 0,0 140.32566337422244,70.99565598883463 Z" fill="none" stroke="red" /><path d="M 157.85985734746637,54.437011490943476 A 127.5,127.5 0 0,1 165.12448101983503,53.370742183843035 L 166.46619449647736,64.79220465353562 A 116.0,116.0 0 0,0 159.8568113906361,65.76230065058387 Z" fill="none" stroke="red" /><path d="M 179.99999999999997,52.5 A 127.5,127.5 0 0,1 187.3394134373448,52.71141838171138 L 186.67742712730978,64.19234927277272 A 116.0,116.0 0 0,0 179.99999999999997,64.0 Z" fill="none" stroke="red" /><path d="M 202.14014265253357,54.43701149094346 A 127.5,127.5 0 0,1 209.33134149148339,55.91969372092126 L 206.68576951382016,67.11125075785777 A 116.0,116.0 0 0,0 200.14318860936388,65.76230065058385 Z" fill="none" stroke="red" /><path d="M 223.6075682740228,60.18919084979669 A 127.5,127.5 0 0,1 230.43205157677806,62.89808637875639 L 225.88327829730395,73.4602197642019 A 116.0,116.0 0 0,0 219.6743366257776,70.99565598883464 Z" fill="none" stroke="red" /><path d="M 243.75,69.58176101748408 A 127.5,127.5 0 0,1 250.00040929476182,73.43456142554555 L 243.6866468877833,83.04634608128066 A 116.0,116.0 0 0,0 238.0,79.54105316100512 Z" fill="none" stroke="red" /><path d="M 261.9554202350338,82.32933350233029 A 127.5,127.5 0 0,1 267.4418399982404,87.20897339870565 L 259.55492893957563,95.57836011176357 A 116.0,116.0 0 0,0 254.56336272363853,91.13884459819853 Z" fill="none" stroke="red" /><path d="M 277.6706664976697,98.0445797649662 A 127.5,127.5 0 0,1 282.2263946410787,103.80279376062111 L 273.0059747322755,110.6754829508396 A 116.0,116.0 0 0,0 268.8611554018014,105.43663727636141 Z" fill="none" stroke="red" /><path d="M 290.4182389825159,116.24999999999994 A 127.5,127.5 0 0,1 293.90485201179933,122.71182767647322 L 283.6310810460292,127.87899616055603 A 116.0,116.0 0 0,0 280.45894683899485,121.99999999999994 Z" fill="none" stroke="red" /><path d="M 299.81080915020334,136.39243172597725 A 127.5,127.5 0 0,1 302.12236809277766,143.36153371916174 L 291.10740940205653,146.66617969743342 A 116.0,116.0 0 0,0 289.00434401116536,140.32566337422244 Z" fill="none" stroke="red" /><path d="M 305.56298850905654,157.85985734746637 A 127.5,127.5 0 0,1 306.62925781615695,165.124481019835 L 295.20779534646437,166.46619449647733 A 116.0,116.0 0 0,0 294.2376993494161,159.85681139063607 Z" fill="none" stroke="red" /><path d="M 321.0,180.0 A 141.0,141.0 0 0,1 320.8106089277396,187.30564257263978 L 309.3260557173212,186.70979229189257 A 129.5,129.5 0 0,0 309.5,180.0 Z" fill="none" stroke="red" /><path d="M 319.26405602391446,202.05725957067256 A 141.0,141.0 0 0,1 317.93414238240405,209.2433302691519 L 306.684194599442,206.85823595641963 A 129.5,129.5 0 0,0 307.9056401070703,200.2582632227099 Z" fill="none" stroke="red" /><path d="M 314.09896879761664,223.57139620686758 A 141.0,141.0 0 0,1 311.6612794744405,230.46095012138858 L 300.92294816978756,226.34534071432498 A 129.5,129.5 0 0,0 303.1618188602224,220.0177007715557 Z" fill="none" stroke="red" /><path d="M 305.6319199105599,244.0126604632761 A 141.0,141.0 0 0,1 302.14647890708164,250.43605391134474 L 292.1841774359367,244.6912693724762 A 129.5,129.5 0 0,0 295.3853448823936,238.7917697162713 Z" fill="none" stroke="red" /><path d="M 294.0713962068676,262.8777205732387 A 141.0,141.0 0 0,1 289.6240266481084,268.6767882901429 L 280.683059935674,261.44428428066317 A 129.5,129.5 0 0,0 284.7677007715557,256.11819017187526 Z" fill="none" stroke="red" /><path d="M 279.7020561473032,279.7020561473032 A 141.0,141.0 0 0,1 274.402267031773,284.7340058398504 L 266.7027913518766,276.1918706117775 A 129.5,129.5 0 0,0 271.5703281636579,271.5703281636579 Z" fill="none" stroke="red" /><path d="M 262.8777205732387,294.0713962068676 A 141.0,141.0 0 0,1 256.85601029795356,298.21232457354375 L 250.58761229492896,288.5708938459143 A 129.5,129.5 0 0,0 256.11819017187526,284.7677007715557 Z" fill="none" stroke="red" /><path d="M 244.01266046327612,305.6319199105599 A 141.0,141.0 0 0,1 237.41730352012408,308.7798635520241 L 232.73433195642602,298.27654134742636 A 129.5,129.5 0 0,0 238.79176971627132,295.3853448823936 Z" fill="none" stroke="red" /><path d="M 223.57139620686758,314.09896879761664 A 141.0,141.0 0 0,1 216.56479217252388,316.1764148939901 L 213.58255734994216,305.06982786362926 A 129.5,129.5 0 0,0 220.0177007715557,303.1618188602224 Z" fill="none" stroke="red" /><path d="M 202.05725957067256,319.26405602391446 A 141.0,141.0 0 0,1 194.81193429004833,320.2198509576561 L 193.60386872738482,308.78348013486857 A 129.5,129.5 0 0,0 200.2582632227099,307.9056401070703 Z" fill="none" stroke="red" /><path d="M 180.0,321.0 A 141.0,141.0 0 0,1 172.69435742736022,320.8106089277396 L 173.29020770810743,309.3260557173212 A 129.5,129.5 0 0,0 180.0,309.5 Z" fill="none" stroke="red" /><path d="M 157.94274042932744,319.26405602391446 A 141.0,141.0 0 0,1 150.7566697308481,317.93414238240405 L 153.14176404358037,306.684194599442 A 129.5,129.5 0 0,0 159.7417367772901,307.9056401070703 Z" fill="none" stroke="red" /><path d="M 136.42860379313242,314.09896879761664 A 141.0,141.0 0 0,1 129.5390498786114,311.6612794744405 L 133.654659285675,300.92294816978756 A 129.5,129.5 0 0,0 139.98229922844433,303.1618188602224 Z" fill="none" stroke="red" /><path d="M 115.98733953672391,305.6319199105599 A 141.0,141.0 0 0,1 109.56394608865529,302.14647890708164 L 115.30873062752383,292.1841774359367 A 129.5,129.5 0 0,0 121.2082302837287,295.3853448823936 Z" fill="none" stroke="red" /><path d="M 97.12227942676131,294.0713962068676 A 141.0,141.0 0 0,1 91.32321170985712,289.6240266481084 L 98.55571571933686,280.683059935674 A 129.5,129.5 0 0,0 103.88180982812474,284.7677007715557 Z" fill="none" stroke="red" /><path d="M 80.2979438526968,279.7020561473032 A 141.0,141.0 0 0,1 75.26599416014959,274.402267031773 L 83.8081293882225,266.7027913518766 A 129.5,129.5 0 0,0 88.42967183634211,271.5703281636579 Z" fill="none" stroke="red" /><path d="M 65.92860379313242,262.8777205732387 A 141.0,141.0 0 0,1 61.787675426456246,256.85601029795356 L 71.4291061540857,250.587612294929 A 129.5,129.5 0 0,0 75.23229922844432,256.1181901718753 Z" fill="none" stroke="red" /><path d="M 54.36808008944014,244.01266046327612 A 141.0,141.0 0 0,1 51.220136447975904,237.4173035201241 L 61.723458652573626,232.73433195642605 A 129.5,129.5 0 0,0 64.61465511760638,238.79176971627132 Z" fill="none" stroke="red" /><path d="M 45.901031202383365,223.5713962068676 A 141.0,141.0 0 0,1 43.82358510600989,216.56479217252394 L 54.930172136370786,213.5825573499422 A 129.5,129.5 0 0,0 56.83818113977762,220.0177007715557 Z" fill="none" stroke="red" /><path d="M 40.73594397608559,202.05725957067256 A 141.0,141.0 0 0,1 39.78014904234391,194.81193429004838 L 51.21651986513146,193.60386872738485 A 129.5,129.5 0 0,0 52.094359892929674,200.2582632227099 Z" fill="none" stroke="red" /><path d="M 39.0,180.00000000000003 A 141.0,141.0 0 0,1 39.18939107226035,172.69435742736027 L 50.67394428267883,173.29020770810746 A 129.5,129.5 0 0,0 50.5,180.00000000000003 Z" fill="none" stroke="red" /><path d="M 40.735943976085565,157.94274042932747 A 141.0,141.0 0 0,1 42.06585761759598,150.75666973084816 L 53.315805400558006,153.1417640435804 A 129.5,129.5 0 0,0 52.09435989292966,159.74173677729013 Z" fill="none" stroke="red" /><path d="M 45.90103120238334,136.42860379313242 A 141.0,141.0 0 0,1 48.33872052555947,129.53904987861142 L 59.077051830212426,133.65465928567505 A 129.5,129.5 0 0,0 56.8381811397776,139.98229922844433 Z" fill="none" stroke="red" /><path d="M 54.36808008944013,115.98733953672392 A 141.0,141.0 0 0,1 57.853521092918356,109.56394608865529 L 67.81582256406331,115.30873062752383 A 129.5,129.5 0 0,0 64.61465511760636,121.20823028372871 Z" fill="none" stroke="red" /><path d="M 65.92860379313241,97.12227942676131 A 141.0,141.0 0 0,1 70.3759733518916,91.32321170985712 L 79.31694006432598,98.55571571933686 A 129.5,129.5 0 0,0 75.2322992284443,103.88180982812474 Z" fill="none" stroke="red" /><path d="M 80.29794385269678,80.2979438526968 A 141.0,141.0 0 0,1 85.59773296822698,75.26599416014959 L 93.29720864812336,83.8081293882225 A 129.5,129.5 0 0,0 88.42967183634208,88.42967183634211 Z" fill="none" stroke="red" /><path d="M 97.12227942676127,65.92860379313242 A 141.0,141.0 0 0,1 103.1439897020465,61.78767542645622 L 109.41238770507107,71.42910615408567 A 129.5,129.5 0 0,0 103.88180982812472,75.23229922844432 Z" fill="none" stroke="red" /><path d="M 115.98733953672388,54.36808008944014 A 141.0,141.0 0 0,1 122.58269647987595,51.220136447975875 L 127.26566804357401,61.7234586525736 A 129.5,129.5 0 0,0 121.20823028372868,64.61465511760638 Z" fill="none" stroke="red" /><path d="M 136.4286037931324,45.901031202383365 A 141.0,141.0 0 0,1 143.43520782747612,43.82358510600986 L 146.41744265005786,54.93017213637077 A 129.5,129.5 0 0,0 139.98229922844428,56.83818113977762 Z" fill="none" stroke="red" /><path d="M 157.94274042932742,40.73594397608559 A 141.0,141.0 0 0,1 165.18806570995167,39.78014904234391 L 166.3961312726152,51.21651986513146 A 129.5,129.5 0 0,0 159.74173677729007,52.094359892929674 Z" fill="none" stroke="red" /><path d="M 179.99999999999997,39.0 A 141.0,141.0 0 0,1 187.30564257263978,39.18939107226035 L 186.70979229189257,50.67394428267883 A 129.5,129.5 0 0,0 179.99999999999997,50.5 Z" fill="none" stroke="red" /><path d="M 202.05725957067253,40.735943976085565 A 141.0,141.0 0 0,1 209.2433302691519,42.06585761759598 L 206.85823595641966,53.315805400558006 A 129.5,129.5 0 0,0 200.25826322270987,52.09435989292966 Z" fill="none" stroke="red" /><path d="M 223.57139620686758,45.90103120238334 A 141.0,141.0 0 0,1 230.4609501213886,48.338720525559495 L 226.345340714325,59.07705183021244 A 129.5,129.5 0 0,0 220.01770077155567,56.8381811397776 Z" fill="none" stroke="red" /><path d="M 244.01266046327606,54.36808008944011 A 141.0,141.0 0 0,1 250.43605391134474,57.853521092918385 L 244.6912693724762,67.81582256406334 A 129.5,129.5 0 0,0 238.7917697162713,64.61465511760635 Z" fill="none" stroke="red" /><path d="M 262.87772057323866,65.9286037931324 A 141.0,141.0 0 0,1 268.6767882901429,70.37597335189164 L 261.44428428066317,79.31694006432602 A 129.5,129.5 0 0,0 256.11819017187526,75.23229922844429 Z" fill="none" stroke="red" /><path d="M 279.7020561473032,80.29794385269678 A 141.0,141.0 0 0,1 284.73400583985045,85.597732968227 L 276.1918706117775,93.29720864812339 A 129.5,129.5 0 0,0 271.5703281636579,88.42967183634208 Z" fill="none" stroke="red" /><path d="M 294.0713962068676,97.12227942676125 A 141.0,141.0 0 0,1 298.2123245735438,103.1439897020465 L 288.5708938459143,109.41238770507107 A 129.5,129.5 0 0,0 284.76770077155567,103.8818098281247 Z" fill="none" stroke="red" /><path d="M 305.6319199105599,115.98733953672388 A 141.0,141.0 0 0,1 308.77986355202415,122.58269647987593 L 298.2765413474264,127.265668043574 A 129.5,129.5 0 0,0 295.3853448823936,121.20823028372867 Z" fill="none" stroke="red" /><path d="M 314.09896879761664,136.42860379313237 A 141.0,141.0 0 0,1 316.1764148939901,143.43520782747612 L 305.06982786362926,146.41744265005786 A 129.5,129.5 0 0,0 303.1618188602224,139.98229922844428 Z" fill="none" stroke="red" /><path d="M 319.2640560239144,157.94274042932742 A 141.0,141.0 0 0,1 320.2198509576561,165.18806570995167 L 308.78348013486857,166.39613127261518 A 129.5,129.5 0 0,0 307.9056401070703,159.74173677729007 Z" fill="none" stroke="red" /><path d="M 334.5,180.0 A 154.5,154.5 0 0,1 334.33602250807144,187.11633026131167 L 322.8482279524545,186.58663577584187 A 143.0,143.0 0 0,0 323.0,180.0 Z" fill="none" stroke="red" /><path d="M 332.99641662057263,201.5022440983301 A 154.5,154.5 0 0,1 331.8436331964008,208.52649746668706 L 320.5413562918143,206.40316594004045 A 143.0,143.0 0 0,0 321.60833383004456,199.90175343728936 Z" fill="none" stroke="red" /><path d="M 328.51493202247025,222.58597147372637 A 154.5,154.5 0 0,1 326.39578028413484,229.3814288472833 L 315.4990069943773,225.70578851237227 A 143.0,143.0 0 0,0 317.4604225191796,219.41614188183087 Z" fill="none" stroke="red" /><path d="M 321.14277320578185,242.84081135521114 A 154.5,154.5 0 0,1 318.09850003137024,249.27520688591 L 307.8193236536307,244.1187999008746 A 143.0,143.0 0 0,0 310.6370004428919,238.16333995983942 Z" fill="none" stroke="red" /><path d="M 311.0234308561678,261.87252632403016 A 154.5,154.5 0 0,1 307.11328956021055,267.8206218218823 L 297.65178257029197,261.2838117833603 A 143.0,143.0 0 0,0 301.2708777503689,255.7784547853483 Z" fill="none" stroke="red" /><path d="M 298.3538664618821,279.3106856965703 A 154.5,154.5 0 0,1 293.65396349698517,284.6567082485684 L 285.1942833661416,276.86672672844844 A 143.0,143.0 0 0,0 289.54435536601386,271.9186281851751 Z" fill="none" stroke="red" /><path d="M 283.3806786824436,294.8158755362574 A 154.5,154.5 0 0,1 277.9824923137583,299.4557708944373 L 270.6892970929931,290.56424102203584 A 143.0,143.0 0 0,0 275.68567670931674,286.26971004326737 Z" fill="none" stroke="red" /><path d="M 266.3953035862304,308.086304959754 A 154.5,154.5 0 0,1 260.4039033710772,311.92976283877147 L 254.419146809476,302.10974812908944 A 143.0,143.0 0 0,0 259.96458519631676,298.55237287537096 Z" fill="none" stroke="red" /><path d="M 247.72834217891247,318.8636801532213 A 154.5,154.5 0 0,1 241.26034390736262,321.83589201732985 L 236.70051248383726,311.2785278865901 A 143.0,143.0 0 0,0 242.6870739908381,308.52754862078086 Z" fill="none" stroke="red" /><path d="M 227.7431256309294,326.9382317676012 A 154.5,154.5 0 0,1 220.92442153209964,328.98134689370687 L 217.87826717857766,317.8921204258905 A 143.0,143.0 0 0,0 224.1894301956175,316.00108183020694 Z" fill="none" stroke="red" /><path d="M 206.82864344954075,332.15279784038614 A 154.5,154.5 0 0,1 199.79195184255383,333.22704931656824 L 198.31876448857733,321.8217996910631 A 143.0,143.0 0 0,0 204.83168940637105,320.8275086807457 Z" fill="none" stroke="red" /><path d="M 185.3919722405364,334.40588277445033 A 154.5,154.5 0 0,1 178.27425432340428,334.49036151766785 L 178.40270788509264,322.9910789451553 A 143.0,143.0 0 0,0 184.99062802845765,322.9128882637307 Z" fill="none" stroke="red" /><path d="M 163.85035242514752,333.6536328343982 A 154.5,154.5 0 0,1 156.79014648084305,332.74669456200775 L 158.51774075573175,321.3771994975217 A 143.0,143.0 0 0,0 165.05242975272554,322.2166310376631 Z" fill="none" stroke="red" /><path d="M 142.62306712985134,329.9106897096415 A 154.5,154.5 0 0,1 135.7577920362151,328.0299869434879 L 139.05090136685283,317.01157367584966 A 143.0,143.0 0 0,0 145.4051689292475,318.75228885746753 Z" fill="none" stroke="red" /><path d="M 122.12328131724158,323.24990553056864 A 154.5,154.5 0 0,1 115.58656184483664,320.4320440107276 L 120.38108960395883,309.9791734209324 A 143.0,143.0 0 0,0 126.43125714152458,312.5872912030506 Z" fill="none" stroke="red" /><path d="M 102.75000000000003,313.80092488469575 A 154.5,154.5 0 0,1 96.6690659579484,310.100751080381 L 102.87169211641827,300.416876404495 A 143.0,143.0 0 0,0 108.50000000000003,303.84163274117475 Z" fill="none" stroke="red" /><path d="M 84.88030206218579,301.74766143223854 A 154.5,154.5 0 0,1 79.37351191465622,297.23719501766567 L 86.86350940968181,288.5108018610109 A 143.0,143.0 0 0,0 91.96040902843086,292.68553776576124 Z" fill="none" stroke="red" /><path d="M 68.86200084767837,287.32471823591504 A 154.5,154.5 0 0,1 64.03653800101155,282.0917503092643 L 72.66812255109807,274.49268798850994 A 143.0,143.0 0 0,0 77.13440855157286,279.3361469756366 Z" fill="none" stroke="red" /><path d="M 55.00687436907063,270.8128214791871 A 154.5,154.5 0 0,1 50.956660968694194,264.9592058087378 L 60.56182859885611,258.63538142815213 A 143.0,143.0 0 0,0 64.31056980438252,264.0532910778237 Z" fill="none" stroke="red" /><path d="M 43.58459690329579,252.53335645042011 A 154.5,154.5 0 0,1 40.388465745998644,246.17302700680847 L 50.7802627940311,241.24752661471592 A 143.0,143.0 0 0,0 53.73849422117344,247.13443347838236 Z" fill="none" stroke="red" /><path d="M 34.81749008857716,232.84211214381583 A 154.5,154.5 0 0,1 32.53765023179079,226.09886550489426 L 43.51381218864779,222.66755836375327 A 143.0,143.0 0 0,0 45.62395522761511,228.90888049557066 Z" fill="none" stroke="red" /><path d="M 28.876195686627028,212.12235623134382 A 154.5,154.5 0 0,1 27.55702161988438,205.12744202260956 L 38.90390997827487,203.2571146228684 A 143.0,143.0 0 0,0 40.12489309506577,209.73137178693958 Z" fill="none" stroke="red" /><path d="M 25.87635423485716,190.7773751934674 A 154.5,154.5 0 0,1 25.543522180829115,183.66694146339645 L 37.04028266575122,183.3939976004252 A 143.0,143.0 0 0,0 37.34834081284515,189.97517574540996 Z" fill="none" stroke="red" /><path d="M 25.87635423485716,169.22262480653265 A 154.5,154.5 0 0,1 26.536342390884556,162.1350680596824 L 37.959203636870484,163.46482027530476 A 143.0,143.0 0 0,0 37.34834081284515,170.0248242545901 Z" fill="none" stroke="red" /><path d="M 28.876195686627028,147.87764376865616 A 154.5,154.5 0 0,1 30.516158133978166,140.95091523512778 L 41.6427871401869,143.85748141503737 A 143.0,143.0 0 0,0 40.1248930950658,150.2686282130604 Z" fill="none" stroke="red" /><path d="M 34.81749008857716,127.15788785618419 A 154.5,154.5 0 0,1 37.405506823643975,120.52680842784578 L 48.01933641282258,124.95361556752069 A 143.0,143.0 0 0,0 45.623955227615085,131.09111950442937 Z" fill="none" stroke="red" /><path d="M 43.58459690329579,107.46664354957986 A 154.5,154.5 0 0,1 47.07029512415565,101.26027964476303 L 56.96473917640296,107.12116497864798 A 143.0,143.0 0 0,0 53.738494221173454,112.86556652161761 Z" fill="none" stroke="red" /><path d="M 55.006874369070616,89.18717852081292 A 154.5,154.5 0 0,1 59.322408924777406,83.5263299532906 L 68.30488334137974,90.70721801501978 A 143.0,143.0 0 0,0 64.31056980438251,95.94670892217636 Z" fill="none" stroke="red" /><path d="M 68.8620008476784,72.67528176408493 A 154.5,154.5 0 0,1 73.92337476695312,67.67013051210414 L 81.8190459008045,76.03125348369508 A 143.0,143.0 0 0,0 77.13440855157289,80.66385302436339 Z" fill="none" stroke="red" /><path d="M 84.88030206218583,58.25233856776143 A 154.5,154.5 0 0,1 90.58900145891725,54.000304207166835 L 97.24418905259009,63.37892234061397 A 143.0,143.0 0 0,0 91.9604090284309,67.31446223423873 Z" fill="none" stroke="red" /><path d="M 102.74999999999993,46.199075115304254 A 154.5,154.5 0 0,1 108.99491153398004,42.78291865830741 L 114.28007993112716,52.99648781966317 A 143.0,143.0 0 0,0 108.49999999999994,56.158367258825294 Z" fill="none" stroke="red" /><path d="M 122.12328131724155,36.75009446943136 A 154.5,154.5 0 0,1 128.78285488894298,34.236307515647354 L 132.59513429850387,45.086032198948686 A 143.0,143.0 0 0,0 126.43125714152454,47.4127087969494 Z" fill="none" stroke="red" /><path d="M 142.62306712985134,30.089310290358554 A 154.5,154.5 0 0,1 149.5676817148536,28.52682084345247 L 151.83287045452468,39.80152349911782 A 143.0,143.0 0 0,0 145.4051689292475,41.247711142532495 Z" fill="none" stroke="red" /><path d="M 163.85035242514755,26.346367165601748 A 154.5,154.5 0 0,1 170.94483899993557,25.765587305352284 L 171.6188477475132,37.24581867097331 A 143.0,143.0 0 0,0 165.05242975272557,37.78336896233691 Z" fill="none" stroke="red" /><path d="M 185.39197224053646,25.594117225549695 A 154.5,154.5 0 0,1 192.49824469379087,26.006351171309262 L 191.56795463567698,37.46866160192377 A 143.0,143.0 0 0,0 184.99062802845768,37.08711173626929 Z" fill="none" stroke="red" /><path d="M 206.8286434495407,27.847202159613857 A 154.5,154.5 0 0,1 213.80838627122398,29.24442624653736 L 211.29190444521055,40.465714907798315 A 143.0,143.0 0 0,0 204.831689406371,39.17249131925425 Z" fill="none" stroke="red" /><path d="M 227.74312563092934,33.06176823239878 A 154.5,154.5 0 0,1 234.46048606635728,35.416787082953135 L 230.406792928732,46.1786443550958 A 143.0,143.0 0 0,0 224.18943019561746,43.99891816979303 Z" fill="none" stroke="red" /><path d="M 247.72834217891244,41.13631984677869 A 154.5,154.5 0 0,1 254.05257444809365,44.403295697832135 L 248.54057052477276,54.49625427048541 A 143.0,143.0 0 0,0 242.68707399083806,51.47245137921911 Z" fill="none" stroke="red" /><path d="M 266.3953035862304,51.91369504024607 A 154.5,154.5 0 0,1 272.2033137017528,56.02903992298778 L 265.34028387929226,65.25665183810518 A 143.0,143.0 0 0,0 259.9645851963168,61.44762712462905 Z" fill="none" stroke="red" /><path d="M 283.38067868244354,65.18412446374253 A 154.5,154.5 0 0,1 288.5594203339221,70.06773787116535 L 280.47894568123536,78.25039815907213 A 143.0,143.0 0 0,0 275.6856767093167,73.73028995673258 Z" fill="none" stroke="red" /><path d="M 298.35386646188203,80.68931430342964 A 154.5,154.5 0 0,1 302.80254133380214,86.24614225558598 L 293.66189909860003,93.22458474141615 A 143.0,143.0 0 0,0 289.5443553660138,88.08137181482483 Z" fill="none" stroke="red" /><path d="M 311.0234308561678,98.12747367596982 A 154.5,154.5 0 0,1 314.65545055244,104.24935883756909 L 304.6325529385044,109.88775607619664 A 143.0,143.0 0 0,0 301.27087775036887,104.22154521465168 Z" fill="none" stroke="red" /><path d="M 321.14277320578185,117.15918864478888 A 154.5,154.5 0 0,1 323.88744459437953,123.72697548470171 L 313.17737590288846,127.91558248745855 A 143.0,143.0 0 0,0 310.6370004428919,121.83666004016058 Z" fill="none" stroke="red" /><path d="M 328.51493202247025,137.41402852627365 A 154.5,154.5 0 0,1 330.31883319683175,144.29988254440795 L 319.1300527323427,146.95717284045526 A 143.0,143.0 0 0,0 317.4604225191796,140.58385811816916 Z" fill="none" stroke="red" /><path d="M 332.99641662057263,158.49775590166982 A 154.5,154.5 0 0,1 333.82443669624615,165.56765178210543 L 322.37472134345114,166.64190423845358 A 143.0,143.0 0 0,0 321.60833383004456,160.09824656271059 Z" fill="none" stroke="red" /><path d="M 348.0,180.0 A 168.0,168.0 0 0,1 347.8432827165519,187.25482232253918 L 336.35401038774035,186.75821246117488 A 156.5,156.5 0 0,0 336.5,180.0 Z" fill="none" stroke="red" /><path d="M 346.56273671080015,201.92840029296866 A 168.0,168.0 0 0,1 345.46041583244306,209.1007008945666 L 334.13425641534127,207.10868863095044 A 156.5,156.5 0 0,0 335.16112080500136,200.42734908243807 Z" fill="none" stroke="red" /><path d="M 342.2755388165635,223.48159957722348 A 168.0,168.0 0 0,1 340.2464753591471,230.44865840604945 L 329.27722258158644,226.995327622302 A 156.5,156.5 0 0,0 331.1673918142392,220.5051805585445 Z" fill="none" stroke="red" /><path d="M 335.2117614618962,244.29081663733507 A 168.0,168.0 0 0,1 332.29067326373956,250.9334253851942 L 321.86601408199556,246.0778635284696 A 156.5,156.5 0 0,0 324.58714683801634,239.88995716513654 Z" fill="none" stroke="red" /><path d="M 325.4922678357857,264.0 A 168.0,168.0 0 0,1 321.72913552583805,270.20450178953735 L 312.0274387487717,264.0297888694202 A 156.5,156.5 0 0,0 315.5329756922647,258.25 Z" fill="none" stroke="red" /><path d="M 313.2833611689275,282.2719200734651 A 168.0,168.0 0 0,1 308.7425729843493,287.93215415884873 L 299.9298373336349,280.5439412253561 A 156.5,156.5 0 0,0 304.1597977555783,275.27116363986477 Z" fill="none" stroke="red" /><path d="M 298.79393923934,298.79393923934 A 168.0,168.0 0 0,1 293.5531893249137,303.8130574460557 L 285.7802031508869,295.33775887087927 A 156.5,156.5 0 0,0 290.66221125569473,290.66221125569473 Z" fill="none" stroke="red" /><path d="M 282.2719200734651,313.2833611689275 A 168.0,168.0 0 0,1 276.420879113237,317.57548499289595 L 269.8206403644142,308.1581154844537 A 156.5,156.5 0 0,0 275.27116363986477,304.1597977555783 Z" fill="none" stroke="red" /><path d="M 264.0,325.4922678357857 A 168.0,168.0 0 0,1 257.63878092701464,328.98395784837714 L 252.32422151832014,318.7856512099466 A 156.5,156.5 0 0,0 258.25,315.53297569226464 Z" fill="none" stroke="red" /><path d="M 244.2908166373351,335.2117614618962 A 168.0,168.0 0 0,1 237.52826167359433,337.8432738789159 L 233.59031518998518,327.03852596458535 A 156.5,156.5 0 0,0 239.88995716513656,324.58714683801634 Z" fill="none" stroke="red" /><path d="M 223.48159957722348,342.2755388165635 A 168.0,168.0 0 0,1 216.4334179130914,344.00184773096316 L 213.93946371070717,332.7755307731889 A 156.5,156.5 0 0,0 220.5051805585445,331.1673918142392 Z" fill="none" stroke="red" /><path d="M 201.9284002929687,346.56273671080015 A 168.0,168.0 0 0,1 194.71518827084367,347.3543044984312 L 193.70789859754188,335.8985038928838 A 156.5,156.5 0 0,0 200.4273490824381,335.16112080500136 Z" fill="none" stroke="red" /><path d="M 180.0,348.0 A 168.0,168.0 0 0,1 172.74517767746084,347.8432827165519 L 173.24178753882512,336.35401038774035 A 156.5,156.5 0 0,0 180.0,336.5 Z" fill="none" stroke="red" /><path d="M 158.07159970703134,346.56273671080015 A 168.0,168.0 0 0,1 150.89929910543344,345.46041583244306 L 152.89131136904962,334.13425641534127 A 156.5,156.5 0 0,0 159.57265091756193,335.16112080500136 Z" fill="none" stroke="red" /><path d="M 136.5184004227765,342.2755388165635 A 168.0,168.0 0 0,1 129.55134159395058,340.2464753591471 L 133.00467237769803,329.27722258158644 A 156.5,156.5 0 0,0 139.4948194414555,331.1673918142392 Z" fill="none" stroke="red" /><path d="M 115.70918336266493,335.2117614618962 A 168.0,168.0 0 0,1 109.06657461480582,332.29067326373956 L 113.92213647153042,321.86601408199556 A 156.5,156.5 0 0,0 120.11004283486346,324.58714683801634 Z" fill="none" stroke="red" /><path d="M 96.00000000000004,325.4922678357857 A 168.0,168.0 0 0,1 89.79549821046271,321.72913552583805 L 95.97021113057984,312.0274387487717 A 156.5,156.5 0 0,0 101.75000000000003,315.5329756922647 Z" fill="none" stroke="red" /><path d="M 77.72807992653493,313.2833611689275 A 168.0,168.0 0 0,1 72.06784584115125,308.7425729843493 L 79.45605877464388,299.9298373336349 A 156.5,156.5 0 0,0 84.72883636013522,304.1597977555783 Z" fill="none" stroke="red" /><path d="M 61.20606076066002,298.79393923934 A 168.0,168.0 0 0,1 56.186942553944306,293.5531893249138 L 64.66224112912073,285.7802031508869 A 156.5,156.5 0 0,0 69.33778874430533,290.66221125569473 Z" fill="none" stroke="red" /><path d="M 46.716638831072515,282.27192007346514 A 168.0,168.0 0 0,1 42.42451500710408,276.42087911323705 L 51.84188451554638,269.82064036441426 A 156.5,156.5 0 0,0 55.84020224442172,275.2711636398648 Z" fill="none" stroke="red" /><path d="M 34.5077321642143,264.0 A 168.0,168.0 0 0,1 31.016042151622827,257.63878092701464 L 41.21434879005341,252.32422151832017 A 156.5,156.5 0 0,0 44.46702430773533,258.25 Z" fill="none" stroke="red" /><path d="M 24.788238538103826,244.2908166373351 A 168.0,168.0 0 0,1 22.15672612108409,237.52826167359433 L 32.96147403541465,233.59031518998518 A 156.5,156.5 0 0,0 35.412853161983634,239.88995716513656 Z" fill="none" stroke="red" /><path d="M 17.724461183436546,223.48159957722353 A 168.0,168.0 0 0,1 15.998152269036837,216.43341791309143 L 27.224469226811095,213.93946371070717 A 156.5,156.5 0 0,0 28.83260818576082,220.50518055854454 Z" fill="none" stroke="red" /><path d="M 13.437263289199848,201.92840029296866 A 168.0,168.0 0 0,1 12.64569550156881,194.71518827084364 L 24.10149610711619,193.70789859754186 A 156.5,156.5 0 0,0 24.83887919499867,200.42734908243807 Z" fill="none" stroke="red" /><path d="M 12.0,180.00000000000003 A 168.0,168.0 0 0,1 12.156717283448046,172.74517767746084 L 23.645989612259626,173.24178753882515 A 156.5,156.5 0 0,0 23.5,180.00000000000003 Z" fill="none" stroke="red" /><path d="M 13.437263289199848,158.07159970703137 A 168.0,168.0 0 0,1 14.539584167556939,150.89929910543344 L 25.865743584658702,152.89131136904962 A 156.5,156.5 0 0,0 24.83887919499867,159.57265091756196 Z" fill="none" stroke="red" /><path d="M 17.724461183436517,136.5184004227765 A 168.0,168.0 0 0,1 19.753524640852902,129.55134159395058 L 30.722777418413585,133.004672377698 A 156.5,156.5 0 0,0 28.83260818576082,139.4948194414555 Z" fill="none" stroke="red" /><path d="M 24.788238538103798,115.70918336266493 A 168.0,168.0 0 0,1 27.709326736260408,109.06657461480583 L 38.13398591800447,113.92213647153044 A 156.5,156.5 0 0,0 35.412853161983605,120.11004283486346 Z" fill="none" stroke="red" /><path d="M 34.5077321642143,95.99999999999999 A 168.0,168.0 0 0,1 38.27086447416198,89.79549821046272 L 47.97256125122826,95.97021113057986 A 156.5,156.5 0 0,0 44.46702430773536,101.74999999999999 Z" fill="none" stroke="red" /><path d="M 46.71663883107249,77.72807992653493 A 168.0,168.0 0 0,1 51.25742701565068,72.06784584115127 L 60.07016266636508,79.45605877464389 A 156.5,156.5 0 0,0 55.84020224442169,84.72883636013522 Z" fill="none" stroke="red" /><path d="M 61.206060760659994,61.20606076066002 A 168.0,168.0 0 0,1 66.44681067508623,56.186942553944306 L 74.21979684911307,64.66224112912073 A 156.5,156.5 0 0,0 69.33778874430529,69.33778874430533 Z" fill="none" stroke="red" /><path d="M 77.72807992653489,46.716638831072544 A 168.0,168.0 0 0,1 83.57912088676301,42.42451500710405 L 90.17935963558578,51.841884515546326 A 156.5,156.5 0 0,0 84.72883636013518,55.84020224442173 Z" fill="none" stroke="red" /><path d="M 95.99999999999993,34.50773216421433 A 168.0,168.0 0 0,1 102.36121907298536,31.016042151622827 L 107.67577848167981,41.21434879005341 A 156.5,156.5 0 0,0 101.74999999999993,44.467024307735386 Z" fill="none" stroke="red" /><path d="M 115.70918336266496,24.788238538103798 A 168.0,168.0 0 0,1 122.47173832640567,22.15672612108409 L 126.4096848100148,32.96147403541465 A 156.5,156.5 0 0,0 120.11004283486349,35.412853161983605 Z" fill="none" stroke="red" /><path d="M 136.51840042277655,17.724461183436517 A 168.0,168.0 0 0,1 143.5665820869087,15.998152269036808 L 146.06053628929294,27.224469226811067 A 156.5,156.5 0 0,0 139.49481944145552,28.83260818576082 Z" fill="none" stroke="red" /><path d="M 158.07159970703134,13.437263289199848 A 168.0,168.0 0 0,1 165.28481172915642,12.64569550156881 L 166.2921014024582,24.101496107116162 A 156.5,156.5 0 0,0 159.57265091756193,24.83887919499867 Z" fill="none" stroke="red" /><path d="M 179.99999999999997,12.0 A 168.0,168.0 0 0,1 187.2548223225392,12.156717283448046 L 186.75821246117494,23.645989612259626 A 156.5,156.5 0 0,0 179.99999999999997,23.5 Z" fill="none" stroke="red" /><path d="M 201.9284002929686,13.437263289199848 A 168.0,168.0 0 0,1 209.10070089456661,14.539584167556939 L 207.10868863095044,25.865743584658702 A 156.5,156.5 0 0,0 200.427349082438,24.83887919499867 Z" fill="none" stroke="red" /><path d="M 223.4815995772234,17.724461183436517 A 168.0,168.0 0 0,1 230.44865840604942,19.753524640852902 L 226.995327622302,30.722777418413557 A 156.5,156.5 0 0,0 220.50518055854442,28.83260818576079 Z" fill="none" stroke="red" /><path d="M 244.29081663733513,24.788238538103855 A 168.0,168.0 0 0,1 250.93342538519428,27.709326736260465 L 246.07786352846966,38.13398591800453 A 156.5,156.5 0 0,0 239.8899571651366,35.412853161983634 Z" fill="none" stroke="red" /><path d="M 264.0,34.5077321642143 A 168.0,168.0 0 0,1 270.2045017895374,38.27086447416204 L 264.02978886942026,47.97256125122834 A 156.5,156.5 0 0,0 258.25,44.46702430773536 Z" fill="none" stroke="red" /><path d="M 282.271920073465,46.71663883107249 A 168.0,168.0 0 0,1 287.9321541588488,51.257427015650734 L 280.54394122535615,60.07016266636511 A 156.5,156.5 0 0,0 275.27116363986477,55.84020224442169 Z" fill="none" stroke="red" /><path d="M 298.7939392393399,61.206060760659994 A 168.0,168.0 0 0,1 303.8130574460557,66.44681067508628 L 295.3377588708793,74.21979684911312 A 156.5,156.5 0 0,0 290.6622112556947,69.33778874430529 Z" fill="none" stroke="red" /><path d="M 313.28336116892746,77.72807992653487 A 168.0,168.0 0 0,1 317.57548499289595,83.57912088676301 L 308.1581154844537,90.17935963558578 A 156.5,156.5 0 0,0 304.15979775557827,84.72883636013516 Z" fill="none" stroke="red" /><path d="M 325.49226783578564,95.99999999999993 A 168.0,168.0 0 0,1 328.98395784837714,102.36121907298536 L 318.7856512099466,107.67577848167981 A 156.5,156.5 0 0,0 315.5329756922646,101.74999999999993 Z" fill="none" stroke="red" /><path d="M 335.21176146189623,115.70918336266496 A 168.0,168.0 0 0,1 337.84327387891597,122.47173832640578 L 327.0385259645854,126.40968481001492 A 156.5,156.5 0 0,0 324.5871468380164,120.11004283486349 Z" fill="none" stroke="red" /><path d="M 342.2755388165635,136.51840042277652 A 168.0,168.0 0 0,1 344.00184773096316,143.5665820869087 L 332.77553077318896,146.06053628929294 A 156.5,156.5 0 0,0 331.1673918142392,139.49481944145552 Z" fill="none" stroke="red" /><path d="M 346.56273671080015,158.0715997070313 A 168.0,168.0 0 0,1 347.3543044984312,165.28481172915642 L 335.8985038928838,166.2921014024582 A 156.5,156.5 0 0,0 335.16112080500136,159.5726509175619 Z" fill="none" stroke="red" /><text fill="red" font-size="10" x="160.0" y="200.0">C4-C5.svg</text></svg>